<svg xmlns="http://www.w3.org/2000/svg" viewBox="0 0 189.6 196.69"><g id="レイヤー_2" data-name="レイヤー 2"><g id="レイヤー_1-2" data-name="レイヤー 1"><g style="isolation:isolate"><path d="M2.78,29.59V.44H14.26Q19.52.44,22,2.56a7.38,7.38,0,0,1,2.43,5.88,6.63,6.63,0,0,1-1.33,4.08,6,6,0,0,1-3.88,2.27v.05a6.84,6.84,0,0,1,4.39,2.32,6.56,6.56,0,0,1,1.57,4.35,7.14,7.14,0,0,1-2.74,5.92c-1.83,1.44-4.47,2.16-8,2.16ZM7.42,13h6.49c3.71,0,5.57-1.42,5.57-4.28s-1.86-4.28-5.57-4.28H7.42Zm0,12.68h7.24a6.43,6.43,0,0,0,4.18-1.15,4,4,0,0,0,1.39-3.22,4,4,0,0,0-1.39-3.23,6.49,6.49,0,0,0-4.18-1.14H7.42Z" fill="#fff"/><path d="M43.37.44V29.59H38.64V.44Z" fill="#fff"/><path d="M68.59,0a14.64,14.64,0,0,1,6.8,1.48,13.42,13.42,0,0,1,4.86,4.35L77.07,8.88a10.66,10.66,0,0,0-3.78-3.69,10.39,10.39,0,0,0-5-1.13,9,9,0,0,0-3.49.58,4.4,4.4,0,0,0-2,1.52,3.72,3.72,0,0,0-.64,2.14,3.4,3.4,0,0,0,1,2.39,6.91,6.91,0,0,0,3.56,1.59L72.6,13.6q4.25.93,6,2.83a6.79,6.79,0,0,1,1.77,4.81,7.69,7.69,0,0,1-1.46,4.68,9.19,9.19,0,0,1-4,3A15.87,15.87,0,0,1,68.81,30a18.19,18.19,0,0,1-5.57-.79,14.77,14.77,0,0,1-4.33-2.17,12.69,12.69,0,0,1-3-3.13l3.26-3.27a11.19,11.19,0,0,0,2.35,2.76,10.24,10.24,0,0,0,3.29,1.88,12.49,12.49,0,0,0,4.17.66,11.14,11.14,0,0,0,3.51-.49,4.64,4.64,0,0,0,2.25-1.43,3.48,3.48,0,0,0,.78-2.28,3.28,3.28,0,0,0-.87-2.25,6,6,0,0,0-3.2-1.5L65,16.56a14,14,0,0,1-4.37-1.63,7.07,7.07,0,0,1-2.57-2.59,6.93,6.93,0,0,1-.83-3.42,7.84,7.84,0,0,1,1.34-4.48,9.43,9.43,0,0,1,3.91-3.23A14.27,14.27,0,0,1,68.59,0Z" fill="#fff"/><path d="M114.21.44V4.5h-10V29.59H99.5V4.5h-10V.44Z" fill="#fff"/><path d="M138.37.44a11.13,11.13,0,0,1,7.44,2.34,7.86,7.86,0,0,1,2.76,6.32,7.69,7.69,0,0,1-2.76,6.34,11.54,11.54,0,0,1-7.44,2.23l-.45.26h-6.75V29.59h-4.69V.44ZM138,14a6.51,6.51,0,0,0,4.26-1.17,4.43,4.43,0,0,0,1.39-3.6,4.46,4.46,0,0,0-1.39-3.58A6.45,6.45,0,0,0,138,4.46h-6.84V14Zm2.78,1,9.5,14.62h-5.43l-8.13-12.76Z" fill="#fff"/><path d="M174.62,0A14.27,14.27,0,0,1,182,1.81,12,12,0,0,1,186.72,7a17.8,17.8,0,0,1,1.68,8,17.73,17.73,0,0,1-1.68,8A12,12,0,0,1,182,28.22,14.27,14.27,0,0,1,174.62,30a14.12,14.12,0,0,1-7.28-1.81,12.13,12.13,0,0,1-4.77-5.17,17.73,17.73,0,0,1-1.68-8,17.8,17.8,0,0,1,1.68-8,12.13,12.13,0,0,1,4.77-5.17A14.12,14.12,0,0,1,174.62,0Zm0,4.11a8.37,8.37,0,0,0-4.7,1.28,8.21,8.21,0,0,0-3,3.71A14.89,14.89,0,0,0,165.83,15a14.9,14.9,0,0,0,1.06,5.89,8.16,8.16,0,0,0,3,3.73,9.36,9.36,0,0,0,9.45,0,8.16,8.16,0,0,0,3-3.73A14.9,14.9,0,0,0,183.46,15,14.89,14.89,0,0,0,182.4,9.1a8.21,8.21,0,0,0-3-3.71A8.45,8.45,0,0,0,174.62,4.11Z" fill="#fff"/><path d="M7.51,108.86H23.58v4.06H2.78V83.77H7.51Z" fill="#fff"/><path d="M52.29,83.33a14.21,14.21,0,0,1,7.33,1.81,12.13,12.13,0,0,1,4.77,5.17,20.05,20.05,0,0,1,0,16.07,12.13,12.13,0,0,1-4.77,5.17,14.21,14.21,0,0,1-7.33,1.81A14.13,14.13,0,0,1,45,111.55a12.13,12.13,0,0,1-4.77-5.17,17.74,17.74,0,0,1-1.67-8,17.73,17.73,0,0,1,1.67-8A12.13,12.13,0,0,1,45,85.14,14.13,14.13,0,0,1,52.29,83.33Zm0,4.11a8.35,8.35,0,0,0-4.7,1.28,8.21,8.21,0,0,0-3,3.71,17,17,0,0,0,0,11.81,8.16,8.16,0,0,0,3,3.73,8.35,8.35,0,0,0,4.7,1.28A8.45,8.45,0,0,0,57,108a8.08,8.08,0,0,0,3-3.73,17,17,0,0,0,0-11.81,8.12,8.12,0,0,0-3-3.71A8.45,8.45,0,0,0,52.29,87.44Z" fill="#fff"/><path d="M105.68,83.77v4.06h-10v25.09H91V87.83H81V83.77Z" fill="#fff"/><path d="M146.49,83.77v18q0,5.77-3,8.7t-8.88,2.91q-5.74,0-8.81-2.91t-3.07-8.7v-18h4.72v17.4q0,4.11,1.77,6.1c1.18,1.32,3,2,5.39,2s4.25-.66,5.43-2,1.77-3.36,1.77-6.1V83.77Z" fill="#fff"/><path d="M176.44,83.33a14.64,14.64,0,0,1,6.8,1.48,13.22,13.22,0,0,1,4.85,4.35l-3.17,3a10.66,10.66,0,0,0-3.78-3.69,10.39,10.39,0,0,0-5-1.13,9,9,0,0,0-3.49.58,4.4,4.4,0,0,0-2,1.52,3.79,3.79,0,0,0-.64,2.14A3.41,3.41,0,0,0,171,94a7.08,7.08,0,0,0,3.56,1.59l5.92,1.32q4.23.93,6,2.83a6.77,6.77,0,0,1,1.77,4.81,7.69,7.69,0,0,1-1.46,4.68,9.19,9.19,0,0,1-4,3,15.87,15.87,0,0,1-6.07,1.06,18.19,18.19,0,0,1-5.57-.79,15,15,0,0,1-4.33-2.17,12.86,12.86,0,0,1-3-3.13L167,104a11.19,11.19,0,0,0,2.35,2.76,10,10,0,0,0,3.29,1.87,12.24,12.24,0,0,0,4.17.67,11.14,11.14,0,0,0,3.51-.49,4.64,4.64,0,0,0,2.25-1.43,3.48,3.48,0,0,0,.78-2.28,3.28,3.28,0,0,0-.87-2.25,6,6,0,0,0-3.2-1.5l-6.4-1.46a14,14,0,0,1-4.37-1.63,6.68,6.68,0,0,1-3.4-6,7.84,7.84,0,0,1,1.34-4.48,9.43,9.43,0,0,1,3.91-3.23A14.12,14.12,0,0,1,176.44,83.33Z" fill="#fff"/><path d="M12.72,166.66a14.61,14.61,0,0,1,6.8,1.48,13.24,13.24,0,0,1,4.86,4.35l-3.18,3a10.71,10.71,0,0,0-3.78-3.68,10.36,10.36,0,0,0-5-1.13,9.19,9.19,0,0,0-3.49.57,4.4,4.4,0,0,0-2,1.53A3.72,3.72,0,0,0,6.32,175a3.36,3.36,0,0,0,.94,2.38,7,7,0,0,0,3.56,1.59l5.92,1.33c2.82.62,4.83,1.56,6,2.83a6.77,6.77,0,0,1,1.77,4.81,7.63,7.63,0,0,1-1.46,4.68,9.19,9.19,0,0,1-4,3,16,16,0,0,1-6.07,1.06,18.07,18.07,0,0,1-5.56-.8,14.88,14.88,0,0,1-4.33-2.16,12.59,12.59,0,0,1-3-3.14l3.27-3.26a11.37,11.37,0,0,0,2.34,2.76A10.14,10.14,0,0,0,8.9,192a12.24,12.24,0,0,0,4.17.67,11.35,11.35,0,0,0,3.51-.49,4.66,4.66,0,0,0,2.26-1.44,3.5,3.5,0,0,0,.77-2.27,3.32,3.32,0,0,0-.86-2.25,6,6,0,0,0-3.21-1.5l-6.4-1.46a13.9,13.9,0,0,1-4.37-1.64,6.7,6.7,0,0,1-3.4-6,7.85,7.85,0,0,1,1.35-4.48,9.4,9.4,0,0,1,3.9-3.23A14.12,14.12,0,0,1,12.72,166.66Z" fill="#fff"/><path d="M64.08,167.1v4.06h-10v25.09H49.38V171.16h-10V167.1Z" fill="#fff"/><path d="M74.77,196.25l11-29.15h5.65l11,29.15h-5L89.92,175.4l-1.33-4.19h-.13l-1.24,4.1-7.59,20.94Zm5.87-7.64v-3.85H96.41v3.85Z" fill="#fff"/><path d="M143.84,167.1v29.15h-5.61L127,177.88l-2.83-5.17h0l.18,4.72v18.82H120V167.1h5.56l11.22,18.33,2.87,5.25h.05l-.18-4.77V167.1Z" fill="#fff"/><path d="M175.11,167.1q6.84,0,10.67,3.78t3.82,10.79q0,7-3.82,10.8t-10.67,3.78H164.82V167.1Zm0,25.13q4.63,0,7.09-2.76t2.45-7.8q0-5-2.45-7.79t-7.09-2.76h-5.57v21.11Z" fill="#fff"/></g></g></g></svg>