<svg xmlns="http://www.w3.org/2000/svg" viewBox="0 0 340.99 113.36"><g id="レイヤー_2" data-name="レイヤー 2"><g id="レイヤー_1-2" data-name="レイヤー 1"><g style="isolation:isolate"><path d="M125.6.44V29.59h-4.37V12.72l.35-8h0l-8.88,24.91h-3.93L99.86,4.68h0l.35,8V29.59H95.79V.44h7l5.88,16.87,2,6.94h.09l2.07-6.94L118.71.44Z" fill="#fff"/><path d="M153,0a14.27,14.27,0,0,1,7.34,1.81A12.13,12.13,0,0,1,165.09,7a17.94,17.94,0,0,1,1.67,8,17.86,17.86,0,0,1-1.67,8,12.13,12.13,0,0,1-4.77,5.17A14.27,14.27,0,0,1,153,30a14.12,14.12,0,0,1-7.28-1.81,12.13,12.13,0,0,1-4.77-5.17,17.73,17.73,0,0,1-1.68-8,17.8,17.8,0,0,1,1.68-8,12.13,12.13,0,0,1,4.77-5.17A14.12,14.12,0,0,1,153,0Zm0,4.11a8.37,8.37,0,0,0-4.7,1.28,8.12,8.12,0,0,0-3,3.71A14.71,14.71,0,0,0,144.2,15a14.73,14.73,0,0,0,1.06,5.89,8.08,8.08,0,0,0,3,3.73,9.36,9.36,0,0,0,9.45,0,8.16,8.16,0,0,0,3-3.73A14.9,14.9,0,0,0,161.82,15a14.89,14.89,0,0,0-1.06-5.92,8.21,8.21,0,0,0-3-3.71A8.45,8.45,0,0,0,153,4.11Z" fill="#fff"/><path d="M203.46.44,192.64,29.59h-5.52L176.3.44h5l6.8,19.39,1.77,5.79,1.76-5.75L198.47.44Z" fill="#fff"/><path d="M209.12,29.59l11-29.15h5.66l11,29.15h-5l-7.5-20.85-1.33-4.19h-.13l-1.24,4.11L214,29.59ZM215,22V18.11h15.77V22Z" fill="#fff"/><path d="M248.56,29.59V.44H260q5.25,0,7.68,2.12a7.38,7.38,0,0,1,2.43,5.88,6.68,6.68,0,0,1-1.32,4.08,6,6,0,0,1-3.89,2.27v.05a6.84,6.84,0,0,1,4.39,2.32,6.56,6.56,0,0,1,1.57,4.35,7.14,7.14,0,0,1-2.74,5.92q-2.73,2.16-8,2.16ZM253.19,13h6.5c3.71,0,5.56-1.42,5.56-4.28s-1.85-4.28-5.56-4.28h-6.5Zm0,12.68h7.25a6.42,6.42,0,0,0,4.17-1.15A3.93,3.93,0,0,0,266,21.29a4,4,0,0,0-1.39-3.23,6.48,6.48,0,0,0-4.17-1.15h-7.25Z" fill="#fff"/><path d="M289.14,25.53h16.08v4.06h-20.8V.44h4.72Z" fill="#fff"/><path d="M317.5,29.59V.44h21.11V4.5H322.22v8.4H335v4H322.22v8.66h17v4.06Z" fill="#fff"/><path d="M11.88,83.77a11.13,11.13,0,0,1,7.44,2.34,7.86,7.86,0,0,1,2.76,6.32,7.67,7.67,0,0,1-2.76,6.33A11.48,11.48,0,0,1,11.88,101l-.44.27H4.68v11.66H0V83.77Zm-.35,13.56a6.52,6.52,0,0,0,4.26-1.17,5.33,5.33,0,0,0,0-7.18,6.47,6.47,0,0,0-4.26-1.19H4.68v9.54Zm2.78,1,9.49,14.62H18.37l-8.12-12.77Z" fill="#fff"/><path d="M36.3,112.92V83.77H57.41v4.06H41v8.4H53.84v4H41v8.66H58v4.06Z" fill="#fff"/><path d="M81,83.33a14.61,14.61,0,0,1,6.8,1.48,13.17,13.17,0,0,1,4.86,4.35l-3.18,3a10.72,10.72,0,0,0-3.77-3.69,10.39,10.39,0,0,0-5-1.13A8.92,8.92,0,0,0,77.2,88a4.4,4.4,0,0,0-2,1.52,3.72,3.72,0,0,0-.64,2.14,3.37,3.37,0,0,0,1,2.39,7.08,7.08,0,0,0,3.55,1.59L85,96.93q4.25.93,6,2.83a6.81,6.81,0,0,1,1.76,4.81,7.68,7.68,0,0,1-1.45,4.68,9.25,9.25,0,0,1-4,3,15.92,15.92,0,0,1-6.08,1.06,17.82,17.82,0,0,1-5.56-.8,14.76,14.76,0,0,1-4.33-2.16,12.91,12.91,0,0,1-3-3.13L71.5,104a11.37,11.37,0,0,0,2.34,2.76,10.35,10.35,0,0,0,3.29,1.88,12.51,12.51,0,0,0,4.18.66,11.14,11.14,0,0,0,3.51-.49,4.74,4.74,0,0,0,2.25-1.43,3.55,3.55,0,0,0,.77-2.28,3.32,3.32,0,0,0-.86-2.25,6,6,0,0,0-3.2-1.5l-6.41-1.46A14.15,14.15,0,0,1,73,98.26a7,7,0,0,1-2.56-2.59,6.93,6.93,0,0,1-.84-3.42A7.85,7.85,0,0,1,71,87.77a9.43,9.43,0,0,1,3.91-3.23A14.08,14.08,0,0,1,81,83.33Z" fill="#fff"/><path d="M126.57,83.77v4.06h-10v25.09h-4.72V87.83h-10V83.77Z" fill="#fff"/><path d="M131.52,112.92l11-29.15h5.65l11,29.15h-5l-7.51-20.85-1.33-4.19h-.13L144,92l-7.59,20.94Zm5.87-7.64v-3.84h15.77v3.84Z" fill="#fff"/><path d="M193.17,83.77v18q0,5.77-3,8.7c-2,1.94-5,2.91-8.88,2.91s-6.77-1-8.81-2.91-3.07-4.85-3.07-8.7v-18h4.72v17.4q0,4.11,1.77,6.1c1.18,1.32,3,2,5.39,2s4.25-.66,5.43-2,1.77-3.36,1.77-6.1V83.77Z" fill="#fff"/><path d="M219.76,83.77a11.13,11.13,0,0,1,7.44,2.34A7.86,7.86,0,0,1,230,92.43a7.67,7.67,0,0,1-2.76,6.33,11.48,11.48,0,0,1-7.44,2.23l-.44.27h-6.76v11.66h-4.68V83.77Zm-.35,13.56a6.52,6.52,0,0,0,4.26-1.17,5.33,5.33,0,0,0,0-7.18,6.47,6.47,0,0,0-4.26-1.19h-6.85v9.54Zm2.78,1,9.49,14.62h-5.43l-8.12-12.77Z" fill="#fff"/><path d="M240.74,112.92l11-29.15h5.66l11,29.15h-5l-7.5-20.85-1.33-4.19h-.13L253.19,92l-7.59,20.94Zm5.87-7.64v-3.84h15.77v3.84Z" fill="#fff"/><path d="M304.07,83.77v29.15h-5.61L287.2,94.55l-2.83-5.17h0l.17,4.72v18.82h-4.32V83.77h5.56L297,102.1l2.87,5.25h0l-.17-4.77V83.77Z" fill="#fff"/><path d="M341,83.77v4.06H331v25.09h-4.73V87.83h-10V83.77Z" fill="#fff"/></g></g></g></svg>