<svg xmlns="http://www.w3.org/2000/svg" viewBox="0 0 499.23 196.69"><g id="レイヤー_2" data-name="レイヤー 2"><g id="レイヤー_1-2" data-name="レイヤー 1"><g style="isolation:isolate"><path d="M32.59.44q6.85,0,10.67,3.78T47.08,15q0,7-3.82,10.79T32.59,29.59H22.3V.44Zm0,25.13c3.09,0,5.46-.92,7.09-2.76s2.45-4.44,2.45-7.79-.81-6-2.45-7.8-4-2.76-7.09-2.76H27V25.57Z" fill="#fff"/><path d="M60.73,29.59V.44H81.84V4.5H65.45v8.4H78.26v4H65.45v8.66h17v4.06Z" fill="#fff"/><path d="M100.16,25.53h16.08v4.06H95.44V.44h4.72Z" fill="#fff"/><path d="M133.24.44V29.59h-4.72V.44Z" fill="#fff"/><path d="M172.68,21.86A11.6,11.6,0,0,1,170,26.34a11.28,11.28,0,0,1-4.15,2.76,14.35,14.35,0,0,1-5.26.93,14.12,14.12,0,0,1-7.28-1.81,12.13,12.13,0,0,1-4.77-5.17,17.73,17.73,0,0,1-1.68-8,17.8,17.8,0,0,1,1.68-8,12.13,12.13,0,0,1,4.77-5.17A14,14,0,0,1,160.58,0a16,16,0,0,1,5.19.79,10.2,10.2,0,0,1,6.47,6.36l-4.46,2a7.56,7.56,0,0,0-2.56-3.82,7.3,7.3,0,0,0-4.38-1.21,8.6,8.6,0,0,0-4.72,1.28A8.39,8.39,0,0,0,153,9.1,14,14,0,0,0,151.83,15a14.9,14.9,0,0,0,1.06,5.89,8.13,8.13,0,0,0,3.05,3.73,8.59,8.59,0,0,0,4.77,1.28,7.83,7.83,0,0,0,4.66-1.39,7.58,7.58,0,0,0,2.81-4.17Z" fill="#fff"/><path d="M190.08.44V29.59h-4.72V.44Z" fill="#fff"/><path d="M217.46,0a14.21,14.21,0,0,1,7.33,1.81A12.13,12.13,0,0,1,229.56,7a17.8,17.8,0,0,1,1.68,8,17.73,17.73,0,0,1-1.68,8,12.13,12.13,0,0,1-4.77,5.17,15.67,15.67,0,0,1-14.62,0,12,12,0,0,1-4.76-5.17,17.73,17.73,0,0,1-1.68-8,17.8,17.8,0,0,1,1.68-8,12,12,0,0,1,4.76-5.17A14.16,14.16,0,0,1,217.46,0Zm0,4.11a8.37,8.37,0,0,0-4.7,1.28,8.21,8.21,0,0,0-3,3.71A14.89,14.89,0,0,0,208.67,15a14.9,14.9,0,0,0,1.06,5.89,8.16,8.16,0,0,0,3,3.73,9.36,9.36,0,0,0,9.45,0,8.16,8.16,0,0,0,3-3.73,14.91,14.91,0,0,0,1-5.89,14.89,14.89,0,0,0-1-5.92,8.21,8.21,0,0,0-3-3.71A8.45,8.45,0,0,0,217.46,4.11Z" fill="#fff"/><path d="M268.12.44v18q0,5.77-3.05,8.7T256.19,30q-5.73,0-8.81-2.91c-2-1.95-3.07-4.85-3.07-8.7V.44H249v17.4q0,4.11,1.77,6.1c1.17,1.32,3,2,5.38,2s4.26-.66,5.44-2,1.76-3.36,1.76-6.1V.44Z" fill="#fff"/><path d="M292.76,0a14.61,14.61,0,0,1,6.8,1.48,13.26,13.26,0,0,1,4.86,4.35l-3.18,3.05a10.72,10.72,0,0,0-3.77-3.69,10.39,10.39,0,0,0-5-1.13,8.92,8.92,0,0,0-3.49.58,4.3,4.3,0,0,0-2,1.52,3.72,3.72,0,0,0-.64,2.14,3.35,3.35,0,0,0,.95,2.39,6.87,6.87,0,0,0,3.55,1.59l5.92,1.32q4.25.93,6,2.83a6.82,6.82,0,0,1,1.76,4.81,7.68,7.68,0,0,1-1.45,4.68,9.17,9.17,0,0,1-4,3A15.92,15.92,0,0,1,293,30a18.12,18.12,0,0,1-5.56-.79,14.77,14.77,0,0,1-4.33-2.17,12.91,12.91,0,0,1-3-3.13l3.27-3.27a11.37,11.37,0,0,0,2.34,2.76,10.35,10.35,0,0,0,3.29,1.88,12.51,12.51,0,0,0,4.18.66,11.14,11.14,0,0,0,3.51-.49,4.74,4.74,0,0,0,2.25-1.43,3.53,3.53,0,0,0,.77-2.28,3.32,3.32,0,0,0-.86-2.25,6,6,0,0,0-3.2-1.5l-6.41-1.46a14.15,14.15,0,0,1-4.37-1.63,7,7,0,0,1-2.56-2.59,6.93,6.93,0,0,1-.84-3.42,7.85,7.85,0,0,1,1.35-4.48,9.43,9.43,0,0,1,3.91-3.23A14.08,14.08,0,0,1,292.76,0Z" fill="#fff"/><path d="M359.85,4.5H343.51V13h12.8v4.07h-12.8V29.59h-4.73V.44h21.07Z" fill="#fff"/><path d="M384.05,0a14.21,14.21,0,0,1,7.33,1.81A12.13,12.13,0,0,1,396.15,7a17.8,17.8,0,0,1,1.68,8,17.73,17.73,0,0,1-1.68,8,12.13,12.13,0,0,1-4.77,5.17,15.67,15.67,0,0,1-14.62,0A12.13,12.13,0,0,1,372,23.05a17.73,17.73,0,0,1-1.68-8A17.8,17.8,0,0,1,372,7a12.13,12.13,0,0,1,4.77-5.17A14.13,14.13,0,0,1,384.05,0Zm0,4.11a8.35,8.35,0,0,0-4.7,1.28,8.21,8.21,0,0,0-3,3.71A14.71,14.71,0,0,0,375.26,15a14.73,14.73,0,0,0,1.06,5.89,8.16,8.16,0,0,0,3,3.73,8.35,8.35,0,0,0,4.7,1.28,8.47,8.47,0,0,0,4.75-1.28,8.08,8.08,0,0,0,3-3.73A14.73,14.73,0,0,0,392.88,15a14.71,14.71,0,0,0-1.06-5.92,8.12,8.12,0,0,0-3-3.71A8.47,8.47,0,0,0,384.05,4.11Z" fill="#fff"/><path d="M423.58,0a14.23,14.23,0,0,1,7.33,1.81A12.13,12.13,0,0,1,435.68,7a17.94,17.94,0,0,1,1.68,8,17.86,17.86,0,0,1-1.68,8,12.13,12.13,0,0,1-4.77,5.17,15.67,15.67,0,0,1-14.62,0,12.13,12.13,0,0,1-4.77-5.17,17.73,17.73,0,0,1-1.68-8,17.8,17.8,0,0,1,1.68-8,12.13,12.13,0,0,1,4.77-5.17A14.13,14.13,0,0,1,423.58,0Zm0,4.11a8.39,8.39,0,0,0-4.71,1.28,8.12,8.12,0,0,0-3,3.71A14.71,14.71,0,0,0,414.79,15a14.73,14.73,0,0,0,1.06,5.89,8.08,8.08,0,0,0,3,3.73,9.36,9.36,0,0,0,9.45,0,8.16,8.16,0,0,0,3-3.73A14.73,14.73,0,0,0,432.41,15a14.71,14.71,0,0,0-1.06-5.92,8.21,8.21,0,0,0-3-3.71A8.44,8.44,0,0,0,423.58,4.11Z" fill="#fff"/><path d="M461.29.44q6.85,0,10.67,3.78T475.78,15q0,7-3.82,10.79t-10.67,3.78H451V.44Zm0,25.13c3.09,0,5.46-.92,7.09-2.76s2.45-4.44,2.45-7.79-.82-6-2.45-7.8-4-2.76-7.09-2.76h-5.56V25.57Z" fill="#fff"/><path d="M195.65,112.92l11-29.15h5.66l11,29.15h-5l-7.51-20.85-1.32-4.19h-.13L208.1,92l-7.6,20.94Zm5.87-7.64v-3.84h15.77v3.84Z" fill="#fff"/><path d="M259,83.77v29.15h-5.61L242.11,94.55l-2.83-5.17h0l.17,4.72v18.82h-4.33V83.77h5.57l11.22,18.33,2.87,5.25h0l-.17-4.77V83.77Z" fill="#fff"/><path d="M284.5,83.77q6.86,0,10.67,3.78T299,98.34c0,4.69-1.27,8.28-3.82,10.8s-6.1,3.78-10.67,3.78H274.21V83.77Zm0,25.13q4.65,0,7.09-2.76c1.64-1.84,2.45-4.44,2.45-7.8s-.81-6-2.45-7.79-4-2.76-7.09-2.76h-5.56V108.9Z" fill="#fff"/><path d="M10.29,167.1q6.84,0,10.67,3.77t3.82,10.8q0,7-3.82,10.8t-10.67,3.78H0V167.1Zm0,25.13c3.09,0,5.46-.92,7.09-2.76s2.45-4.44,2.45-7.8-.82-5.95-2.45-7.79-4-2.76-7.09-2.76H4.73v21.11Z" fill="#fff"/><path d="M34,196.25,45,167.1h5.65l11,29.15h-5L49.11,175.4l-1.32-4.19h-.14l-1.23,4.1-7.6,20.94Zm5.88-7.64v-3.85H55.6v3.85Z" fill="#fff"/><path d="M78.13,167.1v29.15H73.4V167.1Z" fill="#fff"/><path d="M98.13,192.18h16.08v4.07H93.41V167.1h4.72Z" fill="#fff"/><path d="M142.87,167.1l-10.42,18v11.18h-4.73V185.07l-10.38-18h5.26l5.21,9.41,2.3,4.32,2.29-4.32,5.17-9.41Z" fill="#fff"/><path d="M197.68,188.52A11.68,11.68,0,0,1,195,193a11.53,11.53,0,0,1-4.15,2.76,14.35,14.35,0,0,1-5.26.93,14.13,14.13,0,0,1-7.29-1.81,12.13,12.13,0,0,1-4.77-5.17,20.19,20.19,0,0,1,0-16.08,12.16,12.16,0,0,1,4.77-5.16,14.06,14.06,0,0,1,7.25-1.81,16,16,0,0,1,5.19.79,10.2,10.2,0,0,1,6.47,6.36l-4.46,2a7.51,7.51,0,0,0-2.57-3.82,7.27,7.27,0,0,0-4.37-1.22,8.69,8.69,0,0,0-4.72,1.28,8.5,8.5,0,0,0-3.16,3.71,14,14,0,0,0-1.13,5.92,15,15,0,0,0,1.06,5.9,8.18,8.18,0,0,0,3.05,3.73,8.62,8.62,0,0,0,4.77,1.28,7.85,7.85,0,0,0,4.66-1.39,7.6,7.6,0,0,0,2.8-4.17Z" fill="#fff"/><path d="M222.23,167.1a11.13,11.13,0,0,1,7.44,2.34,7.84,7.84,0,0,1,2.76,6.31,7.67,7.67,0,0,1-2.76,6.34,11.48,11.48,0,0,1-7.44,2.23l-.44.27H215v11.66h-4.68V167.1Zm-.35,13.56a6.52,6.52,0,0,0,4.26-1.17,5.33,5.33,0,0,0,0-7.18,6.47,6.47,0,0,0-4.26-1.19H215v9.54Zm2.78,1,9.5,14.62h-5.44l-8.12-12.77Z" fill="#fff"/><path d="M243.21,196.25l11-29.15h5.65l11,29.15h-5l-7.51-20.85L257,171.21h-.13l-1.23,4.1-7.6,20.94Zm5.87-7.64v-3.85h15.77v3.85Z" fill="#fff"/><path d="M303.72,171.16H287.38v8.48h12.8v4.06h-12.8v12.55h-4.73V167.1h21.07Z" fill="#fff"/><path d="M337.94,167.1v4.06H328v25.09h-4.72V171.16h-10V167.1Z" fill="#fff"/><path d="M370.14,196.25V167.1h11.48c3.5,0,6.07.71,7.68,2.12a7.38,7.38,0,0,1,2.43,5.87,6.71,6.71,0,0,1-1.32,4.09,6,6,0,0,1-3.89,2.27v.05a6.86,6.86,0,0,1,4.4,2.31,6.65,6.65,0,0,1,1.57,4.36,7.14,7.14,0,0,1-2.74,5.91q-2.75,2.17-7.95,2.17Zm4.64-16.61h6.49q5.57,0,5.56-4.28t-5.56-4.29h-6.49Zm0,12.68H382a6.48,6.48,0,0,0,4.17-1.15,4.44,4.44,0,0,0,0-6.45,6.48,6.48,0,0,0-4.17-1.15h-7.24Z" fill="#fff"/><path d="M406,196.25V167.1h21.11v4.06H410.72v8.39h12.81v4H410.72v8.65h17v4.07Z" fill="#fff"/><path d="M440.71,196.25V167.1h21.11v4.06H445.44v8.39h12.8v4h-12.8v8.65h17v4.07Z" fill="#fff"/><path d="M487.3,167.1a11.16,11.16,0,0,1,7.45,2.34,7.87,7.87,0,0,1,2.76,6.31,7.7,7.7,0,0,1-2.76,6.34,11.51,11.51,0,0,1-7.45,2.23l-.44.27H480.1v11.66h-4.68V167.1ZM487,180.66a6.51,6.51,0,0,0,4.26-1.17,5.33,5.33,0,0,0,0-7.18,6.45,6.45,0,0,0-4.26-1.19H480.1v9.54Zm2.78,1,9.5,14.62H493.8l-8.13-12.77Z" fill="#fff"/></g></g></g></svg>