<svg xmlns="http://www.w3.org/2000/svg" viewBox="0 0 308.88 113.36"><g id="レイヤー_2" data-name="レイヤー 2"><g id="レイヤー_1-2" data-name="レイヤー 1"><g style="isolation:isolate"><path d="M93.5.44V29.59H89.12V12.72l.36-8h0L80.56,29.59H76.63L67.75,4.68h0l.36,8V29.59H63.69V.44h7l5.87,16.87,2,6.94h.09l2.08-6.94L86.61.44Z" fill="#fff"/><path d="M120.88,0a14.23,14.23,0,0,1,7.33,1.81A12.13,12.13,0,0,1,133,7a17.8,17.8,0,0,1,1.68,8,17.73,17.73,0,0,1-1.68,8,12.13,12.13,0,0,1-4.77,5.17,15.67,15.67,0,0,1-14.62,0,12.13,12.13,0,0,1-4.77-5.17,17.73,17.73,0,0,1-1.68-8,17.8,17.8,0,0,1,1.68-8,12.13,12.13,0,0,1,4.77-5.17A14.13,14.13,0,0,1,120.88,0Zm0,4.11a8.39,8.39,0,0,0-4.71,1.28,8.12,8.12,0,0,0-3,3.71A14.71,14.71,0,0,0,112.09,15a14.73,14.73,0,0,0,1.06,5.89,8.08,8.08,0,0,0,3,3.73,9.36,9.36,0,0,0,9.45,0,8.16,8.16,0,0,0,3-3.73A14.73,14.73,0,0,0,129.71,15a14.71,14.71,0,0,0-1.06-5.92,8.21,8.21,0,0,0-3-3.71A8.44,8.44,0,0,0,120.88,4.11Z" fill="#fff"/><path d="M171.36.44,160.54,29.59H155L144.2.44h5L156,19.83l1.77,5.79,1.77-5.75L166.37.44Z" fill="#fff"/><path d="M177,29.59,188,.44h5.65l11,29.15h-5L192.16,8.74l-1.33-4.19h-.13l-1.24,4.11-7.59,20.93ZM182.88,22V18.11h15.77V22Z" fill="#fff"/><path d="M216.45,29.59V.44h11.48c3.5,0,6.07.71,7.69,2.12A7.38,7.38,0,0,1,238,8.44a6.68,6.68,0,0,1-1.32,4.08,6,6,0,0,1-3.89,2.27v.05a6.87,6.87,0,0,1,4.4,2.32,6.61,6.61,0,0,1,1.57,4.35,7.17,7.17,0,0,1-2.74,5.92q-2.75,2.16-7.95,2.16ZM221.09,13h6.49c3.71,0,5.56-1.42,5.56-4.28s-1.85-4.28-5.56-4.28h-6.49Zm0,12.68h7.24a6.4,6.4,0,0,0,4.17-1.15,3.93,3.93,0,0,0,1.39-3.22,4,4,0,0,0-1.39-3.23,6.46,6.46,0,0,0-4.17-1.15h-7.24Z" fill="#fff"/><path d="M257,25.53h16.07v4.06h-20.8V.44H257Z" fill="#fff"/><path d="M285.39,29.59V.44H306.5V4.5H290.11v8.4h12.81v4H290.11v8.66h17v4.06Z" fill="#fff"/><path d="M11.88,83.77a11.13,11.13,0,0,1,7.44,2.34,7.86,7.86,0,0,1,2.76,6.32,7.67,7.67,0,0,1-2.76,6.33A11.48,11.48,0,0,1,11.88,101l-.44.27H4.68v11.66H0V83.77Zm-.35,13.56a6.52,6.52,0,0,0,4.26-1.17,5.33,5.33,0,0,0,0-7.18,6.47,6.47,0,0,0-4.26-1.19H4.68v9.54Zm2.78,1,9.49,14.62H18.37l-8.12-12.77Z" fill="#fff"/><path d="M36.3,112.92V83.77H57.41v4.06H41v8.4H53.84v4H41v8.66H58v4.06Z" fill="#fff"/><path d="M81,83.33a14.61,14.61,0,0,1,6.8,1.48,13.17,13.17,0,0,1,4.86,4.35l-3.18,3a10.72,10.72,0,0,0-3.77-3.69,10.39,10.39,0,0,0-5-1.13A8.92,8.92,0,0,0,77.2,88a4.4,4.4,0,0,0-2,1.52,3.72,3.72,0,0,0-.64,2.14,3.37,3.37,0,0,0,1,2.39,7.08,7.08,0,0,0,3.55,1.59L85,96.93q4.25.93,6,2.83a6.76,6.76,0,0,1,1.76,4.81,7.68,7.68,0,0,1-1.45,4.68,9.19,9.19,0,0,1-4,3,15.92,15.92,0,0,1-6.08,1.06,17.82,17.82,0,0,1-5.56-.8,14.76,14.76,0,0,1-4.33-2.16,12.91,12.91,0,0,1-3-3.13L71.5,104a11.37,11.37,0,0,0,2.34,2.76,10.35,10.35,0,0,0,3.29,1.88,12.51,12.51,0,0,0,4.18.66,11.14,11.14,0,0,0,3.51-.49,4.74,4.74,0,0,0,2.25-1.43,3.55,3.55,0,0,0,.77-2.28,3.32,3.32,0,0,0-.86-2.25,6,6,0,0,0-3.2-1.5l-6.41-1.46A14.15,14.15,0,0,1,73,98.26a7,7,0,0,1-2.56-2.59,6.93,6.93,0,0,1-.84-3.42A7.85,7.85,0,0,1,71,87.77a9.43,9.43,0,0,1,3.91-3.23A14.08,14.08,0,0,1,81,83.33Z" fill="#fff"/><path d="M126.57,83.77v4.06h-10v25.09h-4.72V87.83h-10V83.77Z" fill="#fff"/><path d="M150.73,83.77a11.13,11.13,0,0,1,7.44,2.34,7.86,7.86,0,0,1,2.76,6.32,7.67,7.67,0,0,1-2.76,6.33,11.48,11.48,0,0,1-7.44,2.23l-.44.27h-6.76v11.66h-4.68V83.77Zm-.35,13.56a6.52,6.52,0,0,0,4.26-1.17,5.33,5.33,0,0,0,0-7.18,6.47,6.47,0,0,0-4.26-1.19h-6.85v9.54Zm2.78,1,9.5,14.62h-5.44l-8.12-12.77Z" fill="#fff"/><path d="M171.71,112.92l11-29.15h5.65l11,29.15h-5l-7.51-20.85-1.33-4.19h-.13L184.16,92l-7.59,20.94Zm5.87-7.64v-3.84h15.77v3.84Z" fill="#fff"/><path d="M233.36,83.77v18q0,5.79-3,8.71t-8.88,2.91q-5.74,0-8.81-2.91t-3.07-8.71v-18h4.72v17.4q0,4.11,1.77,6.1c1.18,1.32,3,2,5.39,2s4.25-.66,5.43-2,1.77-3.36,1.77-6.1V83.77Z" fill="#fff"/><path d="M272,83.77v29.15h-5.61L255.09,94.55l-2.83-5.17h0l.18,4.72v18.82h-4.33V83.77h5.56l11.22,18.33,2.87,5.25h0l-.18-4.77V83.77Z" fill="#fff"/><path d="M308.88,83.77v4.06h-10v25.09h-4.72V87.83h-10V83.77Z" fill="#fff"/></g></g></g></svg>