<svg xmlns="http://www.w3.org/2000/svg" viewBox="0 0 258.33 34.23"><g id="レイヤー_2" data-name="レイヤー 2"><g id="レイヤー_1-2" data-name="レイヤー 1"><path d="M45.84,60.62l.08,1a4.15,4.15,0,0,1-.26,1.11l-.11.13a10.59,10.59,0,0,0-.62,1.26c0,.12-.2.38-.31.51s-.22.26-.33.39-.11.13,0,.24.13.11.14.22a.12.12,0,0,1,.13.11,2.88,2.88,0,0,0-.63,1,.42.42,0,0,1-.23.14A12.7,12.7,0,0,0,42.39,68a.48.48,0,0,1-.23.15c-.24,0-.46.28-.69.42s-.31.51-.66.66l-.8.55c-.22.14-.56.41-.79.55a9.24,9.24,0,0,1-1.84,1,9.07,9.07,0,0,1-1.49.86c-.11.13-.23.14-.46.28a2.38,2.38,0,0,0-.91.56l-.36,0a.37.37,0,0,1-.23.14,4.17,4.17,0,0,1-1.5.73l-1.05.46c-.34.15-.57.29-.92.44-.59.17-1,.45-1.51.61-.23.14-.59.18-.82.32a1.09,1.09,0,0,0-.59.17,1,1,0,0,1-.82.19,2.83,2.83,0,0,1-.94.32,9.88,9.88,0,0,1-2,.66s-.11.13-.12,0a1.66,1.66,0,0,0-.81.31c-.24,0-.47.16-.71.18a1.67,1.67,0,0,0-.71.19l-.24,0a2,2,0,0,0-.82.19l-.36,0-.36,0a4.49,4.49,0,0,1-1.3.24l-.24,0a3.71,3.71,0,0,1-1.19.22,1.94,1.94,0,0,0-.83.08c0,.11-.12,0-.12,0a2,2,0,0,0-.85-.05l-2.41,0a1.31,1.31,0,0,1-.61-.07.37.37,0,0,1-.25-.1l-.6.06c-.38-.21-.74-.18-1-.4a3.57,3.57,0,0,1-1-.39,2.6,2.6,0,0,1-.75-.42.12.12,0,0,0-.13-.11,3,3,0,0,1-1.31-1.21l-.82-1A2.27,2.27,0,0,1,5.93,74a2,2,0,0,1-.19-.82l0-.24a.72.72,0,0,1-.16-.47c0-.24.07-.49-.06-.6s.2-.5.3-.74a1.53,1.53,0,0,1,.06-.73c0-.24.09-.37.07-.49l.3-.75c.21-.38.42-.76.62-1.14L7,67.87a1.45,1.45,0,0,0,.55-.65l.66-.66a3.19,3.19,0,0,0,.67-.66,2.8,2.8,0,0,1,.56-.41c.12,0,.23-.14.35-.15a4.31,4.31,0,0,1,1.47-1.09c.47-.17.69-.42,1.16-.59a2.54,2.54,0,0,1,.56-.41,3,3,0,0,0,1-.57l1.51-.61a12.1,12.1,0,0,0,1.15-.59,1.09,1.09,0,0,0,.59-.17v-.12a1.69,1.69,0,0,1-.74-.17l-.6,0c-.12,0-.25-.1-.37-.09a3.67,3.67,0,0,0-1-.4c-.37-.08-.52-.43-.89-.52-.15-.35-.52-.44-.67-.78a1.74,1.74,0,0,1-.31-.7l0-.24a.77.77,0,0,1-.06-.72.44.44,0,0,0,.09-.37.43.43,0,0,1,.09-.36l.27-1c.12,0,.11-.13.23-.14l1-1,.24,0c.58-.29,1.14-.71,1.72-1a1.71,1.71,0,0,0,.7-.3.12.12,0,0,1,.11-.13c.59,0,.92-.44,1.39-.6a3.15,3.15,0,0,1,.93-.33l.24,0a1.71,1.71,0,0,1,.7-.3,1.74,1.74,0,0,0,.82-.31c.12,0,.23-.14.34-.15a1.53,1.53,0,0,0,.71-.18,1,1,0,0,1,.83-.2c.24,0,.34-.27.58-.17a5.22,5.22,0,0,0,.59-.17c.6,0,.94-.32,1.53-.37,0,.11.12,0,.24,0a1.31,1.31,0,0,1,.59-.17c.37.09.59-.17.83-.19l.83-.07a3.28,3.28,0,0,1,1.08-.1c.12,0,.23-.14.35-.15a.54.54,0,0,1,.6,0,12.93,12.93,0,0,1,2.16-.07l.83-.07c.12,0,.12,0,.14.11.24.09.6.06.85.16s.37.09.61.07l.76.41a6.62,6.62,0,0,1,.93,1,.44.44,0,0,1,.15.35c.14.22.15.34.28.45s.13.11.25.1a2.9,2.9,0,0,1,.9-.8c.12,0,.22-.14.33-.27l.81-.43c.23-.14.32-.51.67-.54.12,0,.11-.13.23-.14a8.86,8.86,0,0,1,1.71-1.12c.11-.13.23-.14.46-.28s.36,0,.48,0l.24,0a3.19,3.19,0,0,1,.66.67c0,.11.27.33.17.58s-.09.37-.31.63a.12.12,0,0,1-.11.13,1.91,1.91,0,0,0-.79.55l-.57.41c-.45.28-.91.57-1.49.86l-.34.27c-.34.15-.8.43-1.15.58a4.41,4.41,0,0,1-1,.57,3,3,0,0,0-.8.55c-.11.13-.35.15-.46.28a1,1,0,0,1-.58.18l-.48,0a.44.44,0,0,0-.35.15c-.11.13-.47.16-.58.29s-.59,0-.69.3-.35.15-.58.29c-.21.38-.7.31-1,.46a.23.23,0,0,1-.36,0l0-.24a1.68,1.68,0,0,1,.66-.66l.69-.42c.22-.26.44-.4.66-.66a.91.91,0,0,1,.46-.28c.23-.14.22-.26.34-.27a3.73,3.73,0,0,1,.9-.69c.12,0,.22-.26.45-.4v-.12l-.13-.11a1.68,1.68,0,0,1-.85,0,.9.9,0,0,1-.61-.07.63.63,0,0,0-.5-.2,2.88,2.88,0,0,1-.85-.16l-.24,0c-.73-.06-1.45,0-2.3,0a.25.25,0,0,0-.21.26c-.11.13-.23.14-.24,0s-.26-.22-.38-.21l-.24,0a3.64,3.64,0,0,1-1.07.22c-.36,0-.73-.06-1.06.21l-.36,0c-.36,0-.61-.07-.84.07s-.47.17-.72.07a1.52,1.52,0,0,0-.7.18c-.23.14-.36,0-.48,0a1.09,1.09,0,0,0-.59.17c-.12,0-.11.13-.24,0-.36,0-.57.3-.93.33a1.06,1.06,0,0,0-.83.19l-1.52.49a.9.9,0,0,0-.59.18l-.58.29a1.74,1.74,0,0,0-.81.31,1.09,1.09,0,0,1-.59.17,9.06,9.06,0,0,1-1.5.74l-1,.69a.91.91,0,0,0-.46.28,2.11,2.11,0,0,0-.56.53,1.19,1.19,0,0,0-.42.64c-.12,0,0,.12,0,.24a1.66,1.66,0,0,0,1.13.5c.13.11.37.09.62.19l.35,0a1.25,1.25,0,0,1,.62.18l.36,0c1.33,0,2.65,0,3.85-.09l.36,0a1.46,1.46,0,0,1,.7-.18,2.65,2.65,0,0,0,1,0,1.09,1.09,0,0,0,.59-.17l.36,0,.83-.08.24,0a3.33,3.33,0,0,1,1.07-.21l.36,0a.81.81,0,0,1,.46-.17c.36,0,.85,0,1.19-.22a1.53,1.53,0,0,0,.73.06.42.42,0,0,0,.34-.15,2.4,2.4,0,0,1,1-.09H30c-.11.13-.11.13-.1.25h-.12a.44.44,0,0,1-.35.15,1.29,1.29,0,0,0-.94.21c-.12,0-.11.13,0,.12a1.35,1.35,0,0,1,.78.65c.12,0,.13.11.14.23l0,.36c0,.48-.18.74-.76.91a3.33,3.33,0,0,1-1.07.21,1,1,0,0,0-.83.19l-.47,0c-.12,0-.25-.1-.24,0-.46.28-1,.08-1.3.35-.36,0-.57.29-.94.2-.12,0-.23.14-.35.15-.36,0-.82.32-1.18.35s-.58.17-.94.2a11.8,11.8,0,0,0-1.86.77h-.12a4.11,4.11,0,0,0-1.28.47,7.67,7.67,0,0,0-.82.31,7.67,7.67,0,0,1-.82.31,3.39,3.39,0,0,1-.58.18,5.87,5.87,0,0,1-1.28.59c-.33.27-.8.43-1.14.7l-.93.44A8,8,0,0,0,11,67a3.15,3.15,0,0,0-.79.55c-.36,0-.57.41-.91.56s-.45.4-.55.65l-.33.39c-.21.26-.44.4-.55.53s-.21.38-.32.51l-.11.13a.92.92,0,0,1-.19.62c-.09.25-.2.38-.18.62s-.1.25-.21.38A4.4,4.4,0,0,0,7,73.29c.15.35.18.71.32.94a1.37,1.37,0,0,0,.81,1,3.19,3.19,0,0,0,.77.54c.49.07.88.4,1.24.37s.48.08.73.18c.48,0,.87.28,1.47.23a.37.37,0,0,1,.25.1l.49.08c1.07-.1,2.16-.07,3.24-.17l.24,0A5.68,5.68,0,0,1,18,76.43a.74.74,0,0,0,.47-.17l.24,0c.24,0,.46-.16.82-.19a1.53,1.53,0,0,1,.71-.18c.23-.14.59-.17.93-.32a1.54,1.54,0,0,0,.71-.19l.48,0a1.7,1.7,0,0,0,1.07-.21c.22-.14.34-.15.45-.28l.94-.33c.37.09.7-.18.93-.32a.72.72,0,0,0,.47-.16,2.36,2.36,0,0,0,1.28-.47,3.54,3.54,0,0,0,1.17-.47,3.5,3.5,0,0,0,1.17-.34c.23-.14.47-.16.7-.3a.66.66,0,0,0,.58-.29l.23,0c.47-.17.81-.44,1.28-.6a.9.9,0,0,0,.59-.17,1.62,1.62,0,0,1,.69-.3c.34-.27.82-.31,1.15-.58a4,4,0,0,1,.92-.57,1.8,1.8,0,0,0,.81-.43.11.11,0,0,1,.1-.13c.12,0,.11-.13.23-.14s.36,0,.47-.16.11-.13.23-.14a.91.91,0,0,1,.46-.28l.46-.16v.12c0,.24.26.22.38.21l.33-.39c.12,0,.36,0,.35-.16a.74.74,0,0,0-.47.17l-.6,0a.66.66,0,0,1,.57-.41.78.78,0,0,1,.49.07.62.62,0,0,1,.2-.49c.12,0,.22-.14.33-.27a.67.67,0,0,1,.46-.29c.12,0,.23-.14.34-.27l.11-.13a2.32,2.32,0,0,0,.56-.41l.33-.39a7.08,7.08,0,0,1,1-.93.12.12,0,0,1,.11-.13c.47-.16.68-.54,1-.81l.11-.13a2.32,2.32,0,0,1,.3-.63c.22-.26.32-.51.43-.64a3.11,3.11,0,0,1,.3-.63,2.63,2.63,0,0,1,.31-.63,1.5,1.5,0,0,1,.06-.72ZM20,77l-.13-.1-.83.07-.72.06c-.24,0-.35.15-.34.27s0,.12,0,.24a.54.54,0,0,0,.6,0,2.35,2.35,0,0,1,.83-.19.54.54,0,0,0,.6-.06h.11C20.29,77.06,20.16,77,20,77Zm5.51-1.8c-.12,0-.13-.11-.25-.1-.36,0-.7.3-1.07.21l-.11.13a.26.26,0,0,0-.21.26l-.36,0v.12l.12,0c.12,0,.24,0,.23-.14.23,0,.48.08.71-.06s.35-.15.59-.17h.12a.12.12,0,0,1,.11-.13Zm4.8-1.51c-.12,0-.25-.09-.23,0-.24,0-.48,0-.59.18a1.09,1.09,0,0,1-.59.17,1.74,1.74,0,0,0-.82.31l-.1.13v.12h.12l.23,0,.24,0a.37.37,0,0,1,.23-.14l.36,0a10.32,10.32,0,0,1,.93-.45c.12,0,.11-.13.23-.14Z" transform="translate(-5.5 -44.47)" fill="#9e895b"/><path d="M53.25,73.7a2.7,2.7,0,0,1-1.74-.57c-.39-.33-.55-.8-.94-1.12a.91.91,0,0,1-.28-.46.59.59,0,0,0-.37-.09,3,3,0,0,0-1,.57,4.06,4.06,0,0,1-.68.43c-.58.29-1.15.58-1.84,1l-.45.4a.87.87,0,0,1-.8.43.63.63,0,0,1-.5-.2.36.36,0,0,1-.14-.22,4.51,4.51,0,0,1,1.2-1.44l.33-.27a7.36,7.36,0,0,0,1.61-1,.11.11,0,0,1,.1-.13c.95-.2,1.49-1,2.3-1.28a.63.63,0,0,0,.2-.5,7.23,7.23,0,0,1,.39-1A3.53,3.53,0,0,0,50.86,67c.22-.26.17-.74.38-1.12,0-.11-.13-.1-.25-.09s-.49-.08-.6,0c-.33.27-.81.31-1.27.59a8.34,8.34,0,0,1-2,1c-.12,0-.23.14-.34.27s-.45.28-.79.55c-.11.13-.36,0-.6,0s-.25-.1-.38-.21,0-.36.09-.37l.45-.4c.32-.39.79-.55,1.12-.94.23-.14.59-.17.81-.31l1.5-.85a.59.59,0,0,1,.45-.28,3,3,0,0,0,1.3-.36l.36,0a1.67,1.67,0,0,1,.73.18A3,3,0,0,1,53.41,66c.15.34,0,1.2.13,1.43-.37,1.24,0,.85.06.72s1.2-1.43,1.55-1.58.82-.32,1.27-.6a.63.63,0,0,1,.86.17.23.23,0,0,1,0,.36.12.12,0,0,1-.11.13,9.86,9.86,0,0,1-1.59,1.1,5.6,5.6,0,0,0-1,.81c-.24,0-.34.27-.57.41a2.74,2.74,0,0,0-1.27,1.92,1.71,1.71,0,0,1-.18.74c0,.24.16.47.4.45l1.31-.12a2.83,2.83,0,0,1,1,.16,1.07,1.07,0,0,0,.84-.08,3.33,3.33,0,0,1,1.06-.21l1.44-.13a1.53,1.53,0,0,0,.71-.18.11.11,0,0,1,.1-.13c.47-.16,1-.08,1.3-.35s.84-.08,1.17-.35a.44.44,0,0,1,.35-.15l.6,0a3.9,3.9,0,0,1,1-.45c.58-.29,1.17-.47,1.74-.76l.48,0a.72.72,0,0,1,.47-.16c.35-.15.69-.42,1-.57s.46-.28.82-.31c.12,0,.23-.14.47-.16A4.65,4.65,0,0,1,70,67.41a7,7,0,0,0,1.38-.72c.7-.3,1.41-.49,2.1-.79.11-.13.23-.14.46-.28s.82-.31,1.27-.59c.23-.14.47-.16.7-.3l.69-.43a13.47,13.47,0,0,0,2-.77c.46-.16.8-.43,1.29-.35.34-.27.82-.32,1.27-.6l.6,0c.12,0,.12,0,.13.11v.12c-.1.25-.33.39-.66.66l-1.05.45a2.26,2.26,0,0,1-.92.44c-.36,0-.46.28-.69.43s-.56.53-.91.56-.81.43-1.16.58a3.4,3.4,0,0,1-.91.56,3.83,3.83,0,0,0-1.05.45l-.92.45c-.12,0-.23.14-.46.28-.47.16-.8.43-1.27.59s-.92.56-1.38.72c-.92.57-2.1.79-3,1.35a3.78,3.78,0,0,1-1.15.59c-.36,0-.7.3-1.18.34a6.73,6.73,0,0,0-1.16.46c-.23.14-.71.18-.92.44l-.6.06a3.06,3.06,0,0,0-.82.31.72.72,0,0,0-.47.16l-.71.06a1.35,1.35,0,0,1-.94.33c-.36,0-.85,0-1.18.22-.11.13-.24,0-.36,0a.12.12,0,0,0-.13-.11l-.24,0a4,4,0,0,1-2,.3c-.35.15-.72.06-1.06.33l-.24,0A1.83,1.83,0,0,0,53.25,73.7Z" transform="translate(-5.5 -44.47)" fill="#9e895b"/><path d="M113.49,62.89a3.55,3.55,0,0,0-1.15.58c-.35.15-.7.3-3.74,1.29-1.3.36-2.33.93-3.63,1.28-.57.29-1.41.37-1.86.77l-.46.16a15.48,15.48,0,0,0-2.22.79,12.37,12.37,0,0,1-2.13.43l-1.88.53a11.86,11.86,0,0,0-2,.41,13.55,13.55,0,0,0-1.89.41c-.7.18-1.66.27-2.37.45a8.92,8.92,0,0,0-1.9.29,8.55,8.55,0,0,1-1.66.26.37.37,0,0,1-.23.14H85.14c-.36,0-.7.18-1.18.22l-.36,0L83,71a19.17,19.17,0,0,1-2.52.1c-.12,0-.24,0-.25-.1l-1.11-.27c.12,0-.73-.17-.78-.65a2.63,2.63,0,0,0-.41-.57c-.13-.11-.13-.11-.14-.23l0-.24a1.06,1.06,0,0,1,.07-.6c.09-.37.06-.73.27-1s.31-.63.65-.9c.1-.25.32-.39.42-.64a.26.26,0,0,1,.22-.26c0-.12.1-.25.21-.38a4.12,4.12,0,0,1,.86-1.16c.11-.13.09-.37.2-.5s0-.12,0-.12l-1.56.14-.23,0a1.53,1.53,0,0,1-.71.18l-1,.08a.49.49,0,0,0-.35.16l-.35,0a.37.37,0,0,1-.23.14,14.13,14.13,0,0,0-1.27.71l-.35,0a.44.44,0,0,1-.37-.09c-.25-.1-.39-.32-.54-.67l0-.36c.1-.25.21-.38.2-.5.23-.14.34-.27.58-.29L75,63l.47,0,.24,0a3.33,3.33,0,0,1,1.55-.25,1,1,0,0,0,.58-.17.72.72,0,0,1,.47-.16l2.87-.26.48,0c.12,0,.24,0,.23-.14a2.78,2.78,0,0,0,.76-.91c.12,0,.11-.13.22-.26a.94.94,0,0,0,.44-.52l.32-.39A10,10,0,0,1,85,58.15l.31-.63.43-.52h.12a.44.44,0,0,1,.37.09l.13.11c.13.11.14.23.27.34l.44.92,0,.12a1.6,1.6,0,0,1-.31.63c-.23.14-.32.51-.67.66A.11.11,0,0,0,86,60l-.21.38c-.12,0-.23.14-.35.15A1.82,1.82,0,0,1,85,61l-.3.63v.12h.12l5-.44a.44.44,0,0,1,.37.09c.24,0,.49.08.72.06l.72-.07h.12c0,.12-.11.13-.1.25h-.12a.44.44,0,0,1-.35.15L90,61.93c-.12,0-.12,0-.23.14a.26.26,0,0,1-.22.26l-5.5.48-.23,0a.44.44,0,0,0-.35.15.94.94,0,0,1-.44.52,3.63,3.63,0,0,0-.87,1c0,.12-.1.25-.21.38h-.12c-.09.37-.44.52-.52.89-.11.13-.1.25-.22.26a1.82,1.82,0,0,1-.44.52,1.49,1.49,0,0,0-.31.51,1.66,1.66,0,0,0-.32.51c-.11.13-.22.26-.34.27L79.1,69v.12a7.54,7.54,0,0,0,2.2.41l.24,0c.46-.28.84-.08,1.53-.38l.36,0A9.29,9.29,0,0,0,85.35,69c.48,0,1-.2,1.43-.24a3,3,0,0,0,1.06-.22,4.52,4.52,0,0,0,1.31-.23l.6,0c.58-.17,1.3-.24,1.89-.41a4.87,4.87,0,0,0,1.3-.23c.36,0,.71-.19,1.07-.22s.82-.19,1.42-.24a20.26,20.26,0,0,0,2.47-.7l.48,0a9.84,9.84,0,0,0,1.78-.28l.36,0a2.42,2.42,0,0,1,1.28-.47,6.09,6.09,0,0,1,1.54-.38l.46-.16a3.33,3.33,0,0,1,1.53-.49l1.76-.52c.7-.3,4.08-1.56,4.9-1.75.12,0,.25.09.37.08s.12,0,0,.12v.12l.36,0h.12c.35-.15.82-.31,1.17-.46C114.61,62,114.31,62.58,113.49,62.89Z" transform="translate(-5.5 -44.47)" fill="#9e895b"/><path d="M141.16,58.3c-.23.14-.45.4-.69.42-.22.26-.58.29-.8.43s-.34.27-.57.41-.35.15-.58.29-.47.17-.57.3l-.58.29c-.11.13-.35.15-.46.28a2.31,2.31,0,0,0-.91.56.44.44,0,0,1-.35.15.91.91,0,0,0-.46.28,1.74,1.74,0,0,1-.81.31c-.12,0-.24,0-.23.15l-.34.27c-.24,0-.35.15-.58.29a1,1,0,0,0-.58.17c-.23.14-.34.27-.58.29s-.24,0-.23.14a1.71,1.71,0,0,1-.7.3c-.11.13-.35.15-.57.29a2,2,0,0,1-.58.29.45.45,0,0,1-.35.16c-.36,0-.58.29-.93.32-.11.13-.35.15-.46.28a.72.72,0,0,0-.47.16c-.24,0-.47.16-.71.18s-.34.15-.57.29-.47.17-.58.3c-.36,0-.47.16-.71.18s-.1.13-.22.14l-.81.43a2.23,2.23,0,0,0-.82.31l-.24,0a6,6,0,0,0-.7.19c-.23.14-.46.28-.71.18a.42.42,0,0,1-.23.14c-.23.14.12,0,0,.12l-.92.44a2.83,2.83,0,0,0-.94.32c-.47,0-.57.29-.93.33s-.59.17-1,.2a.92.92,0,0,0-.58.29c-.35,0-.58.17-.82.19a1.07,1.07,0,0,1-.84.08l-1.07.09-.48,0a1.69,1.69,0,0,0-.74-.17.37.37,0,0,1-.25-.1c-.12,0-.25-.1-.38-.21a2.58,2.58,0,0,1-1.39-.72c0-.12,0-.12-.14-.23s-.14-.23-.15-.35c0-.36-.17-.59-.19-.82l-.07-.84a.85.85,0,0,1,.06-.61c.11-.13.11-.13.1-.25s.08-.49.19-.62a2.88,2.88,0,0,1,.63-1l.33-.39c0-.12.1-.25.21-.38l1-1.17a1.14,1.14,0,0,0,.55-.53h.12a12.49,12.49,0,0,0,1.16-.58,4.34,4.34,0,0,1,.8-.43,1.1,1.1,0,0,1,.85,0,6.72,6.72,0,0,1,1,.52,9.07,9.07,0,0,1,1.17,1c.13.11,0,.12,0,.24s-.22.26-.33.39-.24,0-.22.26l.08.84c-.11.13-.19.61-.42.75s-.48,0-.59.18-.34.15-.68.42h-.12c-.25-.1-.51-.32-.75-.3-.26-.22-.51-.31-.53-.55a.44.44,0,0,1-.15-.35c-.13-.11-.26-.22-.38-.21a.42.42,0,0,1-.23.14,2.34,2.34,0,0,0-1,1.17l-.65.78-.33.39c-.1.25-.33.39-.42.76a.74.74,0,0,0,.07.72.43.43,0,0,0,.13.23,1.57,1.57,0,0,1,.74.17c.12,0,.25.1.49.08l.49.08,1-.09a1.46,1.46,0,0,0,.7-.18l.36,0a.91.91,0,0,0,.47-.16h.12c.23-.14.36,0,.59-.17a.72.72,0,0,1,.46-.16c.12,0,.23-.14.47-.17s.35-.15.59-.17.35-.15.59-.17.58-.17.81-.31.23-.14.47-.16l.72-.07c.36,0,0-.24.34-.27a1.46,1.46,0,0,1,.7-.18.44.44,0,0,1,.35-.15.72.72,0,0,0,.47-.16l1.4-.48.36,0c.57-.41,1.16-.46,1.61-.86l.24,0a.37.37,0,0,1,.23-.14c.36,0,.59-.17.82-.19a4,4,0,0,0,.69-.43l.24,0v.12c.13.11.14.23.16.47l-.24,0-.48,0c-.12,0-.22.14-.34.15a.44.44,0,0,1-.35.15c-.24,0-.47.17-.71.19a.91.91,0,0,0-.46.28.42.42,0,0,1-.23.14,3,3,0,0,0-.94.2l-.47.16c-.23.14-.22.26-.33.39a1.78,1.78,0,0,1-.69.31l-.93.44-.36,0-.11.13c-.11,0-.1.13-.1.13h.12c0,.12.13.11.24.1s.34-.27.59-.17l.48,0,.36,0,.34-.27.47,0a.37.37,0,0,0,.23-.14c.12,0,.12,0,.23-.14l.93-.44,1-.46a.92.92,0,0,1,.58-.29c0-.12.11-.13.23-.14a4.94,4.94,0,0,1,.58-.17c0-.12.11-.13.23-.14s.47-.16.45-.4,0-.24.22-.26l.68-.42c.11-.13.11-.13.23-.14s.34-.27.58-.29.35-.15.59-.18a1.67,1.67,0,0,1,.69-.3.12.12,0,0,0,.11-.13.55.55,0,0,1,.6-.05h.12c.09-.37.33-.39.55-.53h.12a2,2,0,0,0,.83-.19c.11-.13.47-.16.58-.29s.24,0,.25.09a.17.17,0,0,0,.24,0c.12,0,.12,0,.22-.14h.12c0-.12,0-.12-.13-.11a.17.17,0,0,1,0-.24c.12,0,.11-.13.23-.14s.23-.14.35-.15l.34-.27c.23-.14.35-.15.45-.28a.63.63,0,0,0,.46-.28,2.55,2.55,0,0,1,.81-.43h.12c.23-.14.34-.27.57-.29a.74.74,0,0,0,.47-.17l.72-.06c.12,0,.11-.13.23-.14C140.89,58,141.14,58.06,141.16,58.3Zm-25.51,4.52a.62.62,0,0,0-.45.28l.26.22,1.19-.11c.12,0,.24,0,.23-.14a2.63,2.63,0,0,0,.56-.53c.11-.13.11-.13,0-.24s-.11.13-.23.14l-.24,0a.11.11,0,0,0-.13-.1c0-.12,0-.12-.13-.11s-.11.13-.23.14Zm15.69.31V63c-.12,0-.23.14-.35.15a1.53,1.53,0,0,1-.7.19c-.24,0-.35.15-.45.4l-.24,0a.12.12,0,0,0,.24,0l.6-.06c.21-.26.46-.16.68-.42C131.23,63.26,131.22,63.14,131.34,63.13Z" transform="translate(-5.5 -44.47)" fill="#9e895b"/><path d="M142.74,66.71l-.48,0a.66.66,0,0,1-.49-.07c-.25-.1-.49-.08-.74-.18a3.1,3.1,0,0,1-1.55-1.19c-.13-.11-.14-.23-.26-.22l0-.24-.12-1.43a1.64,1.64,0,0,1,.16-.86c0-.24.21-.38.19-.62a.12.12,0,0,1,.11-.13c.1-.25.32-.39.3-.63s.33-.39.43-.64.1-.24.21-.37a3,3,0,0,0,.54-.65c0-.24.21-.38.32-.51l1-1.17v-.12h-.12a.63.63,0,0,0-.46.28l-.8.43c-.12,0-.35.15-.47.16s-.36,0-.47.16-.48,0-.59.05c-.47.17-.75-.29-1-.63s-.17-.47-.3-.58a1.3,1.3,0,0,1-.08-1l.62-1.14a.94.94,0,0,1,.44-.52l.45-.4c.11-.13.11-.13.24,0s.49.08.73.17l.38.21c.26.22.27.34.18.59l-.42.76a2.63,2.63,0,0,0-.31.63c.24,0,.47-.16.71-.18l.36,0,.24,0c.34-.27.83-.19,1.3-.23l.24,0a1,1,0,0,1,.61.06,1.61,1.61,0,0,1,.92.89l0,.24a.42.42,0,0,1-.1.25c0,.12-.11.13-.1.25-.34.15-.3.62-.64.9L143,60.18a1.73,1.73,0,0,0-.76,1c-.22.15-.32.39-.55.54a1.6,1.6,0,0,0-.32.5L141,63a3.61,3.61,0,0,1-.4,1,.42.42,0,0,0-.1.25l0,.24a.73.73,0,0,0,.42.69c.12,0,.13.11.25.1s.48.07.84,0l.72-.06.72-.06.24,0a3.28,3.28,0,0,1,1.06-.21c.12,0,.23-.14.35-.15s.36,0,.59-.17a.72.72,0,0,1,.46-.16,12.46,12.46,0,0,1,2.24-.56.44.44,0,0,0,.35-.15c.36,0,.7-.3,1.06-.33s.69-.31,1.06-.22a4.28,4.28,0,0,1,1.18-.34c.35-.15.7-.18.93-.32l.36,0c.48,0,.82-.31,1.3-.35a2,2,0,0,1,.82-.19,1.78,1.78,0,0,0,.83-.2c0-.12.11-.13.23-.14.49.08.82-.19,1.29-.35.12,0,.23-.14.35-.15l.48,0c.11-.13.23-.14.46-.16a2.24,2.24,0,0,0,.83-.2c0-.12.11-.13.23-.14a.74.74,0,0,0,.82-.31h.11c.13,0,.14.11.13,0l.23,0c.23-.14.6,0,.71-.18a.8.8,0,0,1,.72-.07.17.17,0,0,0,.24,0c.11-.13.1-.25.22-.26a1.73,1.73,0,0,0,.69-.3l.48,0c.24,0,.47-.16.71-.18a.94.94,0,0,0,.57-.29c.12,0,.23-.15.35-.16.36,0,.59-.17.83-.19s.24,0,.25.1a.12.12,0,0,1-.11.13.26.26,0,0,0,.26.22.85.85,0,0,0,.69-.3c.11-.13.35-.15.59-.18a.72.72,0,0,0,.47-.16l.24,0c.23-.14.48,0,.59-.17s.7-.18.93-.32a3.83,3.83,0,0,1,1-.45l.92-.45H173a.37.37,0,0,1,.14.23c-.11.13-.23.14-.22.26h-.12c-.24,0-.46.16-.7.18l-.93.45c-.24,0-.58.29-.93.32a.42.42,0,0,1-.23.14.92.92,0,0,1-.58.29A.44.44,0,0,0,169,59c-.11.13-.35.15-.46.28s-.34.15-.47,0l-.13-.1c-.13-.11-.25-.1-.48,0s-.11.13-.1.25.13.11,0,.12-.47.16-.7.3-.46.16-.69.3-.11.13-.23.14a1.79,1.79,0,0,0-.83.19c-.23.14-.46.16-.69.3a11.45,11.45,0,0,0-1.88.53l-1.65.51a6.11,6.11,0,0,1-1.4.48.12.12,0,0,1-.11.13,7.65,7.65,0,0,0-1.88.53c-.36,0-.59.17-.95.2s-.57.29-.93.32-.71.18-1.18.35c-.22.14-.59.05-.94.2s-.59.17-.82.31c-.48,0-.81.31-1.29.35s-.7.31-1.07.22a1.7,1.7,0,0,1-.81.31,1.09,1.09,0,0,1-.59.17,1.53,1.53,0,0,0-.71.18l-.12,0a.87.87,0,0,0-.58.17,5.22,5.22,0,0,0-.59.17.9.9,0,0,0-.59.17l-.36,0c-.11.13-.24,0-.34.15a1.67,1.67,0,0,1-.71.19,1.79,1.79,0,0,0-.83.19C143.46,66.77,143.12,66.92,142.74,66.71Z" transform="translate(-5.5 -44.47)" fill="#9e895b"/><path d="M195.74,55.69a3,3,0,0,0-.8.55,23,23,0,0,1-2.43,1.18c-.93.32-1.61.86-2.42,1.17-.34.28-.94.33-1.26.72-.12,0-.23.14-.35.15a12.64,12.64,0,0,0-1.5.73,6.07,6.07,0,0,1-1.42.37L184.4,61a6,6,0,0,0-1.42.36,5.66,5.66,0,0,0-1.29.36c-.47.16-1.07.21-1.53.37a4.86,4.86,0,0,0-1.31.24,4,4,0,0,1-1.18.22.12.12,0,0,1-.11.13l-.85,0c-.24,0-.47.16-.71.18l-.35,0-.36,0a17.7,17.7,0,0,1-2.52.1c-.12,0-.24,0-.25-.1l-1.11-.26s-.74-.18-.9-.65a1.89,1.89,0,0,1-.29-.57c-.13-.11-.13-.11-.14-.23l0-.24a1.17,1.17,0,0,1,.06-.61c.09-.37.06-.73.28-1s.31-.62.64-.9c.1-.24.33-.39.43-.63a3.22,3.22,0,0,1,.75-1c0-.12.1-.25.32-.51l.22-.26c-.12,0,.3-.63.86-1.16-.12,0,0-.12.1-.25s.33-.39.42-.64h.12c.12,0,.25.1.37.08s.13.11.14.23.14.23.26.22a1.42,1.42,0,0,0,.45.93l0,.24c-.11.13-.09.36-.32.51s-.1.25-.45.4a3.74,3.74,0,0,0-.78.67c0,.12-.1.25-.21.38h-.12c-.1.25-.22.26-.21.38s-.09.25-.21.26a1.82,1.82,0,0,1-.44.52c-.11.13-.22.26-.1.25a1.66,1.66,0,0,0-.32.51c-.1.13-.21.26-.33.27L171.38,61c.4.44,1.73.45,2.22.52l.24,0c.45-.28.95-.08,1.41-.36l.24,0A4.71,4.71,0,0,0,176.8,61c.36,0,.59-.17.95-.2a2.35,2.35,0,0,0,.83-.19,2.19,2.19,0,0,0,.82-.2l.36,0c.47-.16.83-.19,1.29-.35a3,3,0,0,0,.95-.2c.24,0,.47-.17.71-.19l.82-.19a9.33,9.33,0,0,0,1.76-.64l.35,0c.49.08.71-.18,1.19-.22l.24,0a1.28,1.28,0,0,1,.8-.43,3.54,3.54,0,0,1,1.06-.34c.12,0,.23-.14.35-.15a1.45,1.45,0,0,1,1-.45l1.17-.46a27,27,0,0,1,3.23-1.61c.12,0,.13.11.25.1s.12,0,0,.12v.12l.24,0h.12c.23-.15.57-.3.8-.44s1.58-1.22,2.06-1.26C198.49,54.13,196.31,55.4,195.74,55.69Zm-24.09-8.25a17.68,17.68,0,0,1,1.28-1.8,2.11,2.11,0,0,0,.43-.64,1.82,1.82,0,0,1,.44-.52h.12c.12,0,.24,0,.25.1a.42.42,0,0,1,.25.1c0,.12.14.23.15.35l.44.92c.12,0,0,.12,0,.12s-.09.37-.2.5-1,.69-1.24.95h-.12C173,48.28,171.2,47.84,171.65,47.44Z" transform="translate(-5.5 -44.47)" fill="#9e895b"/><path d="M231.62,50c-.12,0-.12,0-.11.13l-.11.13a2.16,2.16,0,0,0-1.15.59,5,5,0,0,1-.93.44c-.36,0-.69.42-1,.45a.44.44,0,0,0-.35.15,2.63,2.63,0,0,1-.57.41,2.73,2.73,0,0,0-.93.33l-.11.13c-.12,0-.37-.09-.48,0s-.47.16-.7.3a.72.72,0,0,1-.47.16.88.88,0,0,0-.69.3c-.37-.09-.58.29-.82.31a1.63,1.63,0,0,0-.7.19c-.11.13-.36,0-.48,0s-.46.28-.58.29l-.6.05a.89.89,0,0,0-.57.29,1.86,1.86,0,0,0-.82.32,1.09,1.09,0,0,1-.59.17,2,2,0,0,0-.82.19c-.11.13-.24,0-.36,0l-.84.08-.48,0a.89.89,0,0,1-.94.2l-1.2.1-.36,0c-.22.14-.45.28-.58.17l-3.24.16a1.34,1.34,0,0,1-1-.15c-.12,0-.25-.1-.49-.08l-.95.08a1.49,1.49,0,0,1-1.23-.25,2.53,2.53,0,0,1-1.36-.37c-.25-.09-.49-.07-.74-.17s-.4-.45-.64-.55a.87.87,0,0,0-.62-.18c0-.12-.25-.1-.36,0a.12.12,0,0,0-.11.13,2.63,2.63,0,0,0-.31.63,3.2,3.2,0,0,1-.84,1.39,9.62,9.62,0,0,1-1.74,2.08,16.67,16.67,0,0,1-1.33,1.33l-1.5.85h-.11l-.24,0c-.25-.1-.39-.33-.64-.43s-.37-.08-.39-.32a1.86,1.86,0,0,1-.32-.82l0-.48a1.64,1.64,0,0,1,.18-.73,14.65,14.65,0,0,1,1.23-2.4,10.84,10.84,0,0,1,1.41-1.81l.89-.92c.43-.52,1-.81,1.34-1.2a6.66,6.66,0,0,1,1.4-.49l.6-.05c.25.1.37.09.61.19a2.36,2.36,0,0,0,.4.45l.14.1a1.71,1.71,0,0,1,.3.7l0,.24c0,.12.13.11.14.23.41.56.89.52,1.27.73s.61.07.85.17a2.23,2.23,0,0,0,.85,0c.12,0,.24,0,.25.1a3.93,3.93,0,0,0,1.7.09l5.89-.15a1.52,1.52,0,0,0,.7-.18l.36,0,1.08-.1c.24,0,.6.07.82-.19l.6,0a1.78,1.78,0,0,0,.83-.2,1.28,1.28,0,0,1,.58-.17c.24,0,.49.08.59-.17l.6-.05A.44.44,0,0,0,221,53a1.63,1.63,0,0,1,.7-.19c.24,0,.49.08.71-.18l.36,0a1.53,1.53,0,0,0,.71-.18c.23-.14.36,0,.58-.17a2.24,2.24,0,0,1,.83-.2c.12,0,.23-.14.35-.15s.23-.14.47-.16a1.08,1.08,0,0,0,.58-.17c.12,0,.23-.14.35-.15s.48,0,.71-.18.48-.05.58-.18a5.22,5.22,0,0,0,.59-.17c.36,0,.58-.29.94-.32a.42.42,0,0,0,.23-.14,1,1,0,0,0,.81-.31,1.71,1.71,0,0,0,.7-.3l.24,0A.42.42,0,0,1,231.62,50Z" transform="translate(-5.5 -44.47)" fill="#9e895b"/><path d="M233.47,58.78l-.48,0a.72.72,0,0,1-.49-.08c-.25-.1-.49-.08-.74-.18a3.08,3.08,0,0,1-1.55-1.19c-.13-.11-.14-.23-.26-.21l0-.24-.12-1.44a1.86,1.86,0,0,1,.16-.86c0-.24.21-.38.19-.61a.12.12,0,0,1,.11-.13c.1-.25.33-.39.31-.63s.32-.39.42-.64.1-.25.21-.38.45-.4.54-.65.21-.38.32-.51l1-1.17v-.12h-.12a.61.61,0,0,0-.45.28l-.81.43c-.12,0-.35.15-.47.16s-.36,0-.46.16a1,1,0,0,1-.6.06c-.47.16-.75-.3-1-.64s-.16-.46-.29-.57a1.39,1.39,0,0,1-.09-1l.63-1.14a.92.92,0,0,1,.43-.52l.45-.4c.11-.13.11-.13.24,0s.49.08.74.18l.38.2c.26.22.27.34.17.59l-.42.76a2.66,2.66,0,0,0-.3.63c.24,0,.46-.16.7-.18l.36,0,.24,0c.34-.27.83-.19,1.31-.23l.23,0a.9.9,0,0,1,.61.07,1.57,1.57,0,0,1,.92.88l0,.24a.44.44,0,0,1-.09.25c0,.12-.11.13-.1.25-.35.15-.31.63-.65.9l-.86,1.16a1.66,1.66,0,0,0-.75,1c-.23.14-.33.39-.56.53a1.49,1.49,0,0,0-.31.51l-.42.76a3.67,3.67,0,0,1-.4,1,.44.44,0,0,0-.09.25l0,.24a.73.73,0,0,0,.42.69c.12,0,.13.11.25.1s.49.07.85,0l.71-.06.72-.06.24,0a3.35,3.35,0,0,1,1.06-.22c.12,0,.23-.14.35-.15s.36,0,.59-.17a.72.72,0,0,1,.47-.16,3.5,3.5,0,0,1,1.17-.34,3.1,3.1,0,0,1,1.07-.22.44.44,0,0,0,.35-.15c.35,0,.69-.3,1.05-.33s.7-.3,1.07-.22a4.12,4.12,0,0,1,1.17-.34c.35-.15.71-.18.94-.32l.35,0c.48-.05.82-.32,1.3-.36a2,2,0,0,1,.82-.19,1.79,1.79,0,0,0,.83-.19c0-.12.11-.13.23-.14.49.07.83-.2,1.29-.36.12,0,.23-.14.35-.15l.48,0c.11-.13.23-.14.47-.16a1.87,1.87,0,0,0,.82-.2c0-.11.11-.13.23-.14a.74.74,0,0,0,.82-.31h.12c.12,0,.13.11.12,0l.24,0c.23-.14.59,0,.7-.18a.77.77,0,0,1,.72-.06.17.17,0,0,0,.24,0c.11-.13.1-.25.22-.26a1.62,1.62,0,0,0,.69-.3l.48,0c.24,0,.47-.16.71-.18a.92.92,0,0,0,.58-.29c.11,0,.22-.14.34-.15.36,0,.59-.18.83-.2s.24,0,.25.1a.12.12,0,0,1-.11.13.26.26,0,0,0,.26.22.88.88,0,0,0,.7-.3.89.89,0,0,1,.58-.17.78.78,0,0,0,.47-.16l.24,0c.23-.14.48,0,.59-.17s.71-.18.93-.32a3.83,3.83,0,0,1,1-.45l.92-.44.12,0a.37.37,0,0,1,.14.23c-.11.13-.23.14-.22.26h-.11c-.24,0-.47.16-.71.19l-.93.44c-.24,0-.57.29-.93.32a.42.42,0,0,1-.23.14.92.92,0,0,1-.58.29.44.44,0,0,0-.35.15c-.1.13-.34.15-.45.28s-.35.16-.48.05l-.13-.11c-.13-.11-.25-.1-.48,0s-.11.13-.1.25.13.11,0,.12-.47.16-.69.3-.47.16-.7.3-.11.13-.23.14a1.71,1.71,0,0,0-.82.19c-.23.14-.47.17-.7.31a10.74,10.74,0,0,0-1.88.52l-1.64.51a6.35,6.35,0,0,1-1.41.48.12.12,0,0,1-.11.13,2.94,2.94,0,0,0-.94.2,3.11,3.11,0,0,0-.94.33c-.36,0-.58.17-.94.2s-.58.29-.94.32-.71.19-1.17.35c-.23.14-.6,0-.95.2s-.59.17-.82.31c-.47,0-.81.32-1.29.36s-.7.3-1.06.21a1.74,1.74,0,0,1-.82.31,1.09,1.09,0,0,1-.59.17,1.59,1.59,0,0,0-.7.19h-.12a.9.9,0,0,0-.59.17,5.22,5.22,0,0,0-.59.17.9.9,0,0,0-.59.17l-.35,0c-.11.13-.24,0-.35.16a1.53,1.53,0,0,1-.71.18,1.79,1.79,0,0,0-.83.19C234.2,58.83,233.85,59,233.47,58.78Z" transform="translate(-5.5 -44.47)" fill="#9e895b"/></g></g></svg>