<svg xmlns="http://www.w3.org/2000/svg" viewBox="0 0 360.74 46.12"><g id="レイヤー_2" data-name="レイヤー 2"><g id="レイヤー_1-2" data-name="レイヤー 1"><path d="M34.22,65.52c-.1.25-.07.49-.17.74l-.26,1.23c0,.24-.21.38-.18.62s-.09.37-.19.62a.42.42,0,0,0-.1.25,1.69,1.69,0,0,0-.28.86c-.11.13.06.72-.17.86-.31.63-.22,1.59-.53,2.22-.22.26-.49,1.24-1.53,3.14l-.44.52a1.62,1.62,0,0,0-.43.52,2.63,2.63,0,0,1-.43.64,1.82,1.82,0,0,1-.44.52,1.6,1.6,0,0,0-.44.4c-.11.13-.21.38-.43.64a5.94,5.94,0,0,1-.75,1c-.23.14-.33.39-.56.53a2.51,2.51,0,0,1-.8.43,6.54,6.54,0,0,1-1.21,1.31,1,1,0,0,1-.55.65c-.23.14-.45.4-.68.42v.12c-.22.26-.32.51-.55.65l-.66.66a1,1,0,0,1-.94.33A1.2,1.2,0,0,1,21,86a3.84,3.84,0,0,0-1.22,1.19,4,4,0,0,1-.9.68c-.58.29-.91.68-1.59,1.1-.23.14-.47.16-.58.29l-.57.3a6.78,6.78,0,0,1-1.18.34,1.14,1.14,0,0,1-.81.31.88.88,0,0,0-.7.3c-.38-.2-.84.08-1.22-.13h-.12a2.82,2.82,0,0,1-1-.16c-.36,0-.62-.18-.86-.16a2.46,2.46,0,0,1-1.41-1c-.13-.11-.26-.22-.27-.34-.37-.09-.52-.44-.78-.65a3,3,0,0,1-.55-.8c0-.24-.15-.35-.29-.58s-.14-.23-.28-.45l0-.24a.88.88,0,0,1-.3-.7c0-.36-.18-.71-.21-1.06s-.17-.59-.2-1l-.06-.6c.1-.25.07-.61.16-1a.42.42,0,0,0-.15-.34.91.91,0,0,0-.16-.47l-.42-.69c-.25-.1-.29-.45-.42-.56s-.16-.47-.3-.7l0-.24a2,2,0,0,1-.34-1.17A3.35,3.35,0,0,1,4,76.48c-.14-.23,0-.48,0-.6.09-.37-.06-.71,0-1.08A1.8,1.8,0,0,1,4,74c.1-.25.09-.37.2-.5a1.74,1.74,0,0,1,.17-.86,4.07,4.07,0,0,1,.29-.75,11.79,11.79,0,0,1,.5-1.24c0-.12.09-.25.08-.37a1.22,1.22,0,0,0,.41-.88L6,68.84c.31-.51.63-1,1-1.53.21-.26.3-.63.65-.78a.42.42,0,0,0,.1-.25l.65-.78c.23-.14.32-.51.67-.66l1-1.17c.23-.14.34-.27.57-.41a1.8,1.8,0,0,0,.43-.52l.45-.4c.1-.25.34-.27.58-.29a2.34,2.34,0,0,1,.67-.54,4.1,4.1,0,0,1,1.13-.82,2.52,2.52,0,0,1,.68-.54,2.43,2.43,0,0,1,1-.7.12.12,0,0,1,.11-.13,1.71,1.71,0,0,0,.7-.3c.48,0,.68-.42,1-.45.1-.25.46-.28.7-.3s.24,0,.1-.25a.12.12,0,0,1,.11-.13c.23-.14.36,0,.48,0s.24.09.34-.16,0-.12.1-.25a.9.9,0,0,0,.59-.17.44.44,0,0,1,.35-.15c.24,0,.58-.17.94-.2l.24,0c.33-.39.82-.31,1.3-.36,0-.12.11-.13.24,0a1.48,1.48,0,0,0,.72.06.72.72,0,0,1,.47-.16,2.06,2.06,0,0,1,1.22.13c.12,0,.13.11.25.1.46-.16.85.17,1.34.25a5.9,5.9,0,0,1,1.37.48,5.59,5.59,0,0,1,1.14.62.66.66,0,0,0,.63.31,2.06,2.06,0,0,1,1.16.86c.14.23.51.32.53.56s.13.1.13.1a5.56,5.56,0,0,1,1.5,2c.14.23.27.34.29.58s.15.35.29.57a7.38,7.38,0,0,1,.27,1.67C34.05,64.94,34.2,65.29,34.22,65.52Zm-2.94,2.19a8.3,8.3,0,0,1,.28-1c.2-.38.16-.86.37-1.24a.12.12,0,0,0,.11-.13,1.91,1.91,0,0,1-.07-.83c.1-.25,0-.36.06-.61a1.36,1.36,0,0,0-.2-.95.42.42,0,0,1-.14-.23,1.08,1.08,0,0,0-.17-.58.9.9,0,0,0-.17-.59c-.14-.23-.18-.59-.43-.81a3,3,0,0,0-.55-.67c-.16-.47-.66-.67-.81-1-.13-.11-.25-.1-.26-.22L29,58.63,27.54,58l-.23,0-.72.06-.36,0a.4.4,0,0,0-.37-.08,2.26,2.26,0,0,0-.94.2,3.33,3.33,0,0,1-1.09,0c-.6.06-1.09,0-1.53.38l-.24,0c-.35.15-.84.07-1.17.46h-.12a1.25,1.25,0,0,0-.93.33c-.11.12-.24,0-.35.15l-.48,0c-.12,0-.22.26-.34.27a1.09,1.09,0,0,0-.8.43c-.11.13-.23.14-.47.16s-.23.14-.35.15a2.8,2.8,0,0,1-.56.41c-.11.13-.35.15-.58.29a2.63,2.63,0,0,1-.57.42c0,.12-.11.13-.22.26a3.22,3.22,0,0,0-1,.69,1.76,1.76,0,0,1-.44.4c-.24,0-.34.27-.45.4h-.12c-.23.14-.35.15-.34.27-.22.26-.32.51-.54.65s-.33.39-.56.53-.22.26-.34.27c-.22.26-.44.4-.54.65a1.82,1.82,0,0,1-.44.52,1.2,1.2,0,0,0-.43.64c-.11,0-.1.13-.22.14-.34.27-.43.64-.65.9s-.32.51-.54.65a3,3,0,0,0-.41.88A8.09,8.09,0,0,0,7,71.28a2.32,2.32,0,0,0-.3.63,2.64,2.64,0,0,1-.42.76c0,.35-.2.49-.29.86a2,2,0,0,1-.16.86,2.23,2.23,0,0,0-.17.86l-.15,1,0,.23,0,.36a1.53,1.53,0,0,0-.06.73l.23,1.19a1,1,0,0,0,.42.68c0,.12.13.11.12,0a.92.92,0,0,0,.19-.62c.09-.25.07-.49.17-.74a4.82,4.82,0,0,0,.51-1.12,2.71,2.71,0,0,0,.41-.76,2.25,2.25,0,0,1,.52-.89v-.12a5.24,5.24,0,0,1,.41-.88l1.28-1.92c0-.12.1-.25.2-.38a1,1,0,0,0,.55-.65l.54-.77c.34-.15.43-.52.65-.78s.1-.25.22-.26.32-.39.55-.53a1.2,1.2,0,0,0,.43-.64.42.42,0,0,0,.23-.14,5.13,5.13,0,0,0,.77-.79,3.66,3.66,0,0,1,.79-.67c.22-.14.31-.51.66-.66s.56-.53,1-.69l1-.81.24,0c.45-.28.78-.67,1.26-.72.34-.27.71-.18,1-.45,0-.12.23-.14.35-.15s.49.08.72-.06.13.11.25.1c.36,0,.61.06.85,0s.12,0,.25.1a9.12,9.12,0,0,0,1.25.61.12.12,0,0,0,.13.11l0,.36c0,.12,0,.24-.1.25s-.45.4-.69.42a1.26,1.26,0,0,0-.93.32l-.36,0a.59.59,0,0,1-.35.15l-.58.29-.36,0c-.56.41-1,.57-1.6,1l-.79.55a4.29,4.29,0,0,0-.91.69l-.68.42c-.47.16-.55.65-.9.8A2,2,0,0,1,15,70a3.19,3.19,0,0,0-.67.66L14,71c-.1.25-.34.27-.44.52l-.33.39c-.45.28-.53.77-1,1a1.49,1.49,0,0,1-.54.65c-.21.38-.44.52-.53.89,0,.12,0,.24-.1.25-.34.27-.41.76-.87,1-.12,0-.23.14-.21.38s-.11.13-.1.25c-.21.26-.3.63-.52.89s-.19.62-.41.87l-.31.51c-.1.25-.08.49-.19.62a8,8,0,0,0-.65,2.23l0,.24c.13.11.25.1.38.2a3.75,3.75,0,0,0,1.15.75.37.37,0,0,0,.25.1c.48,0,.86.16,1.21,0,.26.22.61.07.84,0,.72-.07,1.31-.24,2-.3a.92.92,0,0,0,.57-.29l.72-.06a.9.9,0,0,1,.59-.18,1,1,0,0,0,.58-.17.12.12,0,0,1,.11-.13l1.08-.09v.12a1.61,1.61,0,0,0-.59.17l0,.24s.37.09.36,0c.23-.14.47-.16.7-.3s.59-.18.81-.32h.12c.1-.25.34-.27.58-.29l.24,0a.66.66,0,0,1,.58-.29c.12,0,.11-.13.22-.14a.72.72,0,0,1,.47-.16c.23-.14.61.06.84-.08h.12c.12,0,.13.11.14.23a1.66,1.66,0,0,0-.32.51c-.12,0-.5-.2-.49-.08a.89.89,0,0,0-.57.29,6,6,0,0,0-.8.56l-.92.44c-.23.14-.58.29-.81.43s-.68.42-1.4.48c-.1.25-.46.29-.7.31a1.46,1.46,0,0,0-.7.18l-.83.19a1.37,1.37,0,0,1-1,.09l-.59.05-.84.07c-.25-.1-.61-.07-.86-.17a.43.43,0,0,1-.37-.08c-.24,0-.37-.09-.61-.07s-.48-.08-.84-.05l-.13-.11a4,4,0,0,0-.89-.52c-.14-.23-.38-.21-.63-.31,0-.12-.24,0-.23.14a1.79,1.79,0,0,0,0,.85c.17.59.23,1.19.4,1.77a1.09,1.09,0,0,0,.17.59c.12,0,.13.11.14.23a.92.92,0,0,0,.29.58,6,6,0,0,1,.68.9,1.72,1.72,0,0,0,.9.64.8.8,0,0,0,.73.06l1.08-.09c.12,0,.35-.15.46-.17l.72-.06c.24,0,.46-.28.7-.3a1.71,1.71,0,0,0,.7-.3c.22-.14.81-.31,1-.45a1,1,0,0,1,.58-.3,11.48,11.48,0,0,0,1.13-.82,3.44,3.44,0,0,0,.91-.56c.23-.14.33-.39.68-.54s.33-.39.55-.53.33-.39.55-.65.33-.39.56-.53.31-.51.55-.53c.22-.26.71-.18.93-.44a6.57,6.57,0,0,1,.87-1c.11-.13.23-.14.22-.26a6.05,6.05,0,0,1,1.13-.83c0-.11.36,0,.47-.16.2-.38.66-.66.87-1l.22-.26a11.32,11.32,0,0,0,1.09-1.3l.32-.51c.22-.14.32-.39.54-.65s.19-.62.4-1c0,0-.26-.22-.14-.23a1.84,1.84,0,0,0,.53-.77,15.44,15.44,0,0,0,.91-2c.23-.14.19-.62.41-.76s.11-.13.22-.26c0-.36.19-.62.15-1.1a5.53,5.53,0,0,0,.4-.87,2.63,2.63,0,0,1,.31-.63ZM20.4,85.16c0-.12,0-.12-.13-.11-.49-.07-.71.07-.79.55a.12.12,0,0,0,.13.11c.11-.13.22-.26.34-.27a.7.7,0,0,0,.46-.16S20.52,85.15,20.4,85.16ZM32.51,66.64a.42.42,0,0,0-.14-.23h-.12c-.11.13-.08.37-.19.5s-.1.25-.09.37-.22.26-.21.38a.44.44,0,0,0-.09.37c.13.11.13.11.25.09s.11-.13.1-.25a7.57,7.57,0,0,1,.4-1C32.53,66.88,32.52,66.76,32.51,66.64Z" transform="translate(-3.91 -44.35)" fill="#9e895b"/><path d="M55.23,83.92a9.79,9.79,0,0,1-4.39-.58,1.69,1.69,0,0,1-.74-.17c-.13-.11-.37-.09-.5-.2a2.78,2.78,0,0,1-1-.16,3.29,3.29,0,0,1-1.4-.84,2.66,2.66,0,0,1-.94-1.12.42.42,0,0,0-.14-.23c-.27-.34-.27-.34-.07-.72l0-.23-.24,0a6.14,6.14,0,0,1-1,.93,2.5,2.5,0,0,1-1,.69l-1.26.83-.35,0a3.57,3.57,0,0,1-1-.39.12.12,0,0,1-.13-.11c0-.24-.28-.46-.3-.7a6.3,6.3,0,0,0,0-1.44c.11-.13.09-.37.2-.5.2-.38,0-.85.25-1.23a6.72,6.72,0,0,0,.52-1l0-.24c.1-.24.21-.38.31-.62.44-.52.68-.55.87-1a1.67,1.67,0,0,1,.91-.69l.24,0c.13.11.38.21.51.32s0,.24,0,.48.15.35.28.46,0,.35-.08.48V76l-.41.76c-.09.37-.42.76-.62,1.26s-.29.75-.49,1.25l.49.08c.11-.13.34-.27.45-.4.45-.28.78-.68,1.24-1a2.54,2.54,0,0,0,.56-.41c.67-.66,2.28-2.85,3-3.51a2.32,2.32,0,0,0,.56-.41l.24,0c.26.22.51.32.65.55l0,.36a9.7,9.7,0,0,0-.62,1.25c-.32.39-1.47,2.42-1.79,2.93a2.42,2.42,0,0,0-.24,1.35.65.65,0,0,0,.41.56,6.85,6.85,0,0,0,1.47.36c2.18,0,3.69.76,5.61.71a1.64,1.64,0,0,0,1.07-.09,2.67,2.67,0,0,1,.95-.21,1,1,0,0,0,.84-.07c0-.12,0-.12.11-.13l1-.08c.36,0,.58-.3.83-.2a2.56,2.56,0,0,0,.94-.2c.11-.13.24,0,.36,0a1.45,1.45,0,0,0,.94-.32,3.52,3.52,0,0,0,1.06-.22,2.74,2.74,0,0,0,1.29-.47c.34-.15.7-.18,1.17-.35.24,0,.46-.28.82-.31s.45-.28.69-.3.46-.28.82-.31a1.71,1.71,0,0,0,.7-.3,6.53,6.53,0,0,1,1.39-.61,5.21,5.21,0,0,0,1.28-.47c.23-.14.59-.17.94-.32a1.14,1.14,0,0,1,.8-.44,1.71,1.71,0,0,0,.7-.3c.12,0,.23-.14.35-.15.61.07,1-.33,1.63-.62s.92-.44,1.39-.61a4.11,4.11,0,0,0,1.28-.47c.22-.26.59-.17.82-.31a1.8,1.8,0,0,1,.81-.43,1.71,1.71,0,0,0,.81-.32,2.88,2.88,0,0,0,1.27-.59,1,1,0,0,1,.84-.07,1.74,1.74,0,0,1-.66.66,1.71,1.71,0,0,1-.7.3l-.47.16a2.22,2.22,0,0,1-1.14.7.63.63,0,0,0-.46.28.82.82,0,0,1-.67.55c-.35.15-.56.53-1,.69s-.68.42-1,.57l-1,.69a2.87,2.87,0,0,1-1.26.83l-1.37.85c-.6,0-1,.45-1.64.5-.12,0-.11.13-.23.14a7.09,7.09,0,0,1-.91.56c-.36,0-.58.3-.94.33l-.92.44c-.23.14-.59.17-.82.31a1.73,1.73,0,0,1-.69.3c-.36,0-.58.29-.82.31a4.4,4.4,0,0,0-1.27.6,1.53,1.53,0,0,1-.71.18c-.36,0-.46.28-.7.3a5.14,5.14,0,0,0-1.89.41.44.44,0,0,1-.35.15,2,2,0,0,1-.84-.05.72.72,0,0,0-.47.16,1.67,1.67,0,0,1-.83.2,2,2,0,0,0-.83.19l-.47,0C57,83.89,56.18,83.84,55.23,83.92Z" transform="translate(-3.91 -44.35)" fill="#9e895b"/><path d="M116.05,71.49a3.9,3.9,0,0,0-1.15.59c-.35.15-.7.3-3.74,1.29-1.29.35-2.33.92-3.62,1.28-.58.29-1.42.36-1.86.76l-.47.17a15.92,15.92,0,0,0-2.22.79,13.18,13.18,0,0,1-2.13.43L99,77.32a12.6,12.6,0,0,0-2,.42,11.77,11.77,0,0,0-1.89.41c-.71.18-1.67.26-2.37.45a9.73,9.73,0,0,0-1.91.28,8.4,8.4,0,0,1-1.66.27.37.37,0,0,1-.23.14l-1.2,0c-.36,0-.71.19-1.19.23l-.36,0-.6,0a17.59,17.59,0,0,1-2.52.1c-.12,0-.24,0-.25-.1l-1.1-.26c.12,0-.74-.18-.78-.66a2.8,2.8,0,0,0-.41-.56c-.13-.11-.13-.11-.14-.23l0-.24A1.09,1.09,0,0,1,80.4,77c.09-.37.06-.73.28-1s.3-.62.64-.89c.1-.25.33-.39.43-.64a.26.26,0,0,1,.21-.26c0-.12.1-.25.21-.38A4.15,4.15,0,0,1,83,72.7c.1-.13.08-.37.19-.5s0-.12,0-.12l-1.55.13-.24,0a1.43,1.43,0,0,1-.71.19l-1,.08a.44.44,0,0,0-.35.15l-.36,0a.37.37,0,0,1-.23.14,13.77,13.77,0,0,0-1.26.72l-.36,0a.44.44,0,0,1-.37-.09c-.25-.1-.39-.33-.54-.68l0-.35c.1-.25.21-.38.19-.5.23-.14.34-.27.58-.3l.48,0,.48,0,.24,0a3.4,3.4,0,0,1,1.54-.26,1.09,1.09,0,0,0,.59-.17.72.72,0,0,1,.46-.16l2.87-.25.48,0c.12,0,.24,0,.23-.14a2.67,2.67,0,0,0,.76-.91c.12,0,.11-.13.22-.26a.94.94,0,0,0,.44-.52l.33-.39a9.16,9.16,0,0,1,1.42-1.69l.3-.63.44-.52h.12a.44.44,0,0,1,.37.09l.13.11c.13.11.14.23.27.33l.44.93v.12a1.6,1.6,0,0,1-.31.63c-.23.14-.31.51-.66.66a.12.12,0,0,0-.11.13l-.21.38c-.12,0-.23.14-.35.15a1.8,1.8,0,0,1-.43.52l-.31.63v.12h.12l5-.44a.44.44,0,0,1,.37.09c.24,0,.49.07.73,0l.71-.06h.12c0,.12-.11.13-.09.25h-.12a.44.44,0,0,1-.35.15l-1.2.11c-.12,0-.12,0-.23.14a.27.27,0,0,1-.21.26l-5.5.48-.24,0a.44.44,0,0,0-.35.15.94.94,0,0,1-.44.52,3.8,3.8,0,0,0-.87,1c0,.12-.1.25-.21.38h-.12c-.08.37-.43.52-.52.89-.11.13-.1.25-.22.26a1.82,1.82,0,0,1-.44.52,1.89,1.89,0,0,0-.31.51,1.66,1.66,0,0,0-.32.51c-.11.13-.22.26-.34.27l-.62,1.14v.11a7,7,0,0,0,2.2.41l.24,0c.46-.28.84-.07,1.54-.37l.36,0a11.12,11.12,0,0,0,1.91-.17c.48,0,.94-.2,1.42-.25a3.33,3.33,0,0,0,1.07-.21,4.44,4.44,0,0,0,1.3-.23l.6-.06c.59-.17,1.3-.23,1.89-.4a5,5,0,0,0,1.31-.24c.35,0,.7-.18,1.06-.21s.83-.19,1.43-.25a18.42,18.42,0,0,0,2.46-.69l.48,0a8.9,8.9,0,0,0,1.78-.27l.36,0a2.52,2.52,0,0,1,1.29-.48,5.92,5.92,0,0,1,1.53-.37l.47-.16a3.42,3.42,0,0,1,1.52-.5l1.76-.51c.7-.31,4.08-1.56,4.91-1.76.12,0,.25.1.37.09s.12,0,0,.12v.12l.36,0h.12c.34-.15.81-.31,1.16-.46C117.18,70.55,116.87,71.18,116.05,71.49Z" transform="translate(-3.91 -44.35)" fill="#9e895b"/><path d="M141.48,70.23a.69.69,0,0,1-.69.31c-.12,0-.23.14-.35.15s-.34.27-.58.29-.23.14-.47.16l-.24,0v.12a.89.89,0,0,1-.43.52h-.12l0-.24.11-.13c.12,0,.12,0,.22-.14h-.12c-.22.14-.46.16-.69.3H138c.12,0,.12,0,.13.11H138v-.12c-.12,0-.12,0-.11.13a1.14,1.14,0,0,1-.8.44c-.14-.11-.36,0-.48,0l-.34.27-.11.13a.12.12,0,0,0-.13-.11h-.24v.12c-.12,0-.12,0-.13-.11-.11.13-.35.15-.58.29a.25.25,0,0,1-.21.26.44.44,0,0,1-.37-.09h-.12c-.12,0-.35.15-.47.16a.12.12,0,0,1-.11.13h-.12c-.24,0-.35.16-.59.18a1.66,1.66,0,0,1-.81.31c-.24,0-.47.16-.71.18a1.09,1.09,0,0,1-.59.17.44.44,0,0,0-.34.15c-.47.17-.95.21-1.42.37s-.69.3-1.05.33a.72.72,0,0,1-.47.16,1.51,1.51,0,0,1-.59.18,4.41,4.41,0,0,0-.58.17l-.24,0a3.52,3.52,0,0,1-1.06.33,2.64,2.64,0,0,1-.94.2.49.49,0,0,1-.35.16c-.25-.1-.36,0-.6,0l-.6,0c0,.12-.11.13-.23.14s-.35,0-.59,0l-.48,0h-.12l-.6.06a1,1,0,0,0-.84.07l-.35,0a22.26,22.26,0,0,0-2.68-.25c-.13-.11-.13-.11-.25-.1s-.1.14-.1.25c-.07.49-.41.76-.74,1.15l-.8.44-.24,0-1.32.11a1,1,0,0,1-.84,0l-.62-.19a2.23,2.23,0,0,1-.86-.17,1.57,1.57,0,0,0-.74-.17c-.12,0-.13-.11-.25-.1s-.26-.22-.27-.34c-.25-.1-.39-.33-.76-.42a1.57,1.57,0,0,1-.69-1l0-.24c-.26-.22-.16-.47.07-.61v-.12h-.12c0-.23.56-.41.56-.41l.13.11,1.2-.1a.72.72,0,0,0,.47-.16l.23,0a.79.79,0,0,0,.49.07l1.56-.13,1.43-.13A.9.9,0,0,0,115,74c.11-.13.24,0,.35-.15l.11-.13c0-.24-.06-.6-.08-.84s0-.36-.16-.46l0-.24a.45.45,0,0,0,.09-.37l-.06-.72a2.36,2.36,0,0,1,0-1,.12.12,0,0,0,.11-.13.12.12,0,0,1-.13-.11c-.24,0-.16-.46,0-.47s0-.12.11-.13a2.81,2.81,0,0,1,.55-.53l.55-.66a6.25,6.25,0,0,1,.77-.79c.12,0,.12,0,.11-.13a4.49,4.49,0,0,1,1.6-1l.48,0a.44.44,0,0,1,.37.09c.14.23.39.32.65.54a.88.88,0,0,1,.3.7c0,.24,0,.36-.07.49s-.34.27-.58.29a.12.12,0,0,0-.11.13c-.23.14-.34.27-.58.29l-.56.41c-.11.13-.23.14-.46.28a1.66,1.66,0,0,1-.45.4,7.16,7.16,0,0,0-.87,1,1.3,1.3,0,0,0-.29.87,1.08,1.08,0,0,1-.06.61l0,.24c0,.12.14.23.15.35s-.09.37-.08.49l0,.23.13.11.09,1c1,0,1.7.21,2.67.25l.48,0c.22-.14.47,0,.71-.07s.36,0,.6,0l.24,0a.55.55,0,0,1,.6,0l.36,0c.1-.13.36,0,.58-.18l.6,0a1.53,1.53,0,0,0,.71-.18,1.46,1.46,0,0,0,.7-.18c.24,0,.47-.16.71-.18s.35-.16.6-.06a1.53,1.53,0,0,1,.71-.18c.22-.14.47,0,.7-.18l.36,0,0,.24.13.1a.92.92,0,0,0,.58-.29h.12l-.13-.11c-.12,0-.25-.09-.37-.08a.12.12,0,0,0,.11-.13,3,3,0,0,1,.94-.21c.11-.13.24,0,.35-.15.36,0,.59-.17.95-.2s.48,0,.7-.18l.24,0a2.52,2.52,0,0,0,1-.21l.83-.19c.23-.14.58-.17.81-.31a.23.23,0,0,1,.36,0c.24,0,.35-.16.47-.17s.11-.13.23-.14a4.94,4.94,0,0,0,.58-.17.42.42,0,0,0,.23-.14,1.36,1.36,0,0,0,.95-.2l.36,0c.11-.13.11-.13.23-.14l.35,0a.73.73,0,0,0,.17.46s.13.11.11,0l.68-.54h.12c.12,0,.12,0,0-.12s-.13-.11,0-.12l.8-.43a.12.12,0,0,0,.11-.13l-.35,0a.12.12,0,0,1-.13-.11,1.46,1.46,0,0,1,.7-.18l-.11.13a.12.12,0,0,0,.13.11c.12,0,.25.1.36,0s.25.1.14.23,0,.12.13.11.24,0,.23-.15a.12.12,0,0,1,.13.11C141.58,70,141.59,70.1,141.48,70.23Zm-26.85,5.6-.12,0-.48,0c-.13-.11-.24,0-.48,0s-.25-.1-.36,0L113,76l-.35,0c-.13-.11-.25-.1-.47.16v.12h.12c.37.09.83-.07,1.21.14l.24,0c.22-.26.59-.17.81-.44A.12.12,0,0,0,114.63,75.83Z" transform="translate(-3.91 -44.35)" fill="#9e895b"/><path d="M166.86,67.05a3,3,0,0,0-.8.55,20.72,20.72,0,0,1-2.42,1.18c-.94.32-1.61.86-2.43,1.17-.34.27-.93.33-1.26.72-.12,0-.23.14-.35.15a13.44,13.44,0,0,0-1.5.73,6.09,6.09,0,0,1-1.41.36l-1.17.47a6,6,0,0,0-1.41.36,5.15,5.15,0,0,0-1.3.36c-.46.16-1.06.21-1.53.37a4.37,4.37,0,0,0-1.3.24,4.1,4.1,0,0,1-1.19.22.12.12,0,0,1-.11.13l-.85,0c-.23,0-.46.17-.7.19l-.36,0-.36,0a17.65,17.65,0,0,1-2.52.1c-.12,0-.24,0-.25-.1L142.53,74s-.74-.18-.9-.65a2,2,0,0,1-.29-.58c-.13-.1-.13-.1-.14-.22l0-.24a1.09,1.09,0,0,1,.07-.61c.09-.37.06-.73.27-1s.31-.63.65-.9c.1-.25.32-.39.42-.64a3.25,3.25,0,0,1,.76-1c0-.12.1-.25.31-.51l.22-.26c-.12,0,.31-.63.86-1.16-.12,0,0-.12.1-.25s.33-.39.43-.64h.12c.12,0,.25.1.37.09s.13.11.14.23.14.23.26.22a1.32,1.32,0,0,0,.44.92l0,.24c-.11.13-.09.37-.32.51s-.1.25-.44.4a3.65,3.65,0,0,0-.79.67c0,.12-.1.25-.21.38h-.11c-.1.25-.22.26-.21.38s-.1.25-.22.26a1.82,1.82,0,0,1-.44.52c-.11.13-.21.26-.1.25a1.66,1.66,0,0,0-.31.51c-.11.13-.22.26-.34.27l-.62,1.14c.4.45,1.72.45,2.21.53l.24,0c.46-.28,1-.08,1.41-.36l.24,0a4.86,4.86,0,0,0,1.32-.11c.36,0,.58-.17.94-.2a2.4,2.4,0,0,0,.83-.2,2,2,0,0,0,.83-.19l.35,0c.47-.16.83-.19,1.3-.35a3.23,3.23,0,0,0,.94-.21c.24,0,.47-.16.71-.18l.83-.19a10,10,0,0,0,1.75-.64l.36,0c.49.08.7-.18,1.18-.22l.24,0a1.32,1.32,0,0,1,.81-.44,3.37,3.37,0,0,1,1.05-.33c.12,0,.23-.14.35-.15a1.47,1.47,0,0,1,1-.45l1.17-.47a27.74,27.74,0,0,1,3.23-1.6c.12,0,.13.11.25.09s.12,0,0,.12v.12l.24,0h.12c.23-.14.58-.29.8-.43s1.58-1.22,2.06-1.26C169.61,65.48,167.44,66.76,166.86,67.05ZM142.77,58.8a17.83,17.83,0,0,1,1.29-1.8,2.07,2.07,0,0,0,.42-.64,1.82,1.82,0,0,1,.44-.52H145c.12,0,.24,0,.25.1a.42.42,0,0,1,.25.1c0,.12.14.22.15.34l.44.93c.12,0,0,.12,0,.12s-.09.37-.19.5-1,.69-1.25.95h-.12C144.17,59.64,142.32,59.2,142.77,58.8Z" transform="translate(-3.91 -44.35)" fill="#9e895b"/><path d="M199.61,64.18l-.1.25h.12a.23.23,0,0,0,.36,0c.12,0,.24,0,.14.23s.13.11.25.1l.11-.13.24,0,0,.24a.86.86,0,0,1-.68.42c-.12,0-.23.14-.34.27s-.34.27-.46.28-.35.15-.47.16-.46.16-.57.29-.47.16-.7.3a.26.26,0,0,0-.22.26,1.12,1.12,0,0,1-.8.44.44.44,0,0,0-.35.15l-.81.43h-.12c-.46.16-.8.43-1.27.59s-.8.43-1.27.6l-.69.42a1.23,1.23,0,0,0-.69.3,5.22,5.22,0,0,0-.59.17.72.72,0,0,0-.47.16,4.78,4.78,0,0,0-1.15.58,1.75,1.75,0,0,0-1,.46,1.09,1.09,0,0,0-.59.17c-.23,0-.34.15-.57.29a5.22,5.22,0,0,1-.59.17h-.12l-1,.46c-.23.14-.59.17-.94.32-.12,0-.23.14-.35.15s-.35,0-.58.17l-.6,0c0,.12-.11.13-.23.14s-.36,0-.47.17l-.59,0a1.31,1.31,0,0,1-.59.17,1,1,0,0,0-.84.07c-.11.13-.24,0-.36,0-1,.09-1.92,0-2.76.13-.12,0-.24,0-.25-.1-.25-.1-.61-.07-.86-.17a1.7,1.7,0,0,1-.73-.18l-.63-.3h-.12l-.9-.65a1.6,1.6,0,0,1-.68-.9l-.45-.92,0-.24c-.17-.59.26-1.23.35-1.6a9.28,9.28,0,0,1,.61-1.26l.51-1v-.12h-.12a2,2,0,0,0-.76.91c-.11.14-.1.25-.22.27-.21.37-.54.64-.75,1-.12,0-.11.13-.23.14a2.29,2.29,0,0,0-.56.53,2.17,2.17,0,0,1-.55.54,1.2,1.2,0,0,1-.56.53c-.12,0-.23.14-.35.15s-.33.27-.57.29-.24,0-.23.14l-.24,0c-.13-.11-.37-.09-.5-.2a1.3,1.3,0,0,1-.48-1.4,4.61,4.61,0,0,1,.37-1.24c.1-.25.33-.39.43-.64l.41-.76c.1-.25.33-.39.43-.64.12,0,.11-.13.21-.26a.26.26,0,0,1,.22-.26c.23-.14.22-.26.33-.39l.34-.27v-.12c.23-.14.22-.26.44-.4a14.13,14.13,0,0,1,1.27-.71.23.23,0,0,1,.36,0h.12a2.8,2.8,0,0,1,1.23.37c.24,0,.37.09.62.19l.24,0c.22-.26.32-.51.67-.66a18.36,18.36,0,0,0,1.71-2.44c.33-.39.41-.76.74-1.15.23-.14.21-.38.43-.64a2.62,2.62,0,0,0,.42-.64c0-.12.11-.13.22-.26l1.41-1.81c.22-.26.44-.4.53-.77l.11-.13,1.42-1.69a.57.57,0,0,1,.73.06c.39.33.41.57.19.83l-.27,1c-.21.38-.66.78-.87,1.16s-.19.5-.3.63l-.44.52-.22.26a5.49,5.49,0,0,1-1,1.41c-.22.26-.44.4-.54.65s-.1.25-.21.38l-.55.65a.65.65,0,0,0-.19.5c-.1.25-1.39,2-1.61,2.31a.26.26,0,0,0-.22.26,1.7,1.7,0,0,1-.62,1.14c-.11.13-.1.25-.22.26a.65.65,0,0,1-.19.5,2.74,2.74,0,0,1-.31.62l-.33.39c-.1.25-.31.51-.41.76a.92.92,0,0,1-.19.62l-.21.38a3,3,0,0,0-.29,2.2,5.46,5.46,0,0,0,1.24.37c.13.11.13.11.25.1a1.19,1.19,0,0,1,.86.16l.35,0c.85.05,1.81,0,2.78,0a.72.72,0,0,0,.46-.16c.23-.14.48,0,.71-.18s.36,0,.48-.05l.36,0a.88.88,0,0,1,.46-.16l.36,0a1.53,1.53,0,0,1,.71-.18,1.09,1.09,0,0,1,.59-.17,1.57,1.57,0,0,0,.69-.31.9.9,0,0,0,.59-.17c.24,0,.47-.16.71-.18a1.67,1.67,0,0,1,.69-.3c.11-.13.36,0,.59-.17s.47-.16.58-.29l.48,0,0,.24.13.11c.23-.14.46-.16.57-.29a.12.12,0,1,0,0-.24l-.36,0,.11-.13.93-.44.36,0a2.19,2.19,0,0,1,.81-.31c.23-.14.47-.16.7-.3l.24,0a2.22,2.22,0,0,0,.93-.32,3.06,3.06,0,0,0,.82-.31c.24,0,.46-.28.68-.42l.48,0c.12,0,.23-.14.35-.15s.22-.26.34-.27.35-.16.47-.17a.42.42,0,0,0,.23-.14,1.29,1.29,0,0,0,.93-.32l.36,0a.26.26,0,0,1-.22.26c0,.12-.11.13-.1.25a.12.12,0,0,0,.13.11h.12c.11-.13.21-.38.32-.51v-.12l-.24,0c.11-.13.1-.25.23-.14l.36,0a.44.44,0,0,0,.15.35c0,.11.13.1.12,0,.34-.15.43-.52.79-.55,0-.12,0-.12-.14-.22s-.13-.11,0-.12l.81-.44a.12.12,0,0,0,.11-.13l-.36,0c0-.11-.13-.1-.13-.1A1.84,1.84,0,0,1,199.61,64.18Zm-26.42.87-.24,0a3.85,3.85,0,0,0-1.59,1.1l-.65.78v.12l-.11.13c.12,0,.13.11.24,0a12.07,12.07,0,0,0,1.34-1.2h.12a2.09,2.09,0,0,0,.55-.53Q173,65.43,173.19,65.05Zm20.23,2.69h-.12a.37.37,0,0,0-.23.14l-.24,0a.12.12,0,0,0-.13-.11l-.8.43,0,.24H192l.24,0c.1-.25.33-.27.57-.29l.24,0C193.21,68.12,193.31,67.87,193.42,67.74Z" transform="translate(-3.91 -44.35)" fill="#9e895b"/><path d="M232.78,59.11c-.23.14-.45.4-.69.43-.22.26-.58.29-.8.43s-.34.27-.57.41-.35.15-.58.29-.46.16-.57.29l-.58.29c-.11.13-.35.15-.46.28a2.28,2.28,0,0,0-.91.57.48.48,0,0,1-.35.15.91.91,0,0,0-.46.28,1.7,1.7,0,0,1-.81.31c-.12,0-.24,0-.23.14l-.34.27c-.24,0-.35.15-.58.29a1.05,1.05,0,0,0-.58.17c-.23.14-.34.27-.58.29s-.24,0-.23.15a1.71,1.71,0,0,1-.7.3c-.1.13-.34.15-.57.29a2,2,0,0,1-.58.29.44.44,0,0,1-.35.15c-.36,0-.57.29-.93.32-.11.13-.35.15-.46.28a.74.74,0,0,0-.47.17c-.24,0-.47.16-.7.18s-.35.15-.58.29-.47.16-.58.29c-.36,0-.46.16-.71.18s-.1.13-.22.14l-.81.44a2.12,2.12,0,0,0-.81.31l-.24,0c-.36,0-.47.16-.71.18s-.46.28-.71.18a.42.42,0,0,1-.23.14c-.22.14.12,0,0,.12l-.92.45a2.83,2.83,0,0,0-.94.32c-.47,0-.57.29-.93.32s-.59.17-.95.2a.9.9,0,0,0-.57.3c-.36,0-.59.17-.83.19a1,1,0,0,1-.84.07l-1.07.1-.48,0a1.71,1.71,0,0,0-.74-.18.37.37,0,0,1-.25-.1c-.12,0-.25-.1-.38-.21a2.46,2.46,0,0,1-1.39-.72c0-.12,0-.12-.14-.23s-.14-.22-.15-.34c0-.36-.17-.59-.19-.83l-.07-.84a1,1,0,0,1,.06-.61c.11-.12.11-.12.1-.24s.08-.49.19-.62a3,3,0,0,1,.63-1l.33-.39c0-.12.1-.25.21-.38l1-1.17a1.2,1.2,0,0,0,.56-.53h.12a11.06,11.06,0,0,0,1.15-.59,4.69,4.69,0,0,1,.8-.43,1.06,1.06,0,0,1,.85.05,6.75,6.75,0,0,1,1,.51,9.2,9.2,0,0,1,1.17,1c.13.1,0,.11,0,.23s-.22.26-.33.39-.24,0-.21.26l.07.84c-.11.13-.19.62-.42.76s-.48,0-.58.17-.35.15-.69.42h-.12c-.25-.1-.51-.31-.75-.29-.26-.22-.51-.32-.53-.56a.44.44,0,0,1-.15-.35.62.62,0,0,0-.38-.2.42.42,0,0,1-.23.14,2.34,2.34,0,0,0-1,1.17l-.65.78-.33.39c-.1.25-.33.39-.42.76a.75.75,0,0,0,.07.71.42.42,0,0,0,.14.23,1.71,1.71,0,0,1,.74.18c.11,0,.24.1.48.08l.49.07,1-.08a1.46,1.46,0,0,0,.7-.18l.36,0a1,1,0,0,0,.47-.17h.12c.23-.14.36,0,.59-.17a.72.72,0,0,1,.47-.16c.12,0,.22-.14.46-.16s.35-.15.59-.17.35-.15.59-.17.59-.18.81-.32.23-.14.47-.16l.72-.06c.36,0,0-.24.34-.27a1.46,1.46,0,0,1,.7-.18.44.44,0,0,1,.35-.15.8.8,0,0,0,.47-.17l1.4-.48.36,0c.57-.41,1.16-.46,1.61-.87l.24,0a.37.37,0,0,1,.23-.14c.36,0,.59-.17.83-.19a4.29,4.29,0,0,0,.68-.42l.24,0v.12c.13.11.14.23.16.47l-.24,0-.48,0c-.11,0-.22.14-.34.15a.44.44,0,0,1-.35.15c-.24,0-.47.16-.71.18a.91.91,0,0,0-.46.28.38.38,0,0,1-.22.14,3.36,3.36,0,0,0-1,.21l-.47.16c-.23.14-.21.26-.32.39a1.71,1.71,0,0,1-.7.3l-.93.44-.35,0-.11.13a.12.12,0,0,0-.11.13H214c0,.12.13.11.25.1s.33-.27.58-.17l.48,0,.36,0,.34-.27.48,0a.37.37,0,0,0,.23-.14c.11,0,.11,0,.22-.14l.93-.44,1-.45a.92.92,0,0,1,.58-.29c0-.12.11-.13.23-.14a5.22,5.22,0,0,1,.59-.17c0-.12.1-.13.22-.15s.47-.16.45-.4,0-.23.22-.26l.69-.42c.1-.13.1-.13.22-.14s.34-.27.58-.29.35-.15.59-.17a1.67,1.67,0,0,1,.69-.3.12.12,0,0,0,.11-.13.55.55,0,0,1,.6-.05h.12c.09-.37.33-.4.56-.54h.12a2,2,0,0,0,.82-.19c.11-.13.47-.16.58-.29s.24,0,.25.1a.17.17,0,0,0,.24,0c.12,0,.12,0,.23-.14h.12c0-.12,0-.12-.13-.11a.17.17,0,0,1,0-.24c.12,0,.11-.13.23-.14s.23-.14.35-.15l.34-.27c.23-.14.35-.15.46-.28a.61.61,0,0,0,.45-.29,2.55,2.55,0,0,1,.81-.43h.12c.23-.14.34-.27.58-.29a.7.7,0,0,0,.46-.16l.72-.06c.12,0,.11-.13.23-.14C232.51,58.78,232.76,58.88,232.78,59.11Zm-25.5,4.52a.61.61,0,0,0-.46.29l.26.21,1.19-.1c.12,0,.24,0,.23-.14a2.63,2.63,0,0,0,.56-.53c.11-.13.11-.13,0-.24s-.11.13-.23.14l-.24,0a.12.12,0,0,0-.13-.11c0-.12,0-.12-.13-.11s-.11.13-.23.14ZM223,64v-.12c-.12,0-.23.14-.35.15a1.46,1.46,0,0,1-.7.18c-.24,0-.35.15-.45.4l-.24,0a.12.12,0,1,0,.24,0l.6,0c.22-.26.46-.16.68-.42C222.85,64.08,222.84,64,223,64Z" transform="translate(-3.91 -44.35)" fill="#9e895b"/><path d="M272.62,58.76a.68.68,0,0,1-.7.3c-.12,0-.23.14-.35.15s-.33.27-.57.29-.23.15-.47.17l-.24,0v.12a.94.94,0,0,1-.44.52h-.12l0-.24.11-.13c.12,0,.12,0,.23-.14h-.12c-.23.14-.47.16-.69.3h-.12c.12,0,.12,0,.12.11h-.11v-.12c-.12,0-.12,0-.11.13a1.09,1.09,0,0,1-.81.43c-.13-.11-.36,0-.48,0l-.33.27-.11.13c0-.11-.13-.1-.13-.1h-.24v.12c-.12,0-.12,0-.13-.11-.11.13-.35.15-.58.29a.26.26,0,0,1-.22.26.44.44,0,0,1-.37-.09h-.12c-.12,0-.34.15-.46.16a.12.12,0,0,1-.11.13h-.12c-.24,0-.35.15-.59.17a1.86,1.86,0,0,1-.81.32c-.24,0-.47.16-.71.18a1.09,1.09,0,0,1-.59.17.44.44,0,0,0-.35.15c-.46.16-.94.2-1.41.37s-.7.3-1.06.33a.7.7,0,0,1-.46.16,1.31,1.31,0,0,1-.59.17,5.22,5.22,0,0,0-.59.17l-.24,0a3.23,3.23,0,0,1-1.05.34,2.65,2.65,0,0,1-1,.2.44.44,0,0,1-.35.15c-.25-.1-.35,0-.59,0l-.6.06c0,.12-.11.13-.23.14s-.36,0-.6,0l-.48,0h-.12l-.59.05a1.07,1.07,0,0,0-.84.08l-.36,0A20.24,20.24,0,0,0,248,65c-.13-.11-.13-.11-.25-.1s-.11.13-.1.25a2.41,2.41,0,0,1-.74,1.15l-.81.43-.24,0-1.31.12a1,1,0,0,1-.85,0l-.62-.18a2.15,2.15,0,0,1-.85-.17,1.71,1.71,0,0,0-.74-.18l-.21.38c-.1.25-.31.63-.4.88s-.1.25-.21.38a2,2,0,0,1-.3.75v.12a1.31,1.31,0,0,0-.07.61,1,1,0,0,0-.07.49c.14.22,0,.35.16.46s.21,1.07,0,1l-.38-.21c-.12,0-.25-.1-.38-.21a.11.11,0,0,1-.13-.1c-.14-.23-.27-.34-.28-.46a2.17,2.17,0,0,1-.34-1.18.42.42,0,0,0,.1-.25c.08-.48.28-.86.36-1.35l.21-.38a.42.42,0,0,0,.1-.25c0-.12.1-.25.09-.37s.21-.26.2-.38a2.52,2.52,0,0,0,.42-.76h-.12a1.6,1.6,0,0,1-.69-1l0-.24a.35.35,0,0,1,.06-.61v-.12h-.12c0-.24.57-.41.57-.41l.13.11,1.2-.11a.72.72,0,0,0,.46-.16l.24,0,.44-.52.33-.39.32-.39c0-.12.1-.25.21-.38h.12c.09-.37.32-.51.53-.77s.68-.54.9-.8l.33-.39c.22-.14.33-.27.45-.28.35-.15.34-.27.45-.4l.24,0v-.12c-.24,0-.16-.47,0-.48s0-.12.11-.13a2.34,2.34,0,0,1,.55-.53l.55-.65a4.71,4.71,0,0,1,.77-.79c.12,0,.12,0,.11-.13a4.41,4.41,0,0,1,1.6-1l.48,0a.47.47,0,0,1,.37.08c.14.23.39.33.65.55a.88.88,0,0,1,.3.7c0,.24,0,.35-.08.48s-.34.28-.58.3a.11.11,0,0,0-.1.13c-.23.14-.34.27-.58.29l-.57.41c-.11.13-.23.14-.45.28a1.66,1.66,0,0,1-.45.4,6.57,6.57,0,0,0-.87,1,1.3,1.3,0,0,0-.29.87,1.09,1.09,0,0,1-.07.61l0,.24c0,.11.14.22.16.34s-.09.37-.08.49l0,.24.13.11.08,1c1,0,1.71.21,2.67.24l.48,0c.23-.14.48,0,.72-.06s.36,0,.6-.05l.24,0a.55.55,0,0,1,.59-.06l.36,0c.11-.13.36,0,.59-.17l.6,0a1.49,1.49,0,0,0,.7-.18,1.54,1.54,0,0,0,.71-.19c.24,0,.47-.16.71-.18s.35-.15.59,0a1.53,1.53,0,0,1,.71-.18c.23-.14.48,0,.71-.18l.36,0,0,.24.13.11a.87.87,0,0,0,.57-.29h.12l-.13-.11c-.12,0-.24-.1-.37-.09a.11.11,0,0,0,.11-.13,3,3,0,0,1,.95-.2c.11-.13.24,0,.35-.15.36,0,.59-.17.94-.21s.48,0,.71-.18l.24,0a2.35,2.35,0,0,0,.95-.2l.82-.19c.23-.14.59-.18.82-.32a.23.23,0,0,1,.36,0c.24,0,.34-.15.46-.16s.11-.13.23-.14a5.22,5.22,0,0,0,.59-.17.42.42,0,0,0,.23-.14,1.36,1.36,0,0,0,.95-.2l.35,0c.11-.13.11-.13.23-.14l.36,0a.72.72,0,0,0,.16.47s.13.11.12,0l.68-.54h.12c.12,0,.12,0,0-.12s-.13-.11,0-.12l.8-.43a.12.12,0,0,0,.11-.13l-.36,0a.12.12,0,0,1-.13-.11,1.53,1.53,0,0,1,.71-.18l-.11.13a.12.12,0,0,0,.13.11c.12,0,.25.09.36,0s.25.1.14.23,0,.12.13.11.24,0,.23-.14a.12.12,0,0,1,.13.11C272.72,58.51,272.73,58.63,272.62,58.76Zm-26.86,5.6h-.11l-.48,0c-.13-.1-.24,0-.48,0s-.25-.1-.36,0l-.24,0-.36,0c-.13-.11-.25-.1-.47.16l0,.12h.11c.37.09.84-.07,1.22.14l.24,0c.22-.26.59-.17.81-.43A.11.11,0,0,0,245.76,64.36Zm-2.17-1.49.47,0,1.44-.12a.9.9,0,0,0,.59-.17c.11-.13.24,0,.34-.15l.11-.13-.07-.84a.72.72,0,0,0-.16-.47l0-.24a.44.44,0,0,0,.09-.37l-.07-.71,0-.24a.12.12,0,0,0-.11.13c-.24,0-.2.38-.31.51l-.33.39c-.12,0-.22.26-.33.39l-.65.78v.12h-.12A9.71,9.71,0,0,1,243.59,62.87Z" transform="translate(-3.91 -44.35)" fill="#9e895b"/><path d="M298,55.58a3,3,0,0,0-.8.55,22.19,22.19,0,0,1-2.43,1.17c-.93.33-1.61.87-2.42,1.18-.34.27-.94.32-1.27.71-.11,0-.22.14-.34.15a12.85,12.85,0,0,0-1.5.74,6,6,0,0,1-1.42.36l-1.16.46a6.61,6.61,0,0,0-1.42.37,5.16,5.16,0,0,0-1.29.35c-.47.16-1.07.22-1.53.38a4.52,4.52,0,0,0-1.31.23,4,4,0,0,1-1.18.23.12.12,0,0,1-.11.13l-.85-.05c-.24,0-.47.16-.71.18l-.35,0-.36,0a19.31,19.31,0,0,1-2.52.1c-.12,0-.24,0-.25-.1l-1.11-.27s-.74-.17-.9-.64a2,2,0,0,1-.29-.58c-.13-.11-.13-.11-.14-.23l0-.24a1.15,1.15,0,0,1,.06-.6c.09-.37.06-.73.28-1s.31-.63.64-.9c.1-.25.33-.39.43-.64a3.22,3.22,0,0,1,.75-1c0-.12.1-.25.32-.51l.22-.26c-.12,0,.3-.63.86-1.16-.12,0,0-.12.1-.25s.33-.39.42-.64h.12c.12,0,.25.1.37.09s.13.11.14.23.14.23.26.22a1.4,1.4,0,0,0,.45.92l0,.24c-.11.13-.09.37-.32.51s-.1.25-.45.4a3.74,3.74,0,0,0-.78.67c0,.12-.1.25-.21.38h-.12c-.1.25-.22.26-.21.38s-.1.25-.21.26a1.82,1.82,0,0,1-.44.52c-.11.13-.22.26-.1.25a1.66,1.66,0,0,0-.32.51c-.1.13-.21.26-.33.27l-.63,1.14c.4.45,1.73.45,2.22.53l.24,0c.45-.28.95-.09,1.41-.37l.24,0a4.74,4.74,0,0,0,1.31-.11c.36,0,.59-.18.95-.21a2.35,2.35,0,0,0,.83-.19,2,2,0,0,0,.82-.19l.36,0c.47-.17.83-.2,1.3-.36a3,3,0,0,0,.94-.2c.24,0,.47-.16.71-.18l.82-.2a9.66,9.66,0,0,0,1.75-.63l.36,0c.49.08.71-.18,1.19-.23l.24,0a1.28,1.28,0,0,1,.8-.43,3.52,3.52,0,0,1,1.06-.33c.12,0,.23-.14.35-.15a1.47,1.47,0,0,1,1-.46l1.16-.46A29.62,29.62,0,0,1,297,54.94c.12,0,.13.11.25.1s.12,0,0,.12v.12l.24,0h.12c.22-.14.57-.29.8-.43s1.58-1.22,2.06-1.27C300.75,54,298.57,55.29,298,55.58Zm-24.09-8.25a17.68,17.68,0,0,1,1.28-1.8,2.11,2.11,0,0,0,.43-.64,1.82,1.82,0,0,1,.44-.52h.12c.11,0,.24,0,.25.09a.41.41,0,0,1,.24.1c0,.12.15.23.16.35l.44.93c.12,0,0,.12,0,.12s-.09.36-.2.49-1,.7-1.24,1h-.12C275.3,48.17,273.46,47.73,273.91,47.33Z" transform="translate(-3.91 -44.35)" fill="#9e895b"/><path d="M322.11,54.43a.92.92,0,0,1-.58.29c-.11.13-.35.15-.46.28s-.22.26-.45.28a1.1,1.1,0,0,0-.59.18c-.11.13-.35.15-.46.28a1.66,1.66,0,0,0-.81.31c-.12,0-.24,0-.23.14a1.09,1.09,0,0,1-.81.43c-.24,0-.36,0-.47.16s-.45.28-.8.43l-.12,0c-.47.16-.81.43-1.27.59s-.93.44-1.28.59a2.78,2.78,0,0,1-.93.32c-.24,0-.46.29-.7.31a1.09,1.09,0,0,1-.59.17c-.1.13-.23.14-.46.16-.34.27-.82.31-1.28.59-.36,0-.33.27-.68.42a.78.78,0,0,0-.47.16c-.24,0-.35.16-.47.17s-.35.15-.59.17h-.11a2.83,2.83,0,0,1-.94.32c-.23.14-.59.17-.82.31s-.23.14-.36,0l-.46.16a1.09,1.09,0,0,0-.59.17h-.12c-.12,0-1.54.25-3,.62l-.33.27-.22.26a1.2,1.2,0,0,1-.43.64.63.63,0,0,0-.46.28,3.48,3.48,0,0,1-.87,1c-.11.13-.21.38-.44.4l-.11.13-.44.52a1.2,1.2,0,0,0-.56.53,2.8,2.8,0,0,0-.56.41c-.36,0-.58.29-.93.44a2.22,2.22,0,0,1-.93.33.42.42,0,0,1-.23.14,5.22,5.22,0,0,0-.59.17c-.23.14-.47.16-.58.29l-.35,0-.72.06-.36,0c-.34.27-.83.19-1.31.23-.1.13-.11,0-.22.14a.91.91,0,0,1-.5-.2l-.38-.2a3.06,3.06,0,0,1-.86-.17c-.12,0-.25-.1-.38-.21a1.46,1.46,0,0,0-.4-.44.44.44,0,0,1-.15-.35,1,1,0,0,1,.27-1c0-.12,0-.12.11-.13h.12c0,.12.13.11.14.23l-.32.39a.59.59,0,0,0,.15.35l.85.16,1.56-.13.24,0a1.23,1.23,0,0,1,.59-.18,2.86,2.86,0,0,0,.93-.32,1.31,1.31,0,0,0,.59-.17.9.9,0,0,1,.59-.17c.1-.13.34-.15.57-.29s.47-.17.58-.3.47-.16.71-.18a5.63,5.63,0,0,0,.79-.55,1.54,1.54,0,0,0,.68-.54l1-.81c0-.12.11-.13.22-.26s.45-.28.34-.27l-.6,0c-.34.27-.35.15-.35.15a28.28,28.28,0,0,0-7.66,3.32c-.46.28-.55-.79,1.54-1.7a1.67,1.67,0,0,1,.69-.3l.69-.42a.63.63,0,0,1,.46-.28c.12,0,.11-.13.23-.14a1.05,1.05,0,0,1,.56-.41,1,1,0,0,0,.58-.3c.8-.43,1.54-.25,2.23-.67l.68-.42a.45.45,0,0,0,.35-.16c0-.12.11-.13.23-.14s.35-.15.46-.28.23-.14.35-.15a.11.11,0,0,1,.1-.13c.12,0,.34-.27.58-.29s.47-.16.7-.3a2.8,2.8,0,0,1,.56-.41c.11-.13.23-.14.21-.38l.44-.52a3.72,3.72,0,0,0,.74-1.15c0-.12.11-.13.1-.25l.44-.52c.09-.25.2-.38.3-.63s.31-.63.53-.89a2,2,0,0,1,.52-.89v-.12c0-.12-.13-.11-.12,0-.34.27-.69.42-.89.8a.94.94,0,0,1-.46.29,1.82,1.82,0,0,1-.44.52l-.66.66c-1,.93-1.1,1.18-1.34,1.2l-.11.13c-.12,0-.23.14-.34.27a.44.44,0,0,0-.35.15c-1,.45-1.3-1.09-1.27-.73l0-.36a.44.44,0,0,1-.15-.35c0-1-.06-.72.47-1.49l.78-.79c.33-.39.78-.67,1.11-1.06,0-.12,1-.93,1.11-1.06a7.1,7.1,0,0,0,.92-.56,1.25,1.25,0,0,1,.94-.2l.24,0a3.11,3.11,0,0,0,.63.3c.12,0,.13.11.26.22s.13.11.12,0c.35-.15.7-.3.77-.79a.37.37,0,0,1,.48,0,.26.26,0,0,1,.26.21c0,.12.14.23.27.34s.16.47.31.7v.12c-.2.5-.39,1.12-.59,1.61l-.3.63a2.52,2.52,0,0,0-.42.76L305,57l0,.24c-.09.37-.32.51-.54.77v.12c.12,0,.12,0,.25.1L303,60.32a.42.42,0,0,1-.23.14l.24,0,.36,0,.36,0,.35,0a1.09,1.09,0,0,1,.59-.17l.47-.16a1.53,1.53,0,0,0,.71-.18,1.05,1.05,0,0,0,.58-.17c.24,0,.35-.15.59-.17a4.89,4.89,0,0,1,.59-.18.89.89,0,0,1,.58-.17c.11-.13.36,0,.59-.17l.36,0v.12c0,.12,0,.12.13.11s0-.12.22-.26a.12.12,0,0,0-.13-.11c.11-.13-.25-.1-.25-.1a3.9,3.9,0,0,1,1-.45l.24,0a3.81,3.81,0,0,1,.94-.33c.23-.14.47-.16.7-.3l.35,0a2.83,2.83,0,0,0,.94-.32,2.23,2.23,0,0,0,.82-.31,1.86,1.86,0,0,0,.81-.32c.11-.13.23-.14.47-.16a.44.44,0,0,0,.35-.15.44.44,0,0,1,.34-.15c.24,0,.35-.15.58-.29l.24,0a1.56,1.56,0,0,0,.93-.45l.35,0c0,.12-.09.25-.2.38a.12.12,0,0,0-.11.13L318,56h.12c.11-.13.2-.38.43-.52a.44.44,0,0,0-.37-.09c.11-.13.11-.13.23-.14l.36,0c0,.12.14.23.15.35s.13.11.24,0l.68-.54c.12,0,.12,0,0-.12s-.13-.11,0-.12l.8-.43a.12.12,0,0,0,.11-.13l-.36,0-.13-.11c.23-.14.46-.28.71-.18l-.11.13H321c.13.11.25.1.48,0s.12,0,.13.11,0,.24.13.11l.24,0c.11-.13.12,0,.12,0S322.22,54.3,322.11,54.43Zm-17.94-1.2-.23,0a.12.12,0,0,0-.11.13l-.36,0a5.28,5.28,0,0,0-1,.81c0,.24-.21.38-.44.52a1.82,1.82,0,0,0-.44.52c-.89.8-.88.92,0,.12h.12a10.51,10.51,0,0,0,1.34-1.2c.12,0,.23-.14.34-.27a.94.94,0,0,0,.44-.52l.24,0A.11.11,0,0,0,304.17,53.23Zm10.22,3.92a.34.34,0,0,1-.22.14c-.11.13-.11.13-.36,0h-.12c-.23.14-.58.29-.81.43v.12L313,58c.11-.13.11-.13.23-.14a.93.93,0,0,1,.58-.3.17.17,0,0,0,.24,0c.24,0,.35-.15.34-.27Z" transform="translate(-3.91 -44.35)" fill="#9e895b"/><path d="M340.61,59.44l-.6.05-.35,0c-.48,0-1.09,0-1.57,0a.88.88,0,0,1-.74-.18c-.35,0-.74-.3-1.22-.25l-.24,0a1.79,1.79,0,0,0-.85-.05c-.24,0-.37-.09-.62-.19a1.41,1.41,0,0,1-.73,0l-.62-.31a.12.12,0,0,1-.13-.11.44.44,0,0,1-.37-.09c-.25-.09-.39-.32-.64-.42a3.86,3.86,0,0,1-.93-1v-.12c-.15-.23-.16-.35-.29-.46a.72.72,0,0,0-.16-.47v-.12a1.09,1.09,0,0,1,.07-.61c0-.12.11-.13.1-.25a5,5,0,0,1,.07-.6,2.32,2.32,0,0,1,.64-.9c0-.12,0-.12-.13-.11s-.35.15-.59.17h-.12a6.32,6.32,0,0,0-.8.43l-.69.42-.68.42c-.24,0-.23.14-.34.27-.48,0-.58.3-.93.45a.38.38,0,0,0-.22.14c-.12,0-.24,0-.23.14a3,3,0,0,1-.8.55,7,7,0,0,0-.91.56.44.44,0,0,0-.35.15.73.73,0,0,1-1,.08.49.49,0,0,0-.35.16c-.12,0-.22.14-.33.27s-.11.13-.23.14l-.48,0c-.13-.11-.25-.1-.38-.21s-.27-.34-.29-.58l-.06-.71a.25.25,0,0,1,.21-.26l.31-.63c.11-.13.22-.26.34-.27.43-.52,2.65-2.76,3-3a5.83,5.83,0,0,0,.64-.9,2.13,2.13,0,0,0,.78-.67.67.67,0,0,0,.46-.29c0-.11.11-.13.12,0a1.71,1.71,0,0,0,.74.18c.12,0,.13.11.26.22l.52.43a.37.37,0,0,1,0,.48,2.22,2.22,0,0,1-.75,1l-.45.4a.12.12,0,0,1-.11.13,2.94,2.94,0,0,0-.66.66c-.23.14-.45.4-.79.67,0,.12,0,.12.13.11a7,7,0,0,0,1.38-.72c.34-.27.82-.31,1.28-.59h.12c.24,0,.45-.28.69-.31a.91.91,0,0,1,.47-.16c.11-.13.11-.13.23-.14s.37.09.48,0,.35-.15.47-.16a1.68,1.68,0,0,0,1-.45.23.23,0,0,1,.36,0c.25.09.37.08.5.19a.94.94,0,0,0,.52.44.92.92,0,0,1,.29.58v.12a2,2,0,0,1-.3.74c0,.12,0,.12-.1.25s-.34.15-.33.27-.09.37-.33.39a.94.94,0,0,0-.44.52c-.21.26-.18.62-.4.88l0,.24a.63.63,0,0,0,.28.46.92.92,0,0,1,.62.19,2.6,2.6,0,0,1,1,.15h.12c.25.1.48.08.61.19s.48,0,.61.06.61.07.86.17.13.11.25.1l3,.1.24,0a1,1,0,0,1,.84-.07l1-.08c.12,0,.13.11.24,0a1.07,1.07,0,0,1,.84-.08,1.09,1.09,0,0,0,.59-.17h.11c.36,0,.73.06,1-.08l.48,0a1,1,0,0,0,.59-.18.42.42,0,0,1,.34-.15c.37.09.59-.17.95-.2a1.53,1.53,0,0,1,.71-.18.51.51,0,0,0,.58-.17.42.42,0,0,0,.23-.14.83.83,0,0,0,.71-.19c.24,0,.47-.16.71-.18a.42.42,0,0,1,.34-.15c.25.1.59-.17.83-.19s.24,0,.23-.14.23-.14.47-.16.47,0,.82-.2.48,0,.71-.18l.69-.42a1.28,1.28,0,0,0,.58-.17.12.12,0,0,0,.11-.13.44.44,0,0,1,.35-.15l.36,0c.34-.27.7-.31.91-.57a.44.44,0,0,1,.35-.15,5.22,5.22,0,0,1,.59-.17h.12a.66.66,0,0,1,.56-.41.91.91,0,0,0,.46-.28l.34-.27.11-.13c.37.09.59-.17.81-.31a1.44,1.44,0,0,0,.66-.78c.11-.13.22-.26.47-.17l.24,0a.25.25,0,0,1,.21-.26,3.61,3.61,0,0,0,.92-.56c.11-.13.22-.26.21-.38l.92-.44c.24,0,.34-.27.57-.41,0-.36.19-.5.41-.76h.12c.12,0,.11-.13.48,0a.37.37,0,0,1-.1.25l-.22.26-.11.13c-.09.25-.31.51-.29.75a.66.66,0,0,1-.31.62,2.55,2.55,0,0,1-.55.53l-.33.4-.33.39c-.12,0-.23.14-.35.15l-.32.39-.69.42a1.23,1.23,0,0,1-.55.53c-.24,0-.46.28-.69.42l-.69.42c-.21.26-.45.28-.68.42A12.75,12.75,0,0,0,356.61,55c-.12,0-.23.14-.35.15a2.11,2.11,0,0,0-1.15.58l-.24,0c-.23.14-.47.16-.7.3a3.15,3.15,0,0,1-.81.31,1.61,1.61,0,0,1-.7.31c-.12,0-.24,0-.23.14-.36,0-.69.3-1.05.33a2.27,2.27,0,0,1-.94.32c-.12,0-.23.14-.35.15a1.77,1.77,0,0,1-.82.2,5.22,5.22,0,0,1-.59.17c-.24,0-.47.16-.71.18a.9.9,0,0,1-.59.17c-.1.13-.35,0-.58.17s-.47.17-.72.07-.23.14-.35.15l-.6,0c-.23,0-.34.15-.58.17s-.35.15-.59.17a1.52,1.52,0,0,0-.73,0,.44.44,0,0,0-.35.15l-.47,0-.36,0a.54.54,0,0,1-.6,0Zm15.24-4.83a.91.91,0,0,0,.46-.28l.68-.42c.23-.14.58-.29.81-.43s.47-.17.69-.31a2.16,2.16,0,0,0,.79-.67.44.44,0,0,0,.35-.15h.12l.68-.42a2.63,2.63,0,0,0,.56-.53c.47-.16.67-.54,1-.81v-.12l.36,0,.44-.52c.12,0,.09-.25.09-.25h-.12c-.21.26-.44.4-.66.66a.12.12,0,0,1-.11.13l-.24,0c-.11.13-.11.13-.23.14l-.32.39c-.12,0-.23.14-.46.28a2,2,0,0,0-.58.29,1.23,1.23,0,0,1-.55.53l0,.24c-.25-.1-.37-.09-.35.15-.25-.1-.48,0-.71.19a4.22,4.22,0,0,1-1,.57l-.34.27c-.12,0-.11.13-.23.14s-.36,0-.47.16-.32.39-.69.3a2.52,2.52,0,0,0-.68.54v.12h.12A5.22,5.22,0,0,1,355.85,54.61Z" transform="translate(-3.91 -44.35)" fill="#9e895b"/></g></g></svg>