<svg xmlns="http://www.w3.org/2000/svg" viewBox="0 0 278.16 41.48"><g id="レイヤー_2" data-name="レイヤー 2"><g id="レイヤー_1-2" data-name="レイヤー 1"><path d="M8.33,85.39A1.82,1.82,0,0,0,7.81,85a.26.26,0,0,1-.26-.22.44.44,0,0,1-.15-.35c-.25-.09-.27-.33-.3-.69A.58.58,0,0,1,7,82.85a2,2,0,0,0,.13-1.22l.29-.86c0-.12.09-.25.08-.37a1.94,1.94,0,0,1,.27-1.11.12.12,0,0,1,.11-.13,1.86,1.86,0,0,1,.16-.86c0-.24.09-.37.19-.62A1.67,1.67,0,0,1,8.44,77a2.19,2.19,0,0,1,.29-.75c0-.24.21-.38.18-.74A.12.12,0,0,1,9,75.33c.09-.37.29-.75.38-1.12a9.55,9.55,0,0,1,.39-1.12c.1-.25.2-.38.19-.5s0-.24.1-.25c.22-.26.2-.49.42-.75a8,8,0,0,1,.59-1.5,2.28,2.28,0,0,0,.41-.76,3.61,3.61,0,0,1,.4-1l.31-.63a2.71,2.71,0,0,0,.41-.76c0-.12,1.12-2.38,1.11-2.5a3,3,0,0,0,.63-1,2.25,2.25,0,0,1,.52-.89c0-.12.1-.25.09-.37a5.24,5.24,0,0,1,.65-.9,6.75,6.75,0,0,1,.51-1,3.91,3.91,0,0,1,.74-1.15c.22-.26.19-.62.42-.76a2.54,2.54,0,0,1,.31-.62l0-.12c-.12-.11-.12-.11-.23,0a2.35,2.35,0,0,1-1,.2.57.57,0,0,0-.71.18c-.37-.09-.69.3-1.18.23-.12,0-.34.27-.46.28a1.09,1.09,0,0,0-.59.17h-.12l-.59.05c-.23.14-.34.27-.59.17s-.23.14-.35.15-.47.17-.69.31-.48,0-.7.3l-.24,0a.94.94,0,0,0-.94.32.77.77,0,0,1-.93.32l-.13-.1c-.13-.11-.15-.35-.29-.58v-.12a1.32,1.32,0,0,1,0-1.33,4.92,4.92,0,0,1,.85-1.28c.12,0,.11-.13.23-.14.36,0,.58-.29.93-.44s.45-.28.7-.18a1.45,1.45,0,0,1,.94-.32c.23-.14.47-.16.7-.31s.22-.14.34-.15a2.5,2.5,0,0,0,1.31-.23l.6,0,.59-.06c0-.11.11-.12.23-.14l.72-.06.36,0a.44.44,0,0,1,.35-.15l.95-.08a1.35,1.35,0,0,0,.59-.18l.36,0,.95-.08a.44.44,0,0,0,.35-.15,18.67,18.67,0,0,0,1.94-2.7c.22-.14-1,.57.27-1a1.2,1.2,0,0,1,.56-.53l.21-.26.66-.78c.11-.13.22-.26.34-.27.34-.15.55-.53.78-.67a1.6,1.6,0,0,1,.57-.41c.34-.15.56-.41.91-.56l.24,0c.26.22.51.31.65.54s.38.21.62.19.26.22.38.21.13.11.26.21a1.28,1.28,0,0,1,.2.95.42.42,0,0,1-.1.25A7.29,7.29,0,0,1,27,50c-.35.15-.59.17-.68.42-1,.82-2,1.51-2.94,2.31l-.42.64v.12c-.12,0-.11.13,0,.12s0,.12.13.11a.11.11,0,0,0,.13.1l.48,0,.48,0,.23,0a1.11,1.11,0,0,1,.83-.19l9-.43c.48,0,.85.05,1.32,0,.12,0,.23-.14.35-.15a.23.23,0,0,1,.36,0,1.79,1.79,0,0,0,.85.05c1.44,0,2.89,0,4.32-.14A6,6,0,0,1,43,53c0,.12.13.11.14.23l.06.71c.14.23.16.47.3.7a.74.74,0,0,1,.08.84c0,.11,0,.11-.11.13s-.45.4-.82.31-.59.17-.85,0a3,3,0,0,0-1.08,0,26,26,0,0,0-3.12.15c-.25-.1-.6.05-1-.16a.47.47,0,0,1-.37-.08,2.89,2.89,0,0,0-.94.2l-.48,0a.44.44,0,0,0-.37-.09,24.09,24.09,0,0,0-2.76.12l-.72.07c0,.12-.12,0-.24,0a6.28,6.28,0,0,0-1.56,0,.37.37,0,0,0-.23.14c-.11.13-.36,0-.6.06s-.51-.32-.85,0a3.19,3.19,0,0,1-1.07.09l-1,.09-.83.07c-.12,0-.25-.1-.24,0a3.1,3.1,0,0,1-1.43.25l-.24,0a.87.87,0,0,1-.58.17l-.84.07c-.37-.09-.59.17-.95.21a.25.25,0,0,0-.21.26l-.33.39a7.85,7.85,0,0,1-.73,1.26c-.23.14-.32.51-.43.64s-.45.4-.42.64c-.33.39-.41.88-.74,1.27a10,10,0,0,0-.84,1.4l-2,3.79c0,.11-.11.13-.09.24a2,2,0,0,1-.3.75l-.32.51c-.11.13-.11.13-.1.25l-.92,1.89a40.45,40.45,0,0,0-1.81,4,1.74,1.74,0,0,0-.17.86c-.1.25-.32.51-.29.75a.42.42,0,0,1-.1.25c-.09.37-.31.63-.4,1l-.27,1c-.12,0-.11.14-.1.25a1.71,1.71,0,0,1-.18.74,1.69,1.69,0,0,0-.17.74c0,.24-.09.37-.19.62a1.74,1.74,0,0,0-.17.86c0,.24.16.35.4.44a.12.12,0,0,1,.13.11l.24,0a1.71,1.71,0,0,1,.24,1.31,3.14,3.14,0,0,1-.41.88A1.28,1.28,0,0,1,9,85a1.66,1.66,0,0,1-.45.4Zm10.75-30c0-.12.11-.13.1-.25s.12,0,.11-.13h-.12a1.79,1.79,0,0,0-.85,0,1.68,1.68,0,0,0-1.06.22c-.11.13-.12,0-.24,0l-.72.06-.11.13a.12.12,0,0,1,.13.11c.24,0,.37.09.62.19,0,.11.13.1.13.1a.44.44,0,0,1,.35-.15c.13.11.26.22.38.21l.48,0C18.64,55.94,18.86,55.68,19.08,55.42Zm22.75-1.51c0-.12.11-.13.22-.26s.11-.13,0-.24a2.83,2.83,0,0,0-1-.16l-8.75.41-1,.08c-.12,0-.25-.1-.37-.09s-.25-.09-.49-.07-.72-.06-1.08,0a.44.44,0,0,0-.35.15,3.54,3.54,0,0,1-1.08.1L25.7,54c-.13-.1-.36,0-.6.06a.52.52,0,0,1-.59.05c-.25-.1-.37-.09-.48,0l-.24,0-.84.08c-.24,0-.35.15-.58.17s-.22.26-.08.49V55c0,.23,0,.23.14.22a2,2,0,0,0,.84-.07c0-.12.1-.13.22-.14.6-.05,1.21,0,1.81,0a.44.44,0,0,1,.37.09.23.23,0,0,0,.36,0c.11,0,.1-.13.23,0a.9.9,0,0,0,1.08-.09l.48,0c.84-.07,1.8,0,2.76-.12a1.46,1.46,0,0,0,.7-.18c.23-.14.48,0,.72-.06a2.35,2.35,0,0,0,1.57,0c.12,0,.37.09.59,0l1.32-.12c.12,0,.25.1.37.09a.23.23,0,0,0,.36,0c.12,0,.23-.14.36,0a.75.75,0,0,0,.71-.06l.36,0a1.45,1.45,0,0,0,1,.16l1.19-.11a5.4,5.4,0,0,0,1.33,0C41.51,54.3,41.75,54.28,41.83,53.91Z" transform="translate(-6.88 -43.91)" fill="#9e895b"/><path d="M70.14,69a.48.48,0,0,1-.2.5c-.11.13-.35.15-.46.28s-.34.15-.57.29l-.47.16c-.23.14-.47.16-.58.29a1.49,1.49,0,0,1-.7.18c-.12,0-.12,0-.23.14a2.36,2.36,0,0,1-1.29.48c-.11,0-.23,0-.22.14s-.1.25-.35.15l-.24,0a.66.66,0,0,1-.57.41,1,1,0,0,0-.58.17c-.12,0-.11.13-.23.14l-.6.06c-.24,0-.35.15-.47.16l-.45.4c-.1.13-.46.16-.7.18s-.25-.1-.36,0a.42.42,0,0,1-.23.14c-.24,0-.36,0-.46.28l-.11.13a1,1,0,0,0-.58.18c-.24,0-.47.16-.83.19a.88.88,0,0,1-.7.3,4.94,4.94,0,0,0-.58.17.44.44,0,0,1-.35.15c-.36,0-.71.18-1,.21s-.48,0-.58.17a.44.44,0,0,0-.35.15,1.79,1.79,0,0,0-.83.19c-.24,0-.35.15-.59.17a1.42,1.42,0,0,0-.7.19,1.53,1.53,0,0,1-.71.18,1.31,1.31,0,0,0-.59.17.72.72,0,0,1-.46.16,8.68,8.68,0,0,1-1.67.27c-.35.15-.72.06-.93.32a.55.55,0,0,0-.6,0,2,2,0,0,1-.83.19,1.45,1.45,0,0,0-1,0l-.6.05a2.6,2.6,0,0,0-1-.15c-.12,0-.12,0-.25-.1a1.74,1.74,0,0,1-.86-.17,4.6,4.6,0,0,1-1.37-.6,1.2,1.2,0,0,1-.64-.43c-.38-.2-.53-.55-.91-.76,0-.12-.27-.34-.29-.58l0-.24a.75.75,0,0,1-.29-.57c-.05-.6-.22-1.19-.27-1.79,0-.12-.14-.22-.13-.11-.35.16-.59.18-.81.44a6.55,6.55,0,0,0-.89.8,2.52,2.52,0,0,1-.68.54c-.22.26-.57.29-.67.54s-.46.28-.68.54l-.68.42a6.83,6.83,0,0,0-1.41,1.81,1.66,1.66,0,0,1-.32.51l-.24,0a1.39,1.39,0,0,1-.78-.65c0-.12-.14-.23-.15-.35l-.05-.6,0-.24c.1-.25.33-.39,1.39-1.93a2.16,2.16,0,0,0,.53-.89l.75-1c.22-.26.2-.49.31-.62l0-.24c-.13-.11-.13-.11-.25-.1h-.12c-.11.13-.22.26-.34.27l-.8.43a3,3,0,0,0-.8.55,1.71,1.71,0,0,0-.8.43c-.24,0-.35.15-.58.3l-.48,0c-.23.14-.47.16-.58.29l-.36,0c-.11,0-.1.13-.23,0h-.12v-.12a1.26,1.26,0,0,1,.69-.3.12.12,0,0,0,.11-.13,1,1,0,0,1,.82-.31c.24,0,.34-.27.57-.29.22-.26.7-.31.8-.56s.11-.13.23-.14a.91.91,0,0,1,.46-.28,1,1,0,0,0,.81-.31.42.42,0,0,0,.23-.14h.12a.91.91,0,0,1-.28-.46c-.13-.11,0-.24,0-.36a.62.62,0,0,1,.45-.28.12.12,0,0,1,.13.11.88.88,0,0,0,.74.18.9.9,0,0,1,.59-.17h.12c.22-.26.45-.4.55-.53a1.54,1.54,0,0,1,.42-.76,6.23,6.23,0,0,0,.75-1,1.66,1.66,0,0,0,.32-.51c0-.12.1-.25.21-.38a14.29,14.29,0,0,1,1.19-1.55c.1-.25.43-.52.53-.77l.42-.76.76-.91s.1-.25.22-.26a1.66,1.66,0,0,0,.45-.4,2.07,2.07,0,0,1,.42-.64,1.82,1.82,0,0,1,.44-.52c.12,0,.11-.13.23-.14a1.43,1.43,0,0,1,.54-.65l.11-.13c.22-.26.32-.51.67-.66s.31-.51.54-.65a.12.12,0,0,0,.11-.13l.33-.39c.11-.13.34-.27.45-.4l.77-.79a.26.26,0,0,1,.22-.26c.35-.15.55-.53.9-.68,0-.12.11-.13.1-.25s.1-.25.22-.26.11-.13.23-.14a5.51,5.51,0,0,0,1.23-1.07,4.27,4.27,0,0,1,1-.58.17.17,0,0,1,.24,0l.24,0a1.25,1.25,0,0,1,1,.4,1.66,1.66,0,0,0,.51.31l0,.24a3.33,3.33,0,0,1,.21,1.07c0,.12,0,.12-.1.25l-.74,1.15a1.66,1.66,0,0,0-.32.51.39.39,0,0,1-.32.39c-.22.26-.32.51-.55.65a1.37,1.37,0,0,0-.54.65.12.12,0,0,0-.11.13c-.35.15-.44.52-.79.67l-.22.26a5.83,5.83,0,0,0-.64.9l-.21.38c0,.11-.11.13-.1.25a1.76,1.76,0,0,0-.44.4l-.76,1c-.11.13-.32.39-.43.51s-.23.15-.33.39l-.32.52c-.11.12-.23.13-.33.27a2.45,2.45,0,0,1-.78.79c-.12,0-.11.13-.22.26l-1,.81a.26.26,0,0,0-.22.26c-.22.26-.56.41-.66.66a.91.91,0,0,1-.46.28,3.82,3.82,0,0,0-1.13.82,3,3,0,0,1-.8.55c-.46.16-.68.42-1.15.58-.11.13-.35.16-.58.3a5.54,5.54,0,0,0-.76.91l-1.62,2.18a.44.44,0,0,0-.09.25h.11a2.62,2.62,0,0,0,.91-.68l1-.81a4.1,4.1,0,0,1,1.13-.82.12.12,0,0,1,.11-.13c.12,0,.35-.15.48,0a.89.89,0,0,0,.5.19c.13.11.13.11.14.23s.27.34.51.32c.49.08.53.56.67.78a2,2,0,0,1,.19.83,1.94,1.94,0,0,0,0,.85c.05.6.43.8.81,1a1.71,1.71,0,0,0,.74.18c.13.11.37.09.62.18a1.49,1.49,0,0,0,.72.06h.12c.24,0,.49.08.73.06a1.53,1.53,0,0,1,.71-.18,1,1,0,0,1,.61.06l.24,0c.47,0,.94-.2,1.42-.24A6.22,6.22,0,0,0,50,74.75l.36,0c.34-.27.71-.18,1.06-.33a1.5,1.5,0,0,0,.7-.19.44.44,0,0,1,.35-.15l.84-.07a.37.37,0,0,0,.23-.14c.33-.27.7-.18,1.05-.33l.24,0c.11-.13.23-.14.47-.17a1.79,1.79,0,0,1,.83-.19,1.52,1.52,0,0,0,.7-.18.9.9,0,0,1,.59-.17.72.72,0,0,0,.47-.16.44.44,0,0,1,.35-.15,1.19,1.19,0,0,0,.58-.18l.36,0a.44.44,0,0,1,.35-.15c.24,0,.35-.15.58-.29a1.31,1.31,0,0,0,.58-.17.44.44,0,0,1,.35-.15c.24,0,.48,0,.59-.18s.59-.17.81-.31A.37.37,0,0,1,63,71c.24,0,.24,0,.34-.27a.23.23,0,0,1,.36,0l.24,0c.13.11.13.11.14.23V71c.12,0,.25.09.49.07,0,0,.24,0,.23-.14l0-.36c0-.11.1-.24.35-.15s.12,0,.11-.13a.44.44,0,0,1,.35-.15h.12c.13.11.25.1.24,0l.47-.16a.11.11,0,0,0,.1-.13l.11-.13c.11-.13.12,0,.24,0l.24,0a.42.42,0,0,1,.25.1c0,.12.13.11.26.22h.12a1.84,1.84,0,0,1,.84-.08c0,.12.12,0,.12,0v-.12c-.12,0-.13-.11,0-.12s.35-.15.45-.28.34-.27.58-.29.23-.14.35-.15A.12.12,0,0,1,70.14,69ZM40,67.44l.24,0,.8-.43c.45-.4,1-.7,1.59-1.11l.9-.8c.12,0,.12,0,.22-.14a7.79,7.79,0,0,0,1-1,8.43,8.43,0,0,0,1-1,.12.12,0,0,1,.11-.13.89.89,0,0,0,.43-.52,19,19,0,0,0,1.29-1.8c.11-.13.23-.14.21-.38a3.19,3.19,0,0,0,.54-.77,12.51,12.51,0,0,0,1.06-1.54l.33-.39a2.16,2.16,0,0,1,.53-.89v-.11h-.12a.91.91,0,0,0-.46.28c-.1.25-.34.27-.45.4a1.43,1.43,0,0,0-.54.65l-.57.41-.11.13a4,4,0,0,0-.9.68,1.66,1.66,0,0,0-.32.51l-.34.27c-.11.13-.22.14-.33.27a3.19,3.19,0,0,1-.54.77,1.56,1.56,0,0,0-.77.79.12.12,0,0,0-.11.13c-.35.15-.45.4-.67.66l-.22.26c-.23,0-.33.27-.44.4s-.1.25-.33.39l-.44.52-.43.52c-.11.13-.23.14-.22.26a4.68,4.68,0,0,1-.85,1.28c0,.12,0,.24-.1.25l-.32.51a1.43,1.43,0,0,0-.54.65Zm31.88.94a.42.42,0,0,1-.23.14h-.12c-.12,0-.26-.21-.27-.33s0-.24.11-.13l.48,0C72,68,72,68.25,71.89,68.38Z" transform="translate(-6.88 -43.91)" fill="#9e895b"/><path d="M98.6,63.88c-.23.14-.45.4-.69.42-.21.26-.57.29-.8.43s-.34.27-.57.41-.35.15-.58.29-.46.17-.57.3l-.58.29c-.11.13-.35.15-.46.28a2.46,2.46,0,0,0-.91.56.44.44,0,0,1-.35.15.91.91,0,0,0-.46.28,1.66,1.66,0,0,1-.81.31c-.12,0-.24,0-.23.14l-.34.27a1.3,1.3,0,0,0-.58.3,1.08,1.08,0,0,0-.58.17c-.23.14-.34.27-.58.29s-.24,0-.23.14a1.67,1.67,0,0,1-.69.3c-.11.13-.35.15-.58.29a2,2,0,0,1-.58.29.44.44,0,0,1-.35.15c-.35,0-.57.3-.93.33-.11.13-.35.15-.46.28a.72.72,0,0,0-.47.16c-.23,0-.46.16-.7.18s-.35.15-.58.29-.47.16-.58.29c-.35,0-.46.17-.7.19s-.11.13-.23.14l-.81.43a2.19,2.19,0,0,0-.81.31l-.24,0c-.36,0-.47.16-.71.18s-.46.29-.7.19a.42.42,0,0,1-.23.14c-.23.14.12,0,0,.12l-.93.44a2.71,2.71,0,0,0-.93.32c-.48,0-.58.29-.94.32s-.59.18-.94.21a.92.92,0,0,0-.58.29c-.36,0-.59.17-.83.19A1,1,0,0,1,73,75l-1.08.09-.48,0a1.57,1.57,0,0,0-.74-.17.37.37,0,0,1-.25-.1c-.12,0-.25-.1-.38-.21A2.59,2.59,0,0,1,68.65,74c0-.12,0-.12-.15-.23s-.13-.23-.15-.35c0-.36-.17-.59-.19-.83l-.07-.83a.9.9,0,0,1,.07-.61c.1-.13.1-.13.09-.25s.08-.49.19-.62a2.9,2.9,0,0,1,.64-1l.32-.39c0-.12.1-.25.21-.38l1-1.17a1.2,1.2,0,0,0,.56-.53h.12c.46-.16.8-.43,1.15-.58a4.37,4.37,0,0,1,.81-.43,1,1,0,0,1,.84,0,6.72,6.72,0,0,1,1,.52,8.33,8.33,0,0,1,1.17,1c.13.11,0,.12,0,.24s-.22.26-.32.39-.24,0-.22.26l.07.83c-.11.13-.19.62-.42.76s-.47,0-.58.18-.35.15-.69.42H74c-.25-.1-.51-.32-.75-.3-.26-.22-.51-.32-.53-.55a.44.44,0,0,1-.15-.35c-.13-.11-.26-.22-.38-.21a.42.42,0,0,1-.23.14,2.39,2.39,0,0,0-1,1.17l-.65.78-.33.39c-.1.25-.33.39-.41.76a.77.77,0,0,0,.06.72.42.42,0,0,0,.14.23,1.57,1.57,0,0,1,.74.17c.12,0,.25.1.48.08l.49.08,1-.09a1.53,1.53,0,0,0,.71-.18l.36,0A.88.88,0,0,0,74,73h.12c.23-.14.36,0,.59-.17a.8.8,0,0,1,.47-.17c.12,0,.23-.14.46-.16s.35-.15.59-.17.35-.15.59-.17.59-.17.82-.31.22-.14.46-.16l.72-.07c.36,0,0-.24.34-.27a1.52,1.52,0,0,1,.7-.18.44.44,0,0,1,.35-.15.72.72,0,0,0,.47-.16l1.4-.49.36,0c.57-.41,1.17-.46,1.61-.86l.24,0a.37.37,0,0,1,.23-.14c.36,0,.59-.17.83-.2a3.53,3.53,0,0,0,.68-.42l.24,0v.12c.13.11.14.23.16.47l-.23,0-.48,0c-.12,0-.23.14-.35.15a.44.44,0,0,1-.35.15c-.24,0-.47.17-.71.19a.89.89,0,0,0-.45.28.42.42,0,0,1-.23.14,3,3,0,0,0-1,.2l-.46.16c-.23.14-.22.26-.33.39a1.71,1.71,0,0,1-.7.3l-.92.45-.36,0-.11.13a.12.12,0,0,0-.11.13h.12c0,.12.13.11.25.1s.34-.27.59-.18l.47,0,.36,0,.34-.27.48,0a.37.37,0,0,0,.23-.14c.12,0,.12,0,.23-.14l.92-.44,1-.46a.92.92,0,0,1,.58-.29c0-.12.11-.13.23-.14a5.22,5.22,0,0,1,.59-.17c0-.12.11-.13.23-.14s.46-.16.44-.4,0-.24.22-.26l.69-.42c.11-.13.11-.13.23-.14s.33-.27.57-.29.35-.16.59-.18a1.71,1.71,0,0,1,.7-.3.11.11,0,0,0,.1-.13.55.55,0,0,1,.6,0h.12c.09-.37.33-.39.56-.53h.12a1.84,1.84,0,0,0,.82-.2c.11-.13.47-.16.58-.29s.24,0,.25.1a.17.17,0,0,0,.24,0c.12,0,.12,0,.23-.14h.12c0-.12,0-.12-.13-.11a.17.17,0,0,1,0-.24c.12,0,.11-.13.23-.14s.22-.14.34-.15l.34-.27c.23-.14.35-.15.46-.28a.63.63,0,0,0,.46-.28,2.41,2.41,0,0,1,.8-.43h.12c.23-.14.34-.27.58-.29a.8.8,0,0,0,.47-.17l.71-.06c.12,0,.11-.13.23-.14C98.33,63.54,98.58,63.64,98.6,63.88ZM73.1,68.4a.63.63,0,0,0-.46.28l.26.22,1.2-.11c.11,0,.23,0,.22-.14a2.63,2.63,0,0,0,.56-.53c.11-.13.11-.13,0-.24s-.11.13-.23.14l-.24,0a.12.12,0,0,0-.13-.11c0-.12,0-.12-.13-.1S74,68,73.9,68Zm15.68.31v-.12c-.12,0-.23.14-.35.15a1.59,1.59,0,0,1-.7.19c-.24,0-.35.15-.45.4l-.24,0a.12.12,0,0,0,.13.11.12.12,0,0,0,.11-.13l.6-.06c.22-.26.47-.16.69-.42C88.67,68.84,88.66,68.72,88.78,68.71Z" transform="translate(-6.88 -43.91)" fill="#9e895b"/><path d="M100.18,72.29l-.48,0a.72.72,0,0,1-.49-.07c-.25-.1-.49-.08-.74-.18a3.14,3.14,0,0,1-1.55-1.19c-.13-.11-.14-.23-.25-.22l0-.24L96.52,69a1.74,1.74,0,0,1,.16-.86c0-.24.21-.38.19-.62a.12.12,0,0,1,.11-.13c.1-.25.33-.39.31-.63s.32-.39.42-.64.1-.25.21-.38.45-.4.55-.65.2-.38.31-.51l1-1.16V63.3h-.12a.62.62,0,0,0-.45.28l-.81.43c-.12,0-.35.15-.47.16s-.36,0-.46.16-.48,0-.6,0c-.47.16-.75-.29-1-.63s-.16-.47-.29-.58a1.36,1.36,0,0,1-.09-1l.63-1.14a1,1,0,0,1,.43-.52l.45-.4c.11-.13.11-.13.24,0s.49.07.74.17l.38.21c.26.22.27.34.17.59l-.42.76a3.11,3.11,0,0,0-.3.63c.24,0,.47-.17.7-.19l.36,0,.24,0c.34-.27.83-.19,1.31-.23l.24,0c.23,0,.47-.05.6.06a1.61,1.61,0,0,1,.92.89l0,.24a.42.42,0,0,1-.1.25c0,.11-.11.13-.1.25-.35.15-.31.62-.65.89l-.86,1.16a1.66,1.66,0,0,0-.75,1c-.23.14-.33.39-.56.53a1.49,1.49,0,0,0-.31.51l-.42.76a3.9,3.9,0,0,1-.39,1,.42.42,0,0,0-.1.25l0,.24a.73.73,0,0,0,.42.69c.12,0,.13.1.25.09s.49.08.85,0l.71-.06.72-.07.24,0a3.33,3.33,0,0,1,1.07-.21c.11,0,.22-.14.34-.15s.36,0,.59-.17a.72.72,0,0,1,.47-.16,3.28,3.28,0,0,1,1.17-.35,3.33,3.33,0,0,1,1.07-.21.44.44,0,0,0,.35-.15c.35,0,.69-.3,1-.34s.7-.3,1.07-.21a4.21,4.21,0,0,1,1.17-.34c.35-.15.71-.19.94-.33l.36,0c.47,0,.81-.31,1.29-.35a2,2,0,0,1,.83-.19,1.9,1.9,0,0,0,.82-.2c0-.12.11-.13.23-.14.49.08.83-.19,1.3-.35.11,0,.22-.14.34-.15l.48,0c.11-.13.23-.14.47-.17a2,2,0,0,0,.83-.19c0-.12.1-.13.22-.14a.74.74,0,0,0,.82-.31h.12c.12,0,.13.11.12,0l.24,0c.23-.14.59-.06.7-.19a.77.77,0,0,1,.72-.06.17.17,0,0,0,.24,0c.11-.13.1-.25.22-.26a1.62,1.62,0,0,0,.69-.3l.48,0c.24,0,.47-.16.71-.18a1,1,0,0,0,.58-.3c.12,0,.23-.14.35-.15.35,0,.58-.17.82-.19s.24,0,.25.1a.12.12,0,0,1-.11.13.26.26,0,0,0,.26.22.86.86,0,0,0,.7-.31.89.89,0,0,1,.58-.17.72.72,0,0,0,.47-.16l.24,0c.23-.14.48,0,.59-.17s.71-.18.93-.32a4.2,4.2,0,0,1,1.05-.46l.92-.44h.12a.37.37,0,0,1,.14.23c-.11.13-.22.14-.21.26h-.12c-.24,0-.47.16-.71.18l-.93.44c-.23,0-.57.3-.93.33a.42.42,0,0,1-.23.14.92.92,0,0,1-.58.29.41.41,0,0,0-.34.15c-.11.13-.35.15-.46.28s-.35.15-.48,0l-.13-.11c-.13-.1-.25-.09-.48,0s-.11.13-.1.25.13.1,0,.11-.46.17-.69.31-.47.16-.7.3-.11.13-.23.14a1.71,1.71,0,0,0-.82.19c-.23.14-.47.16-.7.3a11.73,11.73,0,0,0-1.88.53l-1.64.5a5.91,5.91,0,0,1-1.41.49.12.12,0,0,1-.11.13,2.94,2.94,0,0,0-.94.2,2.83,2.83,0,0,0-.94.32c-.36,0-.58.18-.94.21s-.58.29-.94.32-.7.18-1.17.34c-.23.14-.6.06-.95.21s-.59.17-.81.31c-.48,0-.82.31-1.3.35s-.69.31-1.06.22a1.74,1.74,0,0,1-.82.31,1.09,1.09,0,0,1-.59.17,1.49,1.49,0,0,0-.7.18h-.12c-.24,0-.48,0-.59.18a5.22,5.22,0,0,0-.59.17.9.9,0,0,0-.59.17l-.35,0c-.11.13-.24,0-.35.15a1.53,1.53,0,0,1-.71.18,1.83,1.83,0,0,0-.82.2C100.91,72.35,100.56,72.5,100.18,72.29Z" transform="translate(-6.88 -43.91)" fill="#9e895b"/><path d="M160.53,59.91c.24,0,.35-.16.59-.18v.12c.13.11.25.1.48.08s.12,0,.13.11,0,.24.14.11.11,0,.22-.14l.13.11c.12,0,.13.11,0,.24s-.32.39-.56.41-.23.14-.47.16a.63.63,0,0,1-.46.28.85.85,0,0,0-.45.28,5.22,5.22,0,0,1-.59.17c-.23.14-.47.16-.7.3l-.22.26c-.08.37-.44.4-.8.44-.12,0-.23.14-.35.15a1,1,0,0,1-.69.42l-.23,0a4.31,4.31,0,0,1-1.28.59,5.56,5.56,0,0,0-1.14.7c-.24,0-.46.29-.82.32s-.45.28-.69.3a1.09,1.09,0,0,1-.59.17.44.44,0,0,1-.35.15,12.8,12.8,0,0,0-1.27.6,3.83,3.83,0,0,0-1.05.45.7.7,0,0,1-.46.16,2,2,0,0,1-.58.29c-.24,0-.35.15-.59.17h-.12a2,2,0,0,1-1,.46,3.72,3.72,0,0,1-.94.32.44.44,0,0,1-.35.15c-.23,0-.34.15-.58.17a1.09,1.09,0,0,0-.59.17l-.24,0c-.24,0-.35.15-.59.18l-.47,0h-.12a1.09,1.09,0,0,1-.59.17,2,2,0,0,0-.83.19l-.36,0c-.84,0-1.8,0-2.77,0l-.24,0c-.25-.22-.48-.08-.85-.17l-.75-.3c-.12,0-.38-.2-.62-.18a.12.12,0,0,1-.13-.11,3.19,3.19,0,0,0-.77-.54,5.28,5.28,0,0,1-.81-1,2.23,2.23,0,0,0-.31-.82.16.16,0,0,1,0-.23c-.13-.11,0-.36-.16-.47a1.42,1.42,0,0,1,0-1.21.12.12,0,0,0-.13-.11,1.09,1.09,0,0,0-.59.17c-.11.13-.33.39-.44.4l-.34.28a6.93,6.93,0,0,1-1.33,1.32.94.94,0,0,0-.44.52l-.34.27c-.21.26-.32.39-.56.41s-.34.27-.46.28-.48,0-.72.06l-.13-.11a1.7,1.7,0,0,1-.31-.81l0-.36a1.41,1.41,0,0,1,.27-1l.32-.51a3.19,3.19,0,0,0,.54-.77,2.94,2.94,0,0,1,.66-.66l.22-.26a2.94,2.94,0,0,0,.66-.66c.23-.14,1-.93,1.24-1.07l.79-.55a6.27,6.27,0,0,0,1.16-.47l.24,0c.23-.14.36,0,.61.07l1.14.62a.91.91,0,0,1,.28.46c.13.11.13.11.14.23a2.23,2.23,0,0,1,0,.85c0,.24,0,.36-.08.49s-.22.26-.21.38l-.32.5a2.33,2.33,0,0,0-.33,1.72,1,1,0,0,0,.3.7c0,.12,0,.24.14.23a4,4,0,0,0,1.25.49.37.37,0,0,1,.25.1,1.66,1.66,0,0,1,.73,0,.44.44,0,0,0,.37.09c.95-.08,1.92-.05,2.76-.12l.48,0c.22-.14.47,0,.7-.18a1.09,1.09,0,0,1,.59-.17l.36,0c.12,0,.35-.15.47-.16a.22.22,0,0,0,.35,0c.23-.14.48,0,.59-.17a.9.9,0,0,0,.59-.17,2.06,2.06,0,0,0,.83-.2c.1-.13.34-.15.57-.29s.47-.16.71-.18a5.22,5.22,0,0,1,.59-.17c.22-.14.46-.16.69-.3s.36,0,.59-.18l.48,0,0,.24h.12c.24,0,.35-.15.58-.29l0-.12h-.12a.34.34,0,0,0-.24-.1l0-.12c.35-.15.71-.18.94-.32s.24,0,.35-.15a2.78,2.78,0,0,1,.93-.32c.11-.13.35-.15.59-.18s.23-.14.35-.15c.36,0,.59-.17,1-.2l.68-.42a1.74,1.74,0,0,0,.82-.31.44.44,0,0,1,.35-.15c.23,0,.35,0,.46-.16s.11-.13.23-.15.35-.15.58-.29l.24,0a1.07,1.07,0,0,0,.8-.43l.48,0c-.11.13-.22.26-.21.38a.12.12,0,0,0-.11.13v.12s.13.11.12,0a.94.94,0,0,0,.44-.52.37.37,0,0,0-.25-.1c0-.12.11-.13.23-.14l.24,0a.44.44,0,0,1,.15.35c.13.1.13.1.25.09a3.42,3.42,0,0,1,.66-.66c.12,0,.12,0,0-.12s-.13-.1,0-.24l.81-.43L161,60c-.24,0-.35.15-.48.05Zm-5.62,3.26c-.12,0-.11.13-.23.14s-.11.13-.36,0h-.12c-.22.14-.46.16-.68.42-.12,0,0,.12,0,.12a.12.12,0,0,0,.13.11.12.12,0,0,1,.11-.13c.23-.14.34-.27.57-.29s.24,0,.36,0a.26.26,0,0,0,.22-.26Z" transform="translate(-6.88 -43.91)" fill="#9e895b"/><path d="M156.08,75.11l-.39-.33,0-.36.59-1.49c.32-.51.5-1.13.81-1.76a2.61,2.61,0,0,0,.51-1,1,1,0,0,1,.3-.75,6.51,6.51,0,0,0,1-2.25,2.28,2.28,0,0,1,.41-.76l.65-.9c.2-.38.3-.63.51-1a7.64,7.64,0,0,1,.93-1.77l.32-.51c.28-.87.93-1.65,1.22-2.51.11-.13.34-.27.32-.51a2.48,2.48,0,0,1,.41-.76l.32-.51a1.66,1.66,0,0,0,.32-.51c.1-.13.2-.38.44-.4a1.9,1.9,0,0,1,.87.28c.14.23.4.45.31.82l.09,1a.91.91,0,0,1-.19.61l-.22.26a7.64,7.64,0,0,1-.93,1.77c-.31.51-.5,1.13-.81,1.76-.22.26-.3.63-.64.9-.12,0-.11.13-.22.26-.19.62-.74,1.15-.93,1.77a2.61,2.61,0,0,1-.74,1.15c-.22.26-.32.5-.43.64s-.09.36,0,.35.24,0,.23-.14a8.44,8.44,0,0,1,.86-1.16c.12,0,.11-.13.22-.26a1.45,1.45,0,0,0,.55-.65c.1-.25.33-.39.54-.65s.57-.41.66-.78c0-.12.22-.26.33-.39A7.88,7.88,0,0,0,165.5,63l.77-.79a6,6,0,0,1,.88-.92,5.39,5.39,0,0,1,1-1.29c.22-.26.45-.4.55-.65A14.38,14.38,0,0,1,170,57.87c.24,0,.46-.28.56-.41a8.45,8.45,0,0,1,1-.81c.32-.39.93-.32,1.42-.24a1.31,1.31,0,0,1,1,.75c0,.24.16.47.19.82l0,.24a2.14,2.14,0,0,1-.38,1.24c-.1.25-.33.39-.42.64l-.33.39c-.24,0-.46.28-.57.41a.42.42,0,0,1-.1.25,4.18,4.18,0,0,0-.9.68,2.16,2.16,0,0,1-.79.67c-.34.16-.43.52-.78.67-.12,0-.23.14-.11.13s0,.12.13.11a1.45,1.45,0,0,1,1,.16.72.72,0,0,0,.49.08,8.31,8.31,0,0,1,1.8,0c.6,0,1.21,0,1.8,0l.48,0a2.6,2.6,0,0,1,1.31-.23c.36,0,.72.05.94-.21l.24,0c.36,0,.85,0,1.19-.22l.71-.06.48,0c.34-.27.83-.19,1.18-.34s.93-.32,1.41-.37a3.72,3.72,0,0,0,.94-.32,8,8,0,0,0,1.51-.61,12.37,12.37,0,0,0,2-.54l1.87-.64a20.55,20.55,0,0,0,2.33-.93c.23-.14.58-.17.81-.31a1.71,1.71,0,0,1,.7-.3l.12,0a13.44,13.44,0,0,1,1.5-.73c.47-.16.93-.44,1.39-.6a2.53,2.53,0,0,1,1.28-.59c.12,0,.22-.15.33-.28.36,0,.45-.4.81-.43s.58-.29.92-.44l.81-.43c.12,0,.24,0,.25.1s-.11.13-.1.25h-.12c-.58.29-1.13.82-1.83,1.12a8.61,8.61,0,0,1-1.49.85,3.81,3.81,0,0,1-1.16.47.42.42,0,0,1-.23.14c-.35.15-.44.52-.8.55a1.7,1.7,0,0,0-.81.31l-.81.43a2.38,2.38,0,0,0-.91.56,6.88,6.88,0,0,1-1.39.73,6.45,6.45,0,0,0-1.4.48,8.83,8.83,0,0,1-1.63.63l-1.28.47a3.52,3.52,0,0,0-1.06.33l-1.16.47a3.52,3.52,0,0,0-1.06.33,3.36,3.36,0,0,1-1.53.38,1.3,1.3,0,0,1-.94.32c-.24,0-.46.16-.7.18-.61-.07-1.18.34-1.78.28-.45.4-1.08.09-1.53.49l-.72.06c-.35,0-.6-.06-.83.08a.17.17,0,0,1-.24,0,1.53,1.53,0,0,0-.73-.06l-4.33,0a2,2,0,0,1-1.22-.14c-.25-.09-.61-.06-.87-.28l-.36,0c-.35,0-.6-.07-.84,0a1.69,1.69,0,0,1-.74-.17.72.72,0,0,0-.47.16l-.63,1c-.11.13-.1.25-.21.38a7.16,7.16,0,0,0-.87,1c0,.12-.1.25-.21.38s-.57.41-.66.78c0,.12-.21.26-.32.39l-.66.78c0,.12,0,.24-.1.25-.56.41-.74,1.15-1.3,1.56a5.11,5.11,0,0,1-1.19,1.55c-.33.39-.79.67-1,1.17L157,75.15A1,1,0,0,1,156.08,75.11Zm13-14.26a2.52,2.52,0,0,0,.68-.54,2.87,2.87,0,0,0,.79-.56c.44-.52,1-1,1.55-1.58a3,3,0,0,0,.41-.88l-.13-.1c-.11.13-.35.15-.46.28l-.57.41a2.54,2.54,0,0,0-.56.41,17.36,17.36,0,0,0-2,2.22,2.26,2.26,0,0,0-.42.64.12.12,0,0,0,.13.11C168.72,61.24,168.8,60.87,169,60.85Z" transform="translate(-6.88 -43.91)" fill="#9e895b"/><path d="M222.16,55.24a3,3,0,0,0-.8.55A22.19,22.19,0,0,1,218.93,57c-.93.33-1.61.87-2.42,1.18-.34.27-.94.32-1.27.71-.12,0-.22.14-.34.15a15.82,15.82,0,0,0-1.51.74,5.85,5.85,0,0,1-1.41.36l-1.16.46a6.61,6.61,0,0,0-1.42.37,5.16,5.16,0,0,0-1.29.35c-.47.16-1.07.22-1.53.38a4.52,4.52,0,0,0-1.31.23,4,4,0,0,1-1.18.23.12.12,0,0,1-.11.13l-.85,0c-.24,0-.47.16-.71.18l-.35,0-.36,0a19.31,19.31,0,0,1-2.52.1c-.12,0-.24,0-.25-.1l-1.11-.27s-.74-.17-.9-.64a2,2,0,0,1-.29-.58c-.13-.11-.13-.11-.14-.23l0-.24a1.15,1.15,0,0,1,.06-.6c.09-.37.06-.73.28-1s.31-.63.64-.9c.1-.25.33-.39.43-.64a3.22,3.22,0,0,1,.75-1c0-.12.1-.25.32-.51l.22-.26c-.12,0,.3-.63.86-1.16-.12,0,0-.12.1-.25s.32-.39.42-.64h.12c.12,0,.25.1.37.09s.13.11.14.23.14.23.26.22a1.35,1.35,0,0,0,.45.92l0,.24c-.11.13-.09.37-.32.51s-.1.25-.45.4a3.74,3.74,0,0,0-.78.67c0,.12-.1.25-.21.38H200c-.1.25-.22.26-.21.38s-.1.25-.21.26a1.82,1.82,0,0,1-.44.52c-.11.13-.22.26-.1.25a1.66,1.66,0,0,0-.32.51c-.11.13-.22.26-.33.27l-.63,1.14c.4.45,1.73.45,2.22.53l.24,0c.45-.28,1-.09,1.41-.37l.24,0a4.78,4.78,0,0,0,1.31-.11c.36,0,.59-.18.95-.21a2.35,2.35,0,0,0,.83-.19,2,2,0,0,0,.82-.19l.36,0c.47-.16.83-.2,1.29-.36a3,3,0,0,0,.95-.2c.24,0,.47-.16.71-.18L210,59a9.66,9.66,0,0,0,1.75-.63l.36,0c.49.08.71-.19,1.19-.23l.24,0a1.28,1.28,0,0,1,.8-.43,3.52,3.52,0,0,1,1.06-.33c.12,0,.23-.14.35-.15a1.47,1.47,0,0,1,1-.46l1.16-.46a27.93,27.93,0,0,1,3.24-1.61c.12,0,.13.11.25.1s.12,0,0,.12v.12l.24,0h.12c.22-.14.57-.29.8-.43s1.58-1.23,2.06-1.27C224.91,53.67,222.73,55,222.16,55.24ZM198.07,47a17.68,17.68,0,0,1,1.28-1.8,2.11,2.11,0,0,0,.43-.64,1.82,1.82,0,0,1,.44-.52h.11c.13,0,.24,0,.25.09a.39.39,0,0,1,.25.1c0,.12.14.23.16.35l.44.93c.12,0,0,.12,0,.12s-.09.36-.2.49-1,.7-1.24,1h-.12C199.46,47.83,197.62,47.39,198.07,47Z" transform="translate(-6.88 -43.91)" fill="#9e895b"/><path d="M249.25,53.83a.66.66,0,0,1-.69.3c-.12,0-.23.14-.35.15s-.34.27-.58.29-.22.14-.46.16l-.24,0v.12a1,1,0,0,1-.44.52h-.12l0-.24.11-.13c.12,0,.12,0,.23-.14h-.12c-.23.14-.47.16-.7.3h-.12c.12,0,.12,0,.13.11h-.12v-.12c-.12,0-.12,0-.11.13a1.06,1.06,0,0,1-.8.43c-.13-.11-.36,0-.48,0l-.34.27-.11.13a.12.12,0,0,0-.13-.11h-.12l-.12,0v.11c-.11,0-.11,0-.13-.1-.1.13-.34.15-.57.29a.26.26,0,0,1-.22.26.44.44,0,0,1-.37-.09h-.12c-.12,0-.35.15-.47.16a.11.11,0,0,1-.1.13h-.12c-.24,0-.35.15-.59.17a1.74,1.74,0,0,1-.82.31c-.24,0-.47.17-.7.19a1.09,1.09,0,0,1-.59.17.44.44,0,0,0-.35.15c-.47.16-.95.2-1.41.36s-.7.31-1.06.34a.72.72,0,0,1-.47.16,1.25,1.25,0,0,1-.58.17,5.22,5.22,0,0,0-.59.17l-.24,0a3.54,3.54,0,0,1-1.06.34,2.56,2.56,0,0,1-.94.2.44.44,0,0,1-.35.15c-.25-.1-.36,0-.6,0l-.59.06c0,.11-.11.13-.23.14s-.36,0-.6,0l-.48,0h-.12l-.6,0a1,1,0,0,0-.83.08l-.36,0a20.4,20.4,0,0,0-2.67-.25c-.13-.11-.13-.11-.25-.1s-.11.13-.1.25c-.08.49-.42.76-.74,1.15l-.81.43-.24,0-1.31.12a1,1,0,0,1-.85-.05l-.62-.19a2.22,2.22,0,0,1-.86-.16,1.7,1.7,0,0,0-.73-.18c-.12,0-.13-.11-.25-.1s-.26-.22-.28-.33c-.24-.1-.38-.33-.75-.42a1.68,1.68,0,0,1-.7-1l0-.24c-.26-.22-.16-.47.07-.61v-.12h-.12c0-.24.57-.41.57-.41l.13.11,1.19-.11a.72.72,0,0,0,.47-.16l.24,0a.72.72,0,0,0,.49.08l1.55-.14,1.44-.12a.87.87,0,0,0,.58-.17c.11-.13.24,0,.35-.16l.11-.13-.07-.83A.72.72,0,0,0,223,56l0-.24a.44.44,0,0,0,.09-.37l-.06-.71a2.35,2.35,0,0,1,0-1,.11.11,0,0,0,.1-.13c-.11,0-.12-.11-.12-.11-.24,0-.17-.47-.05-.48s0-.12.11-.13a2.63,2.63,0,0,1,.56-.53l.54-.65a5.24,5.24,0,0,1,.78-.79c.12,0,.12,0,.11-.13a4.33,4.33,0,0,1,1.6-1l.48,0a.39.39,0,0,1,.36.08c.14.23.39.33.66.55a.88.88,0,0,1,.3.7c0,.23,0,.35-.08.48s-.34.27-.58.3a.12.12,0,0,0-.11.13c-.23.14-.33.27-.57.29l-.57.41c-.11.13-.23.14-.46.28a1.76,1.76,0,0,1-.44.4,7.27,7.27,0,0,0-.88,1,1.34,1.34,0,0,0-.28.87,1.09,1.09,0,0,1-.07.61l0,.23c0,.12.14.23.15.35s-.09.37-.08.49l0,.24.13.11.08,1c1,0,1.7.21,2.67.24l.48,0c.23-.14.48,0,.72-.06s.35,0,.59,0l.24,0a.55.55,0,0,1,.6-.06l.36,0c.11-.13.36,0,.59-.17l.59,0a1.53,1.53,0,0,0,.71-.18,1.67,1.67,0,0,0,.71-.19c.24,0,.47-.16.7-.18s.35-.15.6,0a1.53,1.53,0,0,1,.71-.18c.23-.14.48,0,.71-.19l.35,0,0,.24.13.11a.92.92,0,0,0,.57-.29h.12l-.13-.11c-.12,0-.25-.1-.37-.09a.12.12,0,0,0,.11-.13,3,3,0,0,1,.95-.2c.11-.13.24,0,.35-.15.35,0,.58-.17.94-.21s.48,0,.71-.18l.24,0a2.3,2.3,0,0,0,.94-.2l.83-.19c.23-.14.59-.18.82-.32a.22.22,0,0,1,.35,0c.24,0,.35-.15.47-.16s.11-.13.23-.14a5.22,5.22,0,0,0,.59-.17.42.42,0,0,0,.23-.14,1.29,1.29,0,0,0,.94-.21l.36,0c.11-.13.11-.13.23-.14l.36,0a.72.72,0,0,0,.16.47s.13.11.12,0l.67-.54h.12c.12,0,.12,0,0-.12s-.13-.11,0-.12l.81-.43a.12.12,0,0,0,.11-.13l-.36,0a.12.12,0,0,1-.13-.11,1.53,1.53,0,0,1,.71-.18l-.11.13a.12.12,0,0,0,.13.11c.12,0,.25.09.36,0s.24.1.14.23,0,.12.13.11.23,0,.22-.14a.12.12,0,0,1,.13.11C249.35,53.58,249.36,53.7,249.25,53.83Zm-26.85,5.6h-.12l-.48,0c-.13-.11-.23,0-.47,0s-.25-.09-.36,0l-.24,0-.36,0c-.13-.11-.25-.1-.47.16v.12H220c.37.09.84-.07,1.22.13l.24,0c.22-.26.59-.17.8-.43A.12.12,0,0,0,222.4,59.43Z" transform="translate(-6.88 -43.91)" fill="#9e895b"/><path d="M284.2,49.81a3.61,3.61,0,0,0-1.16.58c-.35.15-.69.3-3.74,1.29C278,52,277,52.61,275.68,53c-.58.29-1.41.37-1.86.77l-.47.16a14.79,14.79,0,0,0-2.22.8,12.94,12.94,0,0,1-2.13.42l-1.88.53a10.89,10.89,0,0,0-2,.42,11.68,11.68,0,0,0-1.89.4c-.71.18-1.67.27-2.37.45a9.48,9.48,0,0,0-1.9.29,8.53,8.53,0,0,1-1.67.26.37.37,0,0,1-.23.14h-1.2c-.36,0-.71.18-1.19.22l-.36,0-.59.06a19.31,19.31,0,0,1-2.52.1c-.12,0-.24,0-.25-.1l-1.11-.27c.12,0-.74-.17-.78-.65a2.63,2.63,0,0,0-.41-.57c-.13-.11-.13-.11-.14-.23l0-.23a1.17,1.17,0,0,1,.06-.61c.09-.37.06-.73.28-1s.3-.63.64-.9c.1-.25.33-.39.43-.64a.26.26,0,0,1,.22-.26c0-.12.1-.25.2-.38a4.15,4.15,0,0,1,.87-1.16c.11-.13.09-.37.19-.5s0-.12,0-.12l-1.55.14-.24,0a1.53,1.53,0,0,1-.71.18l-1,.09a.44.44,0,0,0-.35.15l-.36,0a.37.37,0,0,1-.23.14,13.85,13.85,0,0,0-1.26.71l-.36,0a.44.44,0,0,1-.37-.09c-.25-.09-.39-.32-.54-.67l0-.36c.1-.25.21-.38.2-.5.22-.14.33-.27.57-.29l.48,0,.48,0,.24,0a3.29,3.29,0,0,1,1.54-.25,1.09,1.09,0,0,0,.59-.17.72.72,0,0,1,.47-.16l2.87-.25.47-.05c.12,0,.24,0,.23-.14a2.81,2.81,0,0,0,.77-.91c.12,0,.11-.13.21-.26a.94.94,0,0,0,.44-.52l.33-.39a9.16,9.16,0,0,1,1.42-1.69l.3-.63.44-.52h.12A.44.44,0,0,1,257,44l.13.11c.13.11.14.23.27.34l.44.92v.12a1.6,1.6,0,0,1-.31.63c-.22.14-.31.51-.66.66a.12.12,0,0,0-.11.13l-.21.38c-.12,0-.23.14-.35.15-.09.25-.32.39-.43.52l-.31.63v.12h.12l5-.44a.44.44,0,0,1,.37.09c.24,0,.49.08.73.06l.72-.07h.12c0,.12-.11.13-.1.25h-.12a.49.49,0,0,1-.35.16l-1.2.1c-.12,0-.12,0-.22.14a.26.26,0,0,1-.22.26l-5.5.48-.24,0a.44.44,0,0,0-.35.15,1,1,0,0,1-.43.52,3.66,3.66,0,0,0-.88,1c0,.12-.1.25-.21.38h-.11c-.09.37-.44.52-.53.89-.11.13-.1.25-.22.26a1.8,1.8,0,0,1-.43.52,14761873296201.36,14761873296201.36,0,0,1-.64,1c-.11.13-.22.26-.34.27L249.8,56v.12a7.29,7.29,0,0,0,2.21.41l.24,0c.45-.28.83-.08,1.53-.38l.36,0a9.36,9.36,0,0,0,1.91-.17c.48,0,.95-.2,1.42-.24a3.1,3.1,0,0,0,1.07-.22,4.38,4.38,0,0,0,1.3-.23l.6,0c.59-.17,1.31-.24,1.89-.41a4.94,4.94,0,0,0,1.31-.23c.36,0,.7-.18,1.06-.22s.83-.19,1.43-.24a19,19,0,0,0,2.47-.7l.47,0a9.13,9.13,0,0,0,1.79-.28l.35,0a2.43,2.43,0,0,1,1.29-.47,6,6,0,0,1,1.53-.38l.47-.16a3.29,3.29,0,0,1,1.52-.49l1.76-.52c.7-.3,4.08-1.56,4.91-1.75.12,0,.25.1.37.09s.12,0,0,.11v.12l.36,0h.12c.35-.15.81-.31,1.16-.46C285.32,48.87,285,49.5,284.2,49.81Z" transform="translate(-6.88 -43.91)" fill="#9e895b"/></g></g></svg>