<svg xmlns="http://www.w3.org/2000/svg" viewBox="0 0 462.66 54.19"><g id="レイヤー_2" data-name="レイヤー 2"><g id="レイヤー_1-2" data-name="レイヤー 1"><path d="M8.33,101.54a1.82,1.82,0,0,0-.52-.44.26.26,0,0,1-.26-.22.41.41,0,0,1-.15-.34c-.25-.1-.27-.34-.3-.7A.58.58,0,0,1,7,99a2,2,0,0,0,.13-1.21l.29-.87c0-.12.09-.25.08-.37a1.94,1.94,0,0,1,.27-1.11.12.12,0,0,1,.11-.13,1.85,1.85,0,0,1,.16-.85c0-.24.09-.37.19-.62a1.71,1.71,0,0,1,.18-.74,2.19,2.19,0,0,1,.29-.75c0-.24.21-.38.18-.74A.12.12,0,0,1,9,91.48c.09-.37.29-.75.38-1.12a10,10,0,0,1,.39-1.11c.1-.25.2-.38.19-.5s0-.24.1-.25c.22-.26.2-.5.42-.76a8,8,0,0,1,.59-1.5,2.28,2.28,0,0,0,.41-.76,3.61,3.61,0,0,1,.4-1l.31-.62a2.71,2.71,0,0,0,.41-.76c0-.12,1.12-2.39,1.11-2.51a3,3,0,0,0,.63-1,2.25,2.25,0,0,1,.52-.89c0-.12.1-.25.09-.37a5.24,5.24,0,0,1,.65-.9,6.6,6.6,0,0,1,.51-1,3.91,3.91,0,0,1,.74-1.15c.22-.26.19-.62.42-.76a2.63,2.63,0,0,1,.31-.63l0-.12c-.12-.11-.12-.11-.23,0a2.35,2.35,0,0,1-1,.2.57.57,0,0,0-.71.19c-.37-.09-.69.3-1.18.22-.12,0-.34.27-.46.28a1.09,1.09,0,0,0-.59.17h-.12l-.59.06c-.23.14-.34.27-.59.17s-.23.14-.35.15-.47.16-.69.3-.48,0-.7.3l-.24,0a.94.94,0,0,0-.94.33.77.77,0,0,1-.93.32l-.13-.11c-.13-.11-.15-.35-.29-.58v-.12a1.3,1.3,0,0,1,0-1.32,4.92,4.92,0,0,1,.85-1.28c.12,0,.11-.13.23-.14.36,0,.58-.29.93-.44s.45-.29.7-.19a1.45,1.45,0,0,1,.94-.32c.23-.14.47-.16.7-.3s.22-.14.34-.15a2.51,2.51,0,0,0,1.31-.24l.6,0,.59,0c0-.12.11-.13.23-.14L16,71l.36,0a.44.44,0,0,1,.35-.15l.95-.08a1.31,1.31,0,0,0,.59-.17l.36,0,.95-.09a.44.44,0,0,0,.35-.15,18.67,18.67,0,0,0,1.94-2.7c.22-.14-1,.58.27-1a1.25,1.25,0,0,1,.56-.53l.21-.26c.22-.25.44-.52.66-.78s.22-.26.34-.27c.34-.15.55-.53.78-.67a1.6,1.6,0,0,1,.57-.41c.34-.15.56-.41.91-.56l.24,0c.26.22.51.32.65.55s.38.2.62.18.26.22.38.21.13.11.26.22a1.25,1.25,0,0,1,.2.94.42.42,0,0,1-.1.25,7.35,7.35,0,0,1-1.38.73c-.35.15-.59.17-.68.42-1,.81-2,1.5-2.94,2.3l-.42.64v.12c-.12,0-.11.13,0,.12s0,.12.13.11a.12.12,0,0,0,.13.11l.48,0,.48,0,.23,0a1.11,1.11,0,0,1,.83-.19l9-.42c.48,0,.85,0,1.32,0,.12,0,.23-.14.35-.15a.23.23,0,0,1,.36,0,1.68,1.68,0,0,0,.85,0c1.44,0,2.89,0,4.32-.13a5.57,5.57,0,0,1,1.46.11c0,.12.13.11.14.23l.06.72c.14.22.16.46.3.69a.74.74,0,0,1,.08.84c0,.12,0,.12-.11.13s-.45.4-.82.31-.59.17-.85,0a3.27,3.27,0,0,0-1.08,0,26,26,0,0,0-3.12.15c-.25-.1-.6,0-1-.15a.44.44,0,0,1-.37-.09,2.89,2.89,0,0,0-.94.2l-.48,0a.4.4,0,0,0-.37-.08,20.27,20.27,0,0,0-2.76.12l-.72.06c0,.12-.12,0-.24,0a5.86,5.86,0,0,0-1.56,0,.37.37,0,0,0-.23.14c-.11.13-.36,0-.6,0s-.51-.32-.85,0a3.2,3.2,0,0,1-1.07.1l-1,.08-.83.07c-.12,0-.25-.09-.24,0a3,3,0,0,1-1.43.24l-.24,0a.87.87,0,0,1-.58.17l-.84.08c-.37-.09-.59.17-.95.2a.25.25,0,0,0-.21.26l-.33.39a7.92,7.92,0,0,1-.73,1.27c-.23.14-.32.51-.43.64s-.45.4-.42.64c-.33.39-.41.88-.74,1.26a10,10,0,0,0-.84,1.4l-2,3.79c0,.12-.11.13-.09.25a2,2,0,0,1-.3.75l-.32.51c-.11.13-.11.13-.1.25l-.92,1.88a39.61,39.61,0,0,0-1.81,4,1.72,1.72,0,0,0-.17.85c-.1.25-.32.51-.29.75a.42.42,0,0,1-.1.25c-.09.37-.31.63-.4,1l-.27,1c-.12,0-.11.13-.1.25a1.71,1.71,0,0,1-.18.74,1.65,1.65,0,0,0-.17.73c0,.24-.09.37-.19.62a1.74,1.74,0,0,0-.17.86c0,.24.16.35.4.45a.12.12,0,0,1,.13.11l.24,0a1.68,1.68,0,0,1,.24,1.3,3,3,0,0,1-.41.88,1.21,1.21,0,0,1-.66.66,1.66,1.66,0,0,1-.45.4Zm10.75-30c0-.12.11-.13.1-.25s.12,0,.11-.13h-.12a1.79,1.79,0,0,0-.85,0c-.24,0-.73-.05-1.06.22-.11.13-.12,0-.24,0l-.72.06-.11.13a.12.12,0,0,1,.13.11c.24,0,.37.09.62.19a.12.12,0,0,0,.13.11.44.44,0,0,1,.35-.15.62.62,0,0,0,.38.2l.48,0C18.64,72.09,18.86,71.83,19.08,71.57Zm22.75-1.51c0-.12.11-.13.22-.26s.11-.13,0-.24a2.82,2.82,0,0,0-1-.15l-8.75.4-1,.09c-.12,0-.25-.1-.37-.09s-.25-.1-.49-.08-.72-.06-1.08,0a.48.48,0,0,0-.35.15A3,3,0,0,1,28,70l-2.27.2c-.13-.11-.36,0-.6,0a.52.52,0,0,1-.59,0c-.25-.1-.37-.09-.48,0l-.24,0-.84.07c-.24,0-.35.15-.58.17s-.22.26-.08.49v.12c0,.24,0,.24.14.23a1.84,1.84,0,0,0,.84-.08c0-.12.1-.13.22-.14.6-.05,1.21,0,1.81,0a.47.47,0,0,1,.37.08.23.23,0,0,0,.36,0c.11,0,.1-.13.23,0a.9.9,0,0,0,1.08-.09l.48,0c.84-.08,1.8,0,2.76-.13a1.46,1.46,0,0,0,.7-.18c.23-.14.48,0,.72-.06a2.24,2.24,0,0,0,1.57,0c.12,0,.37.09.59,0l1.32-.11c.12,0,.25.09.37.08a.23.23,0,0,0,.36,0c.12,0,.23-.14.36,0a.75.75,0,0,0,.71-.06l.36,0a1.5,1.5,0,0,0,1,.15l1.19-.1a5.35,5.35,0,0,0,1.33,0C41.51,70.45,41.75,70.43,41.83,70.06Z" transform="translate(-6.88 -47.35)" fill="#9e895b"/><path d="M72.57,84l-.22.25-.12,0a5.22,5.22,0,0,0-.59.17l-.92.44c-.36,0-.58.29-.94.32-.12,0-.23.14-.35.15a1,1,0,0,1-.57.3c-.12,0-.24,0-.23.14l-.58.29a.23.23,0,0,1-.36,0c-.12,0-.13-.11-.25-.1a.23.23,0,0,0-.36,0c-.11.13-.23.14-.1.25s0,.12-.1.13-.47.16-.58.29a7.67,7.67,0,0,1-.82.31.42.42,0,0,1-.23.14,2.19,2.19,0,0,0-.82.2c-.23.14-.47.16-.7.3a9.5,9.5,0,0,0-1.76.51l-1.76.52a7.4,7.4,0,0,1-1.29.47c-.11,0-.1.13-.1.13a3.64,3.64,0,0,0-1.07.22,2.71,2.71,0,0,0-.93.32c-.36,0-.59.17-1,.2s-.58.29-.82.31l-1.29.36c-.23.14-.6,0-.95.2s-.58.18-.81.31c-.48.05-.82.32-1.3.36s-.57.29-.94.2a2.83,2.83,0,0,1-.94.32c-.11.14-.35.16-.58.18a1.53,1.53,0,0,0-.71.18,1.53,1.53,0,0,0-.71.18,5.22,5.22,0,0,0-.59.17c-.23,0-.47,0-.58.18l-.36,0c-.11.13-.24,0-.35.15a1.53,1.53,0,0,1-.71.18,2,2,0,0,0-.82.19c-.36,0-.83.2-1.21,0l-.36,0a1.09,1.09,0,0,1-.61-.07c-.13-.11-.48-.08-.73-.17A5.11,5.11,0,0,1,39,92.12a.42.42,0,0,0-.14-.23c-.13-.11-.13-.11-.14-.23l-.13-1.44a1.72,1.72,0,0,1,.17-.85c.09-.25.2-.38.18-.62a.12.12,0,0,1,.11-.13c.1-.25.33-.39.43-.64s.21-.38.3-.63.22-.26.33-.39.33-.39.43-.64a1.89,1.89,0,0,1,.31-.51l1-1.17v-.12h-.12a.91.91,0,0,0-.46.28l-.81.43c-.12,0-.35.16-.46.17a.72.72,0,0,0-.47.16h-.12c-.11.13-.11.13-.23.14l-.33.39c-.11.13-.07.49-.3.63s-.23.14-.34.27l-.21.38a4.42,4.42,0,0,0-.64.9h-.12l-.11.13c-.21.38-.66.78-.86,1.16l-.54.77a15.32,15.32,0,0,0-.72,1.38,1.66,1.66,0,0,0-.32.51,1.91,1.91,0,0,0-.63,1,1.49,1.49,0,0,0-.4,1c-.1.13-.21.26-.2.38a2.63,2.63,0,0,0-.31.63.12.12,0,0,1-.11.13c-.1.25,0,.48,0,.73l0,.48L33,97c.14.23.33,1.06.08,1a.44.44,0,0,0-.37-.09c-.25-.1-.38-.21-.5-.2s-.13-.1-.14-.22-.15-.35-.28-.46a1.13,1.13,0,0,1-.21-1.07l0-.36A13.12,13.12,0,0,0,32,94.17a.42.42,0,0,1,.1-.25.37.37,0,0,0,.1-.25c.1-.25.08-.37.19-.5s.1-.25.21-.38l.3-.75c.22-.26.42-.64.64-.9a.12.12,0,0,1,.11-.13c.09-.37.65-.9.73-1.27.23-.14.68-.54.66-.78.12,0,.22-.26.32-.39l.33-.39.33-.39.65-.78c.22-.26.56-.53.78-.79s.23-.14.32-.39a.63.63,0,0,0,.46-.28h.12a2,2,0,0,0-.53-.55c-.14-.23-.16-.47-.29-.58a.94.94,0,0,1,0-1,4.45,4.45,0,0,1,.5-1.13.94.94,0,0,1,.44-.52l.56-.41c0-.12.11-.13.12,0,.25.1.61.07.86.17l.38.21a.53.53,0,0,1,0,.59,2.71,2.71,0,0,1-.41.76,2.63,2.63,0,0,0-.31.63c.24,0,.47-.16.83-.19l.23,0,.24,0c.34-.27.83-.2,1.31-.24l.24,0a1.53,1.53,0,0,1,.73.06,2,2,0,0,1,.8.89c.13.11.13.11,0,.24s0,.24-.1.25,0,.12-.1.25-.31.63-.52.89l-1,1.17a1.69,1.69,0,0,0-.75,1l-.44.52c-.11.13-.33.27-.31.51s-.44.52-.54.77a3.57,3.57,0,0,1-.39,1l0,.23c-.11.14,0,.24-.1.25a.73.73,0,0,0,.42.69.42.42,0,0,1,.25.1c.36,0,.61.07.85,0l.83-.08.6,0,.24,0a3.33,3.33,0,0,1,1.07-.21c.12,0,.23-.15.35-.16s.47,0,.58-.17a.9.9,0,0,1,.59-.17,2.88,2.88,0,0,1,1-.33,3.35,3.35,0,0,1,1.07-.22.44.44,0,0,0,.35-.15c.36,0,.69-.3,1-.33S50,90,50.33,90a5.32,5.32,0,0,1,1.17-.35c.35-.15.71-.18,1.06-.33l.24,0c.48,0,.93-.32,1.29-.36a2.65,2.65,0,0,1,.95-.2,1.49,1.49,0,0,0,.7-.18c.11-.13.11-.13.23-.14.49.08.83-.2,1.3-.36.12,0,.22-.14.46-.16l.36,0a.72.72,0,0,1,.47-.16,2,2,0,0,0,.83-.19c.11-.13.11-.13.23-.14a.76.76,0,0,0,.81-.32l.24,0s0,.12.12,0h.12c.23-.14.6,0,.83-.19a.53.53,0,0,1,.59-.05c.13.11.24,0,.36,0s0-.24.1-.25a1.71,1.71,0,0,0,.7-.3l.47,0c.36,0,.47-.16.83-.19s.35-.15.58-.29a.42.42,0,0,1,.23-.14c.36,0,.58-.17.82-.19s.24,0,.25.09v.12c-.11.13,0,.24.14.23a.88.88,0,0,0,.7-.3,1.09,1.09,0,0,1,.59-.17c.24,0,.36,0,.46-.16l.36,0c.11-.13.36,0,.47-.16.35-.16.71-.19.94-.33a3.65,3.65,0,0,1,1-.45l.93-.44.23,0C72.56,83.88,72.69,84,72.57,84Z" transform="translate(-6.88 -47.35)" fill="#9e895b"/><path d="M99.44,80c-.23.14-.45.4-.69.42-.22.26-.58.29-.81.43s-.33.27-.56.41-.35.15-.58.29-.47.17-.58.3l-.57.29c-.11.13-.35.15-.46.28a2.31,2.31,0,0,0-.91.56.44.44,0,0,1-.35.15.91.91,0,0,0-.46.28,1.74,1.74,0,0,1-.82.31c-.11,0-.23,0-.22.14l-.34.27c-.24,0-.35.16-.58.29a1.19,1.19,0,0,0-.59.18c-.22.14-.33.27-.57.29s-.24,0-.23.14a1.71,1.71,0,0,1-.7.3c-.11.13-.35.15-.57.29a2,2,0,0,1-.58.29.44.44,0,0,1-.35.15c-.36,0-.58.3-.93.33-.11.13-.35.15-.46.28a.72.72,0,0,0-.47.16c-.24,0-.47.16-.71.18s-.34.15-.57.29-.47.16-.58.29c-.36,0-.47.17-.71.19s-.11.13-.23.14l-.8.43a2.23,2.23,0,0,0-.82.31l-.24,0c-.35,0-.46.16-.7.18s-.46.29-.71.19a.42.42,0,0,1-.23.14c-.23.14.12,0,0,.12l-.92.44a2.83,2.83,0,0,0-.94.32c-.48,0-.57.29-.93.32s-.59.18-1,.21a.87.87,0,0,0-.57.29c-.36,0-.59.17-.83.19a1.07,1.07,0,0,1-.84.08l-1.08.09-.47,0a1.57,1.57,0,0,0-.74-.17.45.45,0,0,1-.25-.1c-.12,0-.25-.1-.38-.21a2.58,2.58,0,0,1-1.39-.72c0-.12,0-.12-.14-.23s-.14-.23-.15-.35c0-.36-.17-.59-.19-.83l-.08-.83A.9.9,0,0,1,69,87.2c.11-.13.11-.13.1-.25s.08-.49.19-.62a2.88,2.88,0,0,1,.63-1l.33-.39c0-.12.1-.25.21-.38l1-1.17a1.18,1.18,0,0,0,.55-.53h.12a12.49,12.49,0,0,0,1.16-.58,4,4,0,0,1,.8-.43,1.05,1.05,0,0,1,.85,0,6.72,6.72,0,0,1,1,.52,8.33,8.33,0,0,1,1.17,1c.13.11,0,.12,0,.24s-.22.26-.33.39-.24,0-.22.26l.08.83c-.11.13-.19.62-.42.76s-.48,0-.59.18-.34.15-.68.42h-.12c-.25-.1-.51-.32-.75-.3-.26-.22-.51-.32-.53-.55a.44.44,0,0,1-.15-.35c-.13-.11-.26-.22-.38-.21a.42.42,0,0,1-.23.14,2.34,2.34,0,0,0-1,1.17l-.66.78-.32.39c-.1.25-.33.39-.42.76a.77.77,0,0,0,.06.72.42.42,0,0,0,.14.23,1.57,1.57,0,0,1,.74.17c.12,0,.25.1.49.08l.49.08,1-.09a1.49,1.49,0,0,0,.7-.18l.36,0a.91.91,0,0,0,.47-.16h.12c.23-.14.36,0,.59-.17a.73.73,0,0,1,.46-.17c.12,0,.23-.14.47-.16s.35-.15.59-.17.35-.15.59-.17.58-.17.81-.31.23-.14.47-.16l.72-.07c.36,0,0-.24.33-.27a1.53,1.53,0,0,1,.71-.18.44.44,0,0,1,.35-.15A.72.72,0,0,0,81.5,87l1.4-.49.36,0c.57-.41,1.16-.46,1.61-.86l.24,0a.37.37,0,0,1,.23-.14,8.27,8.27,0,0,0,.82-.2,4,4,0,0,0,.69-.42l.24,0v.12c.13.11.14.23.16.47l-.24,0-.48,0c-.12,0-.23.14-.34.15a.44.44,0,0,1-.35.15c-.24,0-.47.17-.71.19a.91.91,0,0,0-.46.28.42.42,0,0,1-.23.14,3,3,0,0,0-.94.2l-.47.16c-.23.14-.22.26-.33.39a1.62,1.62,0,0,1-.69.3l-.93.45-.36,0-.11.13a.11.11,0,0,0-.1.13h.12c0,.12.12.11.24.1s.34-.27.59-.18L82,88l.36,0,.34-.27.47,0a.37.37,0,0,0,.23-.14c.12,0,.12,0,.23-.14l.93-.44,1-.46a.92.92,0,0,1,.58-.29c0-.12.11-.13.23-.14a4.94,4.94,0,0,1,.58-.17c0-.12.11-.13.23-.14s.47-.16.45-.4,0-.24.22-.26l.68-.42c.11-.13.11-.13.23-.14s.34-.27.58-.3.35-.15.59-.17a1.62,1.62,0,0,1,.69-.3.12.12,0,0,0,.11-.13.55.55,0,0,1,.6,0h.12c.09-.37.33-.39.55-.53h.12a1.91,1.91,0,0,0,.83-.2c.11-.12.47-.16.58-.29s.24,0,.25.1a.17.17,0,0,0,.24,0c.11,0,.11,0,.22-.14h.12c0-.12,0-.12-.13-.11a.17.17,0,0,1,0-.24c.12,0,.11-.13.23-.14s.23-.14.35-.15l.34-.27c.23-.14.35-.15.45-.28A.63.63,0,0,0,96,81a2.55,2.55,0,0,1,.81-.43H97c.23-.14.33-.27.57-.29a.8.8,0,0,0,.47-.17l.72-.06c.12,0,.11-.13.23-.14C99.17,79.62,99.42,79.72,99.44,80ZM73.93,84.48a.61.61,0,0,0-.45.28l.26.22,1.19-.11c.12,0,.24,0,.23-.14a2.63,2.63,0,0,0,.56-.53c.11-.13.11-.13,0-.24s-.11.13-.23.14l-.24,0A.12.12,0,0,0,75.1,84c0-.12,0-.12-.13-.1s-.11.13-.23.14Zm15.69.31v-.12c-.12,0-.23.14-.35.15a1.67,1.67,0,0,1-.71.19c-.23,0-.34.15-.44.4l-.24,0a.12.12,0,0,0,.24,0l.6-.06c.21-.26.46-.16.68-.42C89.51,84.92,89.5,84.8,89.62,84.79Z" transform="translate(-6.88 -47.35)" fill="#9e895b"/><path d="M129.09,78.81c.24,0,.35-.15.59-.17v.12c.13.11.25.1.48.07s.12,0,.13.11,0,.24.13.11.12,0,.23-.14l.13.11c.12,0,.13.11,0,.24s-.32.39-.56.41-.23.14-.47.16a.63.63,0,0,1-.46.28.87.87,0,0,0-.45.29,5.22,5.22,0,0,1-.59.17c-.23.14-.47.16-.7.3l-.22.26c-.08.37-.44.4-.8.43-.12,0-.23.14-.35.15a1,1,0,0,1-.69.42l-.23,0a4.59,4.59,0,0,1-1.28.6,5.56,5.56,0,0,0-1.14.7c-.24,0-.46.28-.82.31s-.45.28-.69.3a1.09,1.09,0,0,1-.59.17.45.45,0,0,1-.35.16c-.46.28-.93.32-1.27.59a3.83,3.83,0,0,0-1.05.45c-.1.13-.34.15-.46.16a2,2,0,0,1-.58.29c-.24,0-.35.16-.59.18h-.12a1.91,1.91,0,0,1-1,.45,3.72,3.72,0,0,1-.94.32A.44.44,0,0,1,114,87c-.23,0-.34.15-.58.18a1.09,1.09,0,0,0-.59.17l-.24,0c-.24,0-.35.15-.59.17l-.47,0h-.12a1.09,1.09,0,0,1-.59.17,2.06,2.06,0,0,0-.83.2l-.36,0c-.84,0-1.8,0-2.77,0l-.24,0c-.26-.22-.48-.08-.85-.17l-.75-.29c-.12,0-.38-.21-.62-.19a.12.12,0,0,1-.13-.11,3.13,3.13,0,0,0-.77-.53,5.65,5.65,0,0,1-.81-1,2.26,2.26,0,0,0-.31-.81.17.17,0,0,1,0-.24c-.13-.11,0-.36-.17-.47a1.44,1.44,0,0,1,0-1.2.12.12,0,0,0-.13-.11,1.09,1.09,0,0,0-.59.17c-.11.13-.33.39-.44.4l-.34.27A6.93,6.93,0,0,1,99.4,85a.94.94,0,0,0-.44.52l-.34.27c-.21.26-.32.39-.56.41s-.34.27-.46.28-.48,0-.72.07l-.13-.11a1.74,1.74,0,0,1-.31-.82l0-.36a1.41,1.41,0,0,1,.27-1l.32-.51a3.36,3.36,0,0,0,.54-.76,3,3,0,0,1,.66-.67l.22-.25a3.23,3.23,0,0,0,.66-.67c.23-.14,1-.93,1.24-1.07l.79-.55a6.15,6.15,0,0,0,1.16-.46l.24,0c.23-.14.36,0,.61.07l1.14.62a.91.91,0,0,1,.28.46c.13.1.13.1.14.22a2,2,0,0,1-.05.85c0,.24,0,.36-.07.49s-.22.26-.21.38l-.32.51a2.31,2.31,0,0,0-.33,1.71,1,1,0,0,0,.3.7c0,.12,0,.24.14.23a3.75,3.75,0,0,0,1.25.49.37.37,0,0,1,.25.1,1.53,1.53,0,0,1,.73.06.44.44,0,0,0,.37.09c1-.09,1.92,0,2.76-.13l.48,0c.22-.14.47,0,.7-.18a1.09,1.09,0,0,1,.59-.17l.36,0c.12,0,.35-.15.47-.16a.22.22,0,0,0,.35,0c.23-.14.48,0,.59-.17a.9.9,0,0,0,.59-.17,2,2,0,0,0,.82-.19c.11-.13.35-.15.58-.29s.47-.16.71-.19a5.22,5.22,0,0,1,.59-.17c.22-.14.46-.16.69-.3s.36,0,.59-.17l.48,0,0,.24h.12c.24,0,.35-.16.57-.3v-.12l-.12,0a.37.37,0,0,0-.25-.1v-.12c.35-.15.71-.19.94-.33s.24,0,.35-.15a2.78,2.78,0,0,1,.93-.32.9.9,0,0,1,.59-.17c.12,0,.23-.14.35-.15.36,0,.59-.17.94-.21l.69-.42a1.74,1.74,0,0,0,.82-.31.44.44,0,0,1,.34-.15c.24,0,.36,0,.47-.16s.11-.13.23-.14.35-.15.58-.29l.24,0a1.08,1.08,0,0,0,.8-.44l.48,0c-.11.13-.22.26-.21.38a.12.12,0,0,0-.11.13v.12s.13.11.12,0a.94.94,0,0,0,.44-.52.37.37,0,0,0-.25-.1c0-.12.11-.13.23-.14l.24,0a.44.44,0,0,1,.15.35c.13.11.13.11.25.1a3.16,3.16,0,0,1,.66-.66c.12,0,.12,0,0-.12s-.13-.11,0-.24l.81-.43.11-.13c-.24,0-.35.15-.48,0Zm-5.62,3.26c-.12,0-.11.13-.23.14s-.11.13-.36,0h-.12c-.22.14-.46.17-.68.42-.12,0,0,.12,0,.12a.12.12,0,0,0,.13.11.12.12,0,0,1,.11-.13c.23-.14.34-.27.57-.29s.24,0,.36,0a.26.26,0,0,0,.22-.26Z" transform="translate(-6.88 -47.35)" fill="#9e895b"/><path d="M165.61,76.34a3.55,3.55,0,0,0-1.15.58c-.35.15-.7.3-3.74,1.29-1.3.35-2.33.93-3.63,1.28-.57.29-1.41.37-1.86.77l-.46.16a15.48,15.48,0,0,0-2.22.79,12.37,12.37,0,0,1-2.13.43l-1.88.53a11.86,11.86,0,0,0-2,.41,13.55,13.55,0,0,0-1.89.41c-.7.18-1.66.27-2.37.45a8.92,8.92,0,0,0-1.9.29,8.55,8.55,0,0,1-1.66.26.37.37,0,0,1-.23.14h-1.21c-.36,0-.7.18-1.18.22l-.36,0-.6,0a16.3,16.3,0,0,1-2.52.1c-.12,0-.24,0-.25-.09l-1.11-.27c.12,0-.73-.17-.78-.65a2.63,2.63,0,0,0-.41-.57c-.13-.11-.13-.11-.14-.23l0-.24a1.09,1.09,0,0,1,.07-.61c.09-.36.06-.72.27-1s.31-.63.65-.9c.1-.25.33-.39.42-.64a.26.26,0,0,1,.22-.26c0-.12.1-.25.21-.38a4.12,4.12,0,0,1,.86-1.16c.11-.13.09-.37.2-.5s0-.12,0-.12l-1.56.14-.23,0a1.53,1.53,0,0,1-.71.18l-1,.08a.44.44,0,0,0-.35.15l-.35,0a.37.37,0,0,1-.23.14,14.13,14.13,0,0,0-1.27.71l-.35,0a.44.44,0,0,1-.37-.09c-.25-.1-.39-.33-.54-.67l0-.36c.1-.25.21-.38.2-.5.23-.14.34-.27.58-.29l.48,0,.47,0,.24,0a3.33,3.33,0,0,1,1.55-.25,1,1,0,0,0,.58-.17.74.74,0,0,1,.47-.17l2.87-.25.48,0c.12,0,.24,0,.23-.14a2.78,2.78,0,0,0,.76-.91c.12,0,.11-.13.22-.26a.94.94,0,0,0,.44-.52l.32-.39a10,10,0,0,1,1.42-1.69l.31-.63.43-.52H138a.44.44,0,0,1,.37.09l.13.11c.13.11.14.23.27.34l.45.92V72a1.6,1.6,0,0,1-.31.63c-.23.14-.32.51-.67.66a.12.12,0,0,0-.11.13l-.2.38c-.12,0-.23.14-.35.15a1.82,1.82,0,0,1-.44.52l-.3.63v.12H137l5-.44a.44.44,0,0,1,.37.09c.24,0,.48.08.72.05l.72-.06h.12c0,.12-.11.13-.1.25h-.12a.44.44,0,0,1-.35.15l-1.19.11c-.12,0-.12,0-.23.14a.26.26,0,0,1-.22.26l-5.5.48-.24,0a.44.44,0,0,0-.34.15.94.94,0,0,1-.44.52,3.63,3.63,0,0,0-.87,1c0,.12-.1.25-.21.38H134c-.09.37-.44.52-.52.89-.11.13-.1.25-.22.26a1.82,1.82,0,0,1-.44.52,1.49,1.49,0,0,0-.31.51,1.66,1.66,0,0,0-.32.51c-.11.13-.22.26-.34.27l-.62,1.14v.12a7.54,7.54,0,0,0,2.2.41l.24,0c.46-.29.84-.08,1.53-.38l.36,0a10,10,0,0,0,1.91-.17c.48,0,.95-.2,1.43-.24A3.24,3.24,0,0,0,140,82a4.52,4.52,0,0,0,1.31-.23l.6,0c.58-.18,1.3-.24,1.89-.41a4.87,4.87,0,0,0,1.3-.23c.36,0,.71-.19,1.07-.22s.82-.19,1.42-.24a20.26,20.26,0,0,0,2.47-.7l.48,0a9.84,9.84,0,0,0,1.78-.28l.36,0a2.42,2.42,0,0,1,1.28-.47,5.7,5.7,0,0,1,1.54-.38l.46-.16a3.33,3.33,0,0,1,1.53-.49l1.76-.52c.69-.3,4.08-1.56,4.9-1.75.12,0,.25.09.37.08s.12,0,0,.12v.12l.36,0H165c.35-.15.82-.31,1.17-.46C166.73,75.4,166.43,76,165.61,76.34Z" transform="translate(-6.88 -47.35)" fill="#9e895b"/><path d="M181.6,81.44l-.6.06a2.27,2.27,0,0,0-1-.16.37.37,0,0,1-.25-.1,2.94,2.94,0,0,1-.85-.17,4.41,4.41,0,0,1-1.38-.6,2.07,2.07,0,0,1-.64-.42l-.79-.78a.89.89,0,0,1-.29-.57.12.12,0,0,0-.13-.11,2,2,0,0,1-.46-1l0-.48c-.14-.22.2-.49.06-.72s0-.12,0-.24a1.8,1.8,0,0,0,.43-.52v-.12l-.13-.11-.56.41c-.11.13-.34.27-.56.53l-.69.42c-.34.15-.55.53-.9.68s-.44.4-.69.42c-2,2-2.39,1.54-2.39,1.54a.42.42,0,0,1-.25-.1,1.09,1.09,0,0,1-.43-.81c-.13-.1,0-.35,0-.47l0-.36A6.46,6.46,0,0,1,169.8,76l.18-.62-.13-.11a2.54,2.54,0,0,0-.56.41,5.24,5.24,0,0,1-.78.79c-.35.15-.43.52-.78.68-.12,0-.34.27-.45.4a5.13,5.13,0,0,1-1.1,1.18.37.37,0,0,1-.1.25A15.09,15.09,0,0,0,165,80.48c-.11.13-.23.14-.22.26a.22.22,0,0,1-.36,0c-.11,0-.25-.1-.36-.09s-.4-.45-.55-.68v-.12c.11-.13.1-.25.08-.49s.1-.24.09-.36.23-.15.22-.26a6.75,6.75,0,0,1,.51-1,4.22,4.22,0,0,1,.52-1c.08-.37.42-.64.51-1,.43-.64.72-1.39,1.15-2a.42.42,0,0,0,.1-.25,1,1,0,0,1,.3-.63.44.44,0,0,1,.35-.15c.24,0,.47-.16.6,0a4.47,4.47,0,0,1,.78.65v.12l0,.48c.14.23,0,.48-.18.74a.44.44,0,0,0-.09.25.12.12,0,0,0,.13.11h.12c.12,0,.12,0,.22-.14a3,3,0,0,1,.8-.55c.36,0,.58-.29.81-.32a2.35,2.35,0,0,1,.95-.2c.12,0,.38.21.4.45s.17.59-.05.85l0,.23a2.83,2.83,0,0,1-.16,1v.12a.25.25,0,0,0,.38.21c.23-.14.59-.17.81-.43s.21-.26.33-.27l.69-.42c.58-.3,1.14-.71,1.84-1a1.73,1.73,0,0,1,.69-.3.42.42,0,0,0,.23-.14,1.09,1.09,0,0,1,.59-.17c.13.11.38.2.52.43l.39.33a.37.37,0,0,1,0,.48,3.88,3.88,0,0,0-.06.61.42.42,0,0,0-.1.25,3.32,3.32,0,0,0-.84,1.39,1.57,1.57,0,0,0,.88,1.85c.25.1.38.21.62.19s.49.08.62.19a1.53,1.53,0,0,0,.73.06l.12,0c.23,0,.48.08.72.06a2,2,0,0,1,.83-.19.72.72,0,0,1,.49.08l.36,0c.35,0,.82-.2,1.3-.24a7.22,7.22,0,0,0,1.54-.25l.36,0c.22-.26.59-.17.94-.32s.6,0,.7-.18a.72.72,0,0,1,.47-.16l.72-.07c.12,0,.24,0,.23-.14.34-.27.82-.19,1.17-.34h.12a.72.72,0,0,1,.47-.16,2,2,0,0,1,.83-.19,2.19,2.19,0,0,0,.82-.2.72.72,0,0,1,.47-.16,1.09,1.09,0,0,0,.59-.17c.11-.13.11-.13.23-.14a1.52,1.52,0,0,0,.7-.18l.36,0a.44.44,0,0,1,.35-.15.67.67,0,0,0,.46-.29.87.87,0,0,0,.58-.17c.11-.13.23-.14.47-.16a1.31,1.31,0,0,0,.59-.17c.23-.14.47-.16.69-.3a.57.57,0,0,1,.6-.06c.12,0,.12,0,.34-.27s.11-.13.36,0l.24,0c.13.11.13.11,0,.24a.12.12,0,0,0,.13.11c.12,0,.25.1.37.09s.24,0,.23-.14l0-.36c0-.12.09-.25.34-.15s.12,0,.23-.14.11-.13.23-.14l.24,0c0,.12.13.11.12,0,.24,0,.35-.16.59-.18l.11-.13c0-.12,0-.12.11-.13s.11,0,.11,0l.36,0,.13.11.26.22.24,0c.23-.14.48,0,.72-.06s.12,0,.12,0,0-.12,0-.12V74c.23-.14.35-.15.46-.28a1.53,1.53,0,0,1,.69-.31c.12,0,.23-.14.35-.15v.12c.13.11,0,.36-.08.49l-.57.29a.91.91,0,0,0-.46.28c-.24,0-.35.15-.47.16s-.47.17-.7.31-.34.15-.58.17a.44.44,0,0,0-.35.15,2,2,0,0,1-1.17.46.44.44,0,0,0-.34.15c0,.12-.1.25-.23.14l-.24,0c-.22.25-.33.38-.57.41a1.46,1.46,0,0,0-.7.18.42.42,0,0,1-.23.14l-.6,0c-.12,0-.23.14-.35.15a1.46,1.46,0,0,0-.44.4,1.53,1.53,0,0,1-.71.18c-.12,0-.25-.09-.36,0s-.23.14-.35.15-.36,0-.34.27a.42.42,0,0,1-.22.14.72.72,0,0,0-.47.16c-.36,0-.59.17-.83.19a.88.88,0,0,1-.69.3c-.24,0-.47.16-.71.19a.44.44,0,0,1-.35.15c-.36,0-.59.17-.95.2a1.08,1.08,0,0,0-.58.17.59.59,0,0,0-.35.15,1.91,1.91,0,0,0-.83.2l-.47.16a1.77,1.77,0,0,0-.82.19.9.9,0,0,1-.59.17,1.53,1.53,0,0,0-.71.18.41.41,0,0,1-.34.15,7.9,7.9,0,0,1-1.67.27c-.35.15-.71.06-1,.33a.37.37,0,0,0-.48,0,2.35,2.35,0,0,1-.83.19C182.3,81.26,182,81.41,181.6,81.44Zm25-8.93c0-.12.1-.25.11-.13l.48,0a.23.23,0,0,1,.15.35c-.12,0-.11.13-.23.14H207A.38.38,0,0,1,206.59,72.51Z" transform="translate(-6.88 -47.35)" fill="#9e895b"/><path d="M232.72,68.3c-.22.14-.44.4-.68.42-.22.26-.58.29-.81.43s-.33.27-.56.41-.35.15-.58.29-.47.16-.58.29l-.57.3c-.11.13-.35.15-.46.28a2.31,2.31,0,0,0-.91.56.44.44,0,0,1-.35.15.91.91,0,0,0-.46.28,1.74,1.74,0,0,1-.82.31c-.12,0-.23,0-.22.14l-.34.27c-.24,0-.35.15-.58.29a1.19,1.19,0,0,0-.59.18c-.22.14-.33.27-.57.29s-.24,0-.23.14a1.71,1.71,0,0,1-.7.3c-.11.13-.35.15-.57.29a2,2,0,0,1-.58.29.44.44,0,0,1-.35.15c-.36,0-.58.29-.93.33-.11.13-.35.15-.46.28a.72.72,0,0,0-.47.16c-.24,0-.47.16-.71.18s-.35.15-.57.29-.47.16-.58.29a5.73,5.73,0,0,0-.71.19c-.12,0-.11.13-.23.14l-.8.43a2.23,2.23,0,0,0-.82.31l-.24,0c-.36,0-.46.16-.7.18a.83.83,0,0,1-.71.19.42.42,0,0,1-.23.14c-.23.14.12,0,0,.12l-.92.44a2.83,2.83,0,0,0-.94.32c-.48,0-.58.29-.93.32s-.59.18-1,.21a.92.92,0,0,0-.58.29c-.36,0-.58.17-.82.19a1,1,0,0,1-.84.07l-1.08.1-.47,0a1.71,1.71,0,0,0-.74-.18.39.39,0,0,1-.25-.09c-.12,0-.25-.1-.38-.21a2.58,2.58,0,0,1-1.39-.72c0-.12,0-.12-.14-.23s-.14-.23-.15-.35c0-.36-.17-.59-.19-.83l-.08-.83a.9.9,0,0,1,.07-.61c.11-.13.11-.13.1-.25s.08-.49.19-.62a2.74,2.74,0,0,1,.63-1l.33-.39c0-.12.1-.25.21-.38l1-1.17a1.18,1.18,0,0,0,.55-.53h.12a12.49,12.49,0,0,0,1.16-.58,4,4,0,0,1,.8-.43,1.05,1.05,0,0,1,.85,0,6.72,6.72,0,0,1,1,.52,8.33,8.33,0,0,1,1.17,1c.13.11,0,.12,0,.24s-.22.26-.33.39-.24,0-.22.26l.08.83c-.11.13-.19.62-.42.76s-.48,0-.59.17-.34.16-.68.43h-.12c-.25-.1-.51-.32-.75-.3-.26-.22-.51-.32-.53-.56a.41.41,0,0,1-.15-.34c-.13-.11-.26-.22-.38-.21a.42.42,0,0,1-.23.14,2.29,2.29,0,0,0-1,1.17l-.66.78-.32.39c-.1.25-.33.39-.42.76a.75.75,0,0,0,.06.71.38.38,0,0,0,.14.23,1.71,1.71,0,0,1,.74.18c.12,0,.25.1.49.08l.49.08,1-.09a1.49,1.49,0,0,0,.7-.18l.36,0a.91.91,0,0,0,.47-.16h.12c.23-.14.36,0,.59-.18s.34-.15.46-.16.23-.14.47-.16.35-.15.59-.17.35-.15.58-.17.59-.17.82-.31.23-.14.47-.17l.72-.06c.36,0,0-.24.33-.27a1.53,1.53,0,0,1,.71-.18.44.44,0,0,1,.35-.15.72.72,0,0,0,.47-.16l1.4-.49.36,0c.57-.41,1.16-.46,1.61-.86l.24,0a.37.37,0,0,1,.23-.14c.36,0,.58-.18.82-.2a4,4,0,0,0,.69-.42l.24,0v.12c.13.11.14.23.16.47l-.24,0-.48,0c-.12,0-.23.14-.35.15a.41.41,0,0,1-.34.15c-.24,0-.47.16-.71.19a.91.91,0,0,0-.46.28.42.42,0,0,1-.23.14,2.94,2.94,0,0,0-.94.2l-.47.16c-.23.14-.22.26-.33.39a1.67,1.67,0,0,1-.69.3l-.93.45-.36,0-.11.13a.12.12,0,0,0-.11.13h.12c0,.12.13.11.25.09s.34-.27.59-.17l.48,0,.36,0,.34-.27.47,0a.37.37,0,0,0,.23-.14c.12,0,.12,0,.23-.14l.93-.45,1-.45a.92.92,0,0,1,.58-.29c0-.12.11-.13.23-.14a4.41,4.41,0,0,1,.58-.17c0-.12.11-.13.23-.14s.47-.16.45-.4,0-.24.22-.26l.68-.42c.11-.13.11-.13.23-.14s.34-.27.58-.3.35-.15.59-.17a1.62,1.62,0,0,1,.69-.3A.12.12,0,0,0,224,72a.55.55,0,0,1,.6,0h.12c.09-.37.32-.39.55-.53h.12a2.06,2.06,0,0,0,.83-.2c.11-.13.47-.16.58-.29s.23,0,.25.1a.16.16,0,0,0,.23,0c.13,0,.13,0,.23-.14h.12c0-.12,0-.12-.13-.11a.17.17,0,0,1,0-.24c.12,0,.11-.13.23-.14s.23-.14.35-.15l.34-.27c.22-.14.34-.15.45-.28a.63.63,0,0,0,.46-.28,2.55,2.55,0,0,1,.81-.43h.12c.22-.15.33-.28.57-.3a.72.72,0,0,0,.47-.16l.72-.06c.12,0,.11-.13.23-.14C232.45,68,232.7,68.06,232.72,68.3Zm-25.5,4.52a.59.59,0,0,0-.45.28l.26.22,1.19-.11c.12,0,.24,0,.23-.14a2.63,2.63,0,0,0,.56-.53c.1-.13.1-.13,0-.24s-.1.13-.23.14l-.23,0a.12.12,0,0,0-.13-.11c0-.12,0-.12-.13-.11s-.11.13-.23.14Zm15.69.31V73c-.12,0-.23.14-.35.15a1.53,1.53,0,0,1-.71.18c-.24,0-.34.16-.44.4l-.24,0c0,.11.13.1.13.1a.12.12,0,0,0,.11-.13l.59,0c.22-.26.47-.16.69-.42C222.8,73.26,222.79,73.14,222.91,73.13Z" transform="translate(-6.88 -47.35)" fill="#9e895b"/><path d="M246.24,76.87l-.59,0-.36,0c-.48,0-1.09,0-1.57,0a.86.86,0,0,1-.73-.18c-.36,0-.75-.29-1.23-.25l-.24,0a1.68,1.68,0,0,0-.85,0c-.24,0-.37-.09-.62-.19a1.49,1.49,0,0,1-.72-.06l-.63-.3a.12.12,0,0,1-.13-.11.44.44,0,0,1-.37-.09c-.25-.1-.39-.33-.64-.43a3.71,3.71,0,0,1-.93-1v-.12c-.14-.23-.15-.35-.29-.46a.63.63,0,0,0-.16-.46v-.12a1.09,1.09,0,0,1,.07-.61c0-.12.11-.13.1-.25a5.22,5.22,0,0,1,.07-.61,2.32,2.32,0,0,1,.64-.9c0-.12,0-.12-.13-.11s-.35.15-.59.17h-.12a6.24,6.24,0,0,0-.8.44l-.69.42-.68.42c-.24,0-.23.14-.34.27-.48,0-.58.29-.93.44a.38.38,0,0,0-.22.14c-.12,0-.24,0-.23.14a3,3,0,0,1-.8.55,7,7,0,0,0-.91.56.49.49,0,0,0-.35.16.73.73,0,0,1-1,.08.44.44,0,0,0-.35.15c-.11,0-.22.14-.33.27s-.11.13-.23.14l-.48,0c-.13-.11-.25-.1-.38-.2s-.27-.34-.29-.58l-.06-.72a.26.26,0,0,1,.21-.26l.31-.63c.11-.13.22-.26.34-.27.44-.52,2.65-2.76,3-3a5.83,5.83,0,0,0,.64-.9,2,2,0,0,0,.78-.67.63.63,0,0,0,.46-.28c0-.12.11-.13.12,0a1.71,1.71,0,0,0,.74.18c.12,0,.13.1.26.21l.52.44a.37.37,0,0,1,0,.48,2.22,2.22,0,0,1-.75,1l-.45.4a.12.12,0,0,1-.11.13,3.16,3.16,0,0,0-.66.66c-.23.14-.45.4-.79.67,0,.12,0,.12.13.11a6.56,6.56,0,0,0,1.38-.73c.34-.27.82-.31,1.28-.59h.12c.24,0,.46-.28.69-.3a.91.91,0,0,1,.47-.16c.11-.13.11-.13.23-.14s.37.09.48,0,.35-.16.47-.17a1.68,1.68,0,0,0,1-.45.23.23,0,0,1,.36,0c.25.1.37.09.5.2a.92.92,0,0,0,.52.43.92.92,0,0,1,.29.58v.12a2,2,0,0,1-.3.75c0,.12,0,.12-.09.25s-.35.15-.34.27-.09.37-.33.39a.94.94,0,0,0-.44.52c-.21.26-.18.62-.4.88l0,.24a.62.62,0,0,0,.28.45.92.92,0,0,1,.62.19,2.83,2.83,0,0,1,1,.16h.12c.25.09.49.07.61.18s.48,0,.61.07.61.07.86.16.13.11.25.1l3,.1.24,0a1,1,0,0,1,.84-.07l.95-.09c.12,0,.13.11.24,0a1,1,0,0,1,.84-.07,1.09,1.09,0,0,0,.59-.17h.12c.35,0,.72.05.95-.09l.48,0a1.09,1.09,0,0,0,.59-.17.44.44,0,0,1,.35-.15c.36.09.58-.17.94-.2a1.43,1.43,0,0,1,.71-.19.53.53,0,0,0,.59-.17.42.42,0,0,0,.22-.14c.25.1.48,0,.71-.18s.47-.16.71-.18a.44.44,0,0,1,.35-.15c.24.09.58-.18.82-.2s.24,0,.23-.14.23-.14.47-.16.48,0,.82-.19.48,0,.71-.18l.69-.43a1.25,1.25,0,0,0,.58-.17.12.12,0,0,0,.11-.13.44.44,0,0,1,.35-.15l.36,0c.34-.27.7-.3.91-.56a.44.44,0,0,1,.35-.15,5.22,5.22,0,0,1,.59-.17l.12,0a.66.66,0,0,1,.57-.41.89.89,0,0,0,.45-.28l.34-.27.11-.13c.37.09.59-.17.82-.31a1.43,1.43,0,0,0,.65-.78c.11-.13.22-.26.47-.16l.24,0a.26.26,0,0,1,.22-.26,3.74,3.74,0,0,0,.91-.56c.11-.13.22-.26.21-.38l.92-.45c.24,0,.34-.27.57-.41,0-.35.2-.5.41-.76h.12c.12,0,.11-.13.48,0a.37.37,0,0,1-.1.25l-.22.26-.1.13c-.1.25-.32.51-.3.75a.66.66,0,0,1-.31.63,2.55,2.55,0,0,1-.55.53l-.33.39-.33.39c-.12,0-.23.14-.35.15l-.32.39-.69.42a1.23,1.23,0,0,1-.55.53c-.24,0-.46.28-.69.42l-.69.43c-.21.26-.45.28-.68.42a14.28,14.28,0,0,0-1.83,1.12c-.12,0-.23.14-.35.15a2.11,2.11,0,0,0-1.15.58l-.24,0c-.23.14-.47.17-.7.31a3,3,0,0,1-.81.31,1.71,1.71,0,0,1-.7.3c-.12,0-.24,0-.23.14-.36,0-.69.3-1.05.33a2.27,2.27,0,0,1-.94.33c-.12,0-.23.14-.35.15a1.77,1.77,0,0,1-.82.19,5.22,5.22,0,0,1-.59.17c-.24,0-.47.16-.71.18a.89.89,0,0,1-.58.18c-.11.13-.36,0-.59.17s-.47.16-.72.06-.23.14-.35.15l-.59,0c-.24,0-.35.16-.59.18s-.35.15-.59.17a1.53,1.53,0,0,0-.73-.06.44.44,0,0,0-.35.15l-.47,0-.36,0a.54.54,0,0,1-.6,0ZM261.48,72a.91.91,0,0,0,.46-.28l.68-.42c.23-.14.58-.29.81-.43s.47-.16.69-.3a2.16,2.16,0,0,0,.79-.67.44.44,0,0,0,.35-.15h.12l.68-.42a3.24,3.24,0,0,0,.56-.53c.47-.17.67-.55,1-.82v-.12l.36,0,.44-.52c.12,0,.1-.25.1-.25h-.12c-.22.26-.45.4-.67.66a.12.12,0,0,1-.11.13l-.24,0c-.11.13-.11.13-.23.15l-.32.39c-.12,0-.23.14-.46.28a2,2,0,0,0-.58.29,1.18,1.18,0,0,1-.55.53l0,.24c-.25-.1-.37-.09-.35.15-.25-.1-.48,0-.71.18a4,4,0,0,1-1,.57l-.34.27c-.12,0-.11.13-.23.14s-.36,0-.47.16-.32.39-.69.31a2.52,2.52,0,0,0-.68.54v.12h.12C261,72.21,261.24,72.07,261.48,72Z" transform="translate(-6.88 -47.35)" fill="#9e895b"/><path d="M300.45,64.54a3.66,3.66,0,0,0-1.15.58c-.35.15-.7.3-3.74,1.29-1.29.36-2.33.93-3.62,1.28-.58.3-1.42.37-1.86.77l-.47.16a14.79,14.79,0,0,0-2.22.8,13.15,13.15,0,0,1-2.13.42l-1.88.53a10.73,10.73,0,0,0-2,.42,11.68,11.68,0,0,0-1.89.4c-.71.19-1.67.27-2.37.45a9.7,9.7,0,0,0-1.91.29,8.33,8.33,0,0,1-1.66.26.37.37,0,0,1-.23.14h-1.2c-.36,0-.71.18-1.19.22l-.36,0-.6,0a19.17,19.17,0,0,1-2.52.1c-.12,0-.23,0-.25-.1l-1.1-.27c.12,0-.74-.17-.78-.65a2.63,2.63,0,0,0-.41-.57c-.13-.11-.13-.11-.14-.22l0-.24a1.09,1.09,0,0,1,.07-.61c.09-.37.06-.73.28-1s.3-.63.64-.9c.1-.25.33-.39.43-.64a.26.26,0,0,1,.22-.26c0-.12.09-.25.2-.38a4.32,4.32,0,0,1,.86-1.16c.11-.13.09-.37.2-.5s0-.12,0-.12l-1.55.14-.24,0a1.53,1.53,0,0,1-.71.18l-.95.09a.44.44,0,0,0-.35.15l-.36,0a.37.37,0,0,1-.23.14,13.85,13.85,0,0,0-1.26.71l-.36,0a.44.44,0,0,1-.37-.09c-.25-.09-.39-.32-.54-.67l0-.36c.1-.25.21-.38.2-.5.22-.14.33-.27.57-.29l.48,0,.48,0,.24,0a3.15,3.15,0,0,1,1.54-.26,1.09,1.09,0,0,0,.59-.17.72.72,0,0,1,.47-.16l2.86-.25.48,0c.12,0,.24,0,.23-.14a2.81,2.81,0,0,0,.77-.91c.11,0,.1-.13.21-.26a.94.94,0,0,0,.44-.52l.33-.39A9.51,9.51,0,0,1,272,59.8l.31-.62.44-.52h.12a.4.4,0,0,1,.37.08l.13.11c.13.11.14.23.27.34l.44.92v.12a1.6,1.6,0,0,1-.31.63c-.23.14-.31.51-.66.66a.12.12,0,0,0-.11.13l-.21.38c-.12,0-.23.14-.35.15a1.8,1.8,0,0,1-.43.52l-.31.63v.12h.12l5-.44a.44.44,0,0,1,.37.09c.24,0,.49.08.73.06l.71-.07h.12c0,.12-.1.13-.09.25h-.12a.42.42,0,0,1-.35.16l-1.2.1c-.12,0-.12,0-.23.14a.26.26,0,0,1-.21.26l-5.5.48-.24,0a.44.44,0,0,0-.35.15.94.94,0,0,1-.44.52,3.8,3.8,0,0,0-.87,1c0,.12-.1.25-.21.38h-.12c-.08.37-.43.52-.52.89-.11.13-.1.25-.22.26a1.82,1.82,0,0,1-.44.52,42.24,42.24,0,0,1-.63,1c-.11.13-.22.26-.34.27l-.62,1.14v.12a7.28,7.28,0,0,0,2.2.41l.24,0c.46-.28.84-.07,1.54-.38l.36,0a9.42,9.42,0,0,0,1.91-.17c.48,0,.94-.2,1.42-.24a3.33,3.33,0,0,0,1.07-.21,4.78,4.78,0,0,0,1.3-.24l.6,0c.59-.17,1.3-.24,1.89-.41a4.94,4.94,0,0,0,1.31-.23c.35,0,.7-.18,1.06-.21s.83-.2,1.43-.25a18.48,18.48,0,0,0,2.46-.7l.48,0a8.25,8.25,0,0,0,1.78-.28l.36,0a2.43,2.43,0,0,1,1.29-.47,6.34,6.34,0,0,1,1.53-.38l.47-.16a3.26,3.26,0,0,1,1.52-.49l1.76-.52c.7-.3,4.08-1.56,4.91-1.75.12,0,.25.1.37.09s.12,0,0,.12v.11l.36,0h.12c.34-.15.81-.31,1.16-.46C301.58,63.6,301.27,64.23,300.45,64.54Z" transform="translate(-6.88 -47.35)" fill="#9e895b"/><path d="M341.42,61.92a.67.67,0,0,1-.69.3c-.12,0-.23.14-.35.15s-.34.27-.58.29-.23.14-.47.16l-.24,0V63a.9.9,0,0,1-.43.51l-.12,0,0-.24.11-.13c.12,0,.12,0,.23-.14h-.12c-.23.14-.47.16-.7.3h-.12c.12,0,.12,0,.13.11h-.12v-.12c-.12,0-.12,0-.11.13a1.09,1.09,0,0,1-.8.43c-.14-.11-.36,0-.48,0l-.34.27-.11.13a.12.12,0,0,0-.13-.11h-.12l-.12,0v.11c-.12,0-.12,0-.13-.1-.11.13-.35.15-.58.29a.24.24,0,0,1-.21.26.44.44,0,0,1-.37-.09h-.12c-.12,0-.35.15-.47.16a.12.12,0,0,1-.11.13h-.12c-.24,0-.35.15-.59.17a1.66,1.66,0,0,1-.81.31c-.24,0-.47.17-.71.19a1.09,1.09,0,0,1-.59.17.42.42,0,0,0-.34.15c-.47.16-.95.2-1.42.36s-.69.31-1.05.34a.72.72,0,0,1-.47.16,1.31,1.31,0,0,1-.59.17,4.41,4.41,0,0,0-.58.17l-.24,0a3.54,3.54,0,0,1-1.06.34,2.64,2.64,0,0,1-.94.2.44.44,0,0,1-.35.15c-.25-.1-.36,0-.6,0l-.6.06c0,.11-.11.13-.23.14s-.35,0-.59,0l-.48,0h-.12l-.6,0a1,1,0,0,0-.84.08l-.36,0a20.09,20.09,0,0,0-2.67-.25c-.13-.11-.13-.11-.25-.1s-.11.13-.09.25c-.08.49-.42.76-.75,1.15l-.8.43-.24,0-1.32.12a1,1,0,0,1-.84-.05l-.62-.19a2.22,2.22,0,0,1-.86-.16,1.71,1.71,0,0,0-.74-.18l-.21.38c-.09.25-.3.63-.4.88s-.1.25-.21.38a2.19,2.19,0,0,1-.29.75V72a1.31,1.31,0,0,0-.07.61.88.88,0,0,0-.08.48c.14.23,0,.36.16.47s.22,1.07,0,1l-.38-.21c-.12,0-.25-.1-.38-.21a.12.12,0,0,1-.13-.11c-.14-.22-.27-.33-.28-.45a2.27,2.27,0,0,1-.35-1.18.42.42,0,0,0,.1-.25c.08-.49.29-.87.36-1.35l.21-.38a.42.42,0,0,0,.1-.25c0-.12.1-.25.09-.37s.22-.26.21-.38a2.71,2.71,0,0,0,.41-.76H309a1.63,1.63,0,0,1-.69-1l0-.24c-.26-.22-.16-.47.07-.61v-.12h-.12c0-.24.56-.41.56-.41l.13.11,1.2-.11a.72.72,0,0,0,.47-.16l.24,0,.43-.52.33-.39.33-.39a.62.62,0,0,1,.2-.38h.12c.09-.37.32-.51.54-.77s.67-.54.89-.8l.33-.39c.23-.14.34-.27.46-.28.34-.15.33-.27.44-.4l.24,0v-.12c-.24,0-.16-.47,0-.48s0-.12.11-.13a2.81,2.81,0,0,1,.55-.53l.55-.65a5.65,5.65,0,0,1,.77-.79c.12,0,.12,0,.11-.13a4.49,4.49,0,0,1,1.6-1l.48-.05a.44.44,0,0,1,.37.09c.14.23.39.33.65.55a.88.88,0,0,1,.3.7c0,.23,0,.35-.08.48s-.33.27-.57.3a.12.12,0,0,0-.11.13c-.23.14-.34.27-.58.29l-.56.41c-.11.13-.23.14-.46.28a1.66,1.66,0,0,1-.45.4,7.86,7.86,0,0,0-.87,1,1.3,1.3,0,0,0-.29.87,1,1,0,0,1-.06.61l0,.23c0,.12.14.23.15.35s-.09.37-.08.49l0,.24.13.11.09,1c1,0,1.7.21,2.67.24l.48,0c.22-.14.47,0,.71-.06s.36,0,.6,0l.24,0a.55.55,0,0,1,.6-.06l.36,0c.1-.13.35,0,.58-.17l.6,0a1.53,1.53,0,0,0,.71-.18,1.59,1.59,0,0,0,.7-.19c.24,0,.47-.16.71-.18s.35-.15.6,0a1.53,1.53,0,0,1,.71-.18c.22-.14.47,0,.7-.19l.36,0,0,.24.13.11a.92.92,0,0,0,.58-.29h.12l-.13-.11c-.12,0-.25-.1-.37-.09a.12.12,0,0,0,.11-.13,3,3,0,0,1,.94-.2c.11-.13.24,0,.35-.15.36,0,.59-.17,1-.21s.48,0,.71-.18l.23,0a2.35,2.35,0,0,0,.95-.2l.83-.19c.22-.15.58-.18.81-.32a.23.23,0,0,1,.36,0c.24,0,.35-.15.47-.16s.11-.13.23-.14a4.94,4.94,0,0,0,.58-.17.42.42,0,0,0,.23-.14,1.32,1.32,0,0,0,.95-.21l.36,0c.11-.13.11-.13.23-.14l.36,0a.67.67,0,0,0,.16.47s.13.11.12,0l.67-.54h.12c.12,0,.12,0,0-.12s-.13-.11,0-.12l.81-.43a.12.12,0,0,0,.1-.13l-.35,0a.12.12,0,0,1-.13-.11,1.46,1.46,0,0,1,.7-.18l-.11.13a.11.11,0,0,0,.13.1c.12,0,.25.1.36,0s.25.1.14.23,0,.12.13.11.24,0,.23-.14a.12.12,0,0,1,.13.11C341.52,61.67,341.53,61.79,341.42,61.92Zm-26.85,5.6h-.12l-.48,0c-.13-.11-.24,0-.48,0s-.25-.09-.36,0l-.23,0-.36,0c-.13-.11-.25-.1-.47.16V68h.12c.37.09.84-.07,1.22.13l.23,0c.22-.26.59-.17.81-.43A.12.12,0,0,0,314.57,67.52ZM312.39,66l.48,0,1.43-.12a.9.9,0,0,0,.59-.17c.11-.13.24,0,.35-.16l.11-.13c0-.23-.06-.59-.08-.83a.72.72,0,0,0-.16-.47l0-.24a.44.44,0,0,0,.09-.37l-.06-.72,0-.23a.12.12,0,0,0-.11.13c-.24,0-.21.38-.32.51l-.33.39c-.12,0-.22.25-.32.39l-.66.78v.11l-.12,0A7.82,7.82,0,0,1,312.39,66Z" transform="translate(-6.88 -47.35)" fill="#9e895b"/><path d="M335.39,75.58l-.39-.33,0-.36.59-1.5c.32-.51.5-1.12.81-1.75a2.61,2.61,0,0,0,.51-1,1,1,0,0,1,.3-.75,6.48,6.48,0,0,0,1-2.26,2.48,2.48,0,0,1,.41-.76l.65-.9c.2-.38.3-.63.51-1a8,8,0,0,1,.93-1.77l.32-.51c.28-.87.94-1.65,1.22-2.52.11-.13.34-.27.32-.51a2.71,2.71,0,0,1,.41-.76l.32-.51a1.66,1.66,0,0,0,.32-.51c.11-.13.21-.38.44-.4a1.8,1.8,0,0,1,.87.29c.14.23.4.45.31.82l.09,1a.92.92,0,0,1-.19.62l-.22.26a7.64,7.64,0,0,1-.93,1.77c-.31.51-.5,1.13-.81,1.76-.21.25-.3.62-.64.89-.12,0-.11.13-.22.26-.18.62-.74,1.15-.93,1.77a2.61,2.61,0,0,1-.74,1.15c-.22.26-.32.51-.43.64s-.08.37,0,.36.23,0,.22-.14a7.79,7.79,0,0,1,.87-1.16c.12,0,.11-.13.21-.26a1.45,1.45,0,0,0,.55-.65c.1-.25.33-.39.54-.65s.57-.41.66-.78c0-.12.22-.26.33-.39a7.88,7.88,0,0,0,1.19-1.55l.77-.79a6.51,6.51,0,0,1,.88-.92,5.39,5.39,0,0,1,1-1.29c.22-.26.45-.4.55-.65a14.38,14.38,0,0,1,1.32-1.44c.24,0,.46-.28.57-.41a7.58,7.58,0,0,1,1-.81c.33-.39.93-.33,1.42-.25a1.36,1.36,0,0,1,1,.75c0,.24.16.47.2.83l0,.24a2.14,2.14,0,0,1-.38,1.24c-.1.25-.33.39-.42.64l-.33.39c-.24,0-.46.28-.57.41a.42.42,0,0,1-.1.25,4.44,4.44,0,0,0-.9.68,2.21,2.21,0,0,1-.78.67c-.35.15-.44.52-.79.67-.12,0-.23.14-.11.13s0,.12.13.11a1.45,1.45,0,0,1,1,.16.78.78,0,0,0,.49.07,9,9,0,0,1,1.8,0c.6-.06,1.21,0,1.81,0l.47,0a2.52,2.52,0,0,1,1.31-.24c.36,0,.73.06.94-.2l.24,0a2.09,2.09,0,0,0,1.19-.23l.72-.06.47,0c.34-.27.83-.19,1.18-.34s.93-.33,1.41-.37a3.72,3.72,0,0,0,.94-.32,7.4,7.4,0,0,0,1.51-.62,12.06,12.06,0,0,0,2-.53l1.87-.65a18.16,18.16,0,0,0,2.33-.92c.23-.14.59-.18.81-.32a1.71,1.71,0,0,1,.7-.3h.12a13.44,13.44,0,0,1,1.5-.73c.47-.16.93-.45,1.39-.61a2.53,2.53,0,0,1,1.28-.59c.12,0,.23-.14.34-.27.35,0,.44-.4.8-.43s.58-.29.93-.44l.8-.44c.12,0,.24,0,.25.1s-.11.13-.1.25h-.12c-.58.29-1.13.82-1.83,1.13a8.61,8.61,0,0,1-1.49.85,3.48,3.48,0,0,1-1.16.46.42.42,0,0,1-.23.14c-.35.15-.44.52-.8.55a1.86,1.86,0,0,0-.81.32l-.81.43a2.38,2.38,0,0,0-.91.56,7.61,7.61,0,0,1-1.38.72,6.39,6.39,0,0,0-1.41.49,8.52,8.52,0,0,1-1.63.62l-1.28.48a3.52,3.52,0,0,0-1.06.33l-1.16.46a3.28,3.28,0,0,0-1.06.34,3.23,3.23,0,0,1-1.53.37,1.29,1.29,0,0,1-.93.32c-.24,0-.47.16-.71.19-.61-.07-1.18.34-1.78.27-.45.4-1.08.1-1.53.5l-.71.06c-.36,0-.61-.07-.84.07a.17.17,0,0,1-.24,0,1.52,1.52,0,0,0-.73,0h-4.33a1.91,1.91,0,0,1-1.22-.13c-.25-.1-.61-.07-.87-.29l-.35,0c-.36,0-.61-.07-.85,0a1.71,1.71,0,0,1-.74-.18.72.72,0,0,0-.47.16l-.63,1c-.11.13-.1.25-.21.38a7.16,7.16,0,0,0-.87,1c0,.12-.1.25-.21.38s-.57.41-.65.78c0,.12-.22.26-.33.39l-.66.78c0,.12,0,.24-.09.25-.57.41-.75,1.15-1.31,1.56A5.11,5.11,0,0,1,338.66,73c-.33.39-.79.67-1,1.17l-1.32,1.44A1,1,0,0,1,335.39,75.58Zm13-14.27a2.52,2.52,0,0,0,.68-.54,3,3,0,0,0,.8-.55,20.55,20.55,0,0,1,1.54-1.58,3,3,0,0,0,.41-.88l-.13-.11c-.11.13-.35.15-.46.28l-.57.41a2.8,2.8,0,0,0-.56.41,18.06,18.06,0,0,0-2,2.22,2.41,2.41,0,0,0-.42.64.12.12,0,0,0,.13.11C348,61.7,348.12,61.33,348.35,61.31Z" transform="translate(-6.88 -47.35)" fill="#9e895b"/><path d="M408.82,54.34c.23,0,.34-.15.58-.18v.12c.13.11.25.1.49.08s.12,0,.13.11,0,.24.13.11.12,0,.23-.14l.13.11c.12,0,.13.11,0,.24s-.33.39-.57.41-.22.14-.46.16a.63.63,0,0,1-.46.28.91.91,0,0,0-.46.28,5.22,5.22,0,0,1-.59.17c-.22.14-.46.17-.69.31l-.22.26c-.09.36-.45.4-.8.43-.12,0-.23.14-.35.15a1,1,0,0,1-.69.42l-.24,0a4.25,4.25,0,0,1-1.27.59,5.8,5.8,0,0,0-1.14.71c-.24,0-.46.28-.82.31s-.46.28-.7.3a1,1,0,0,1-.58.17.44.44,0,0,1-.35.15c-.46.28-.94.33-1.27.6a3.83,3.83,0,0,0-1.05.45.72.72,0,0,1-.47.16,2,2,0,0,1-.57.29c-.24,0-.35.15-.59.17h-.12a2,2,0,0,1-1,.46,3.72,3.72,0,0,1-.94.32.44.44,0,0,1-.35.15c-.24,0-.35.15-.58.17a1.09,1.09,0,0,0-.59.17l-.24,0c-.24,0-.35.16-.59.18l-.48,0h-.12a1.05,1.05,0,0,1-.58.17,2,2,0,0,0-.83.19l-.36,0c-.85,0-1.8,0-2.77,0l-.24,0c-.26-.22-.49-.08-.86-.17l-.74-.29c-.12,0-.38-.21-.62-.19a.12.12,0,0,1-.13-.11,3.19,3.19,0,0,0-.77-.54,5.28,5.28,0,0,1-.81-1,2.15,2.15,0,0,0-.32-.81.17.17,0,0,1,0-.24c-.13-.11,0-.36-.16-.47a1.46,1.46,0,0,1,0-1.21.12.12,0,0,0-.13-.11,1.19,1.19,0,0,0-.59.18c-.11.13-.33.39-.45.4l-.34.27a6.66,6.66,0,0,1-1.33,1.32,1,1,0,0,0-.43.52l-.34.27c-.22.26-.33.39-.57.41s-.33.27-.45.28-.48,0-.72.06l-.13-.11a1.66,1.66,0,0,1-.31-.81l0-.36a1.36,1.36,0,0,1,.27-1l.32-.51a3.13,3.13,0,0,0,.53-.77,3.19,3.19,0,0,1,.67-.66l.22-.26a3.42,3.42,0,0,0,.66-.66c.23-.14,1-.93,1.23-1.07l.8-.55a6.43,6.43,0,0,0,1.16-.46l.24,0c.23-.14.36,0,.61.07l1.14.62a.91.91,0,0,1,.28.46c.13.11.13.11.14.23a2,2,0,0,1-.05.85c0,.24,0,.36-.08.49a.62.62,0,0,0-.2.38l-.32.51a2.21,2.21,0,0,0-.33,1.71,1,1,0,0,0,.3.7c0,.12,0,.24.14.23a4,4,0,0,0,1.25.49.37.37,0,0,1,.25.1,1.48,1.48,0,0,1,.72.06.48.48,0,0,0,.37.08c1-.08,1.93,0,2.76-.12l.48,0c.23-.14.48,0,.71-.18a1.09,1.09,0,0,1,.59-.17l.35,0c.12,0,.35-.15.47-.16a.23.23,0,0,0,.36,0c.23-.14.48,0,.59-.17a.9.9,0,0,0,.59-.17,2,2,0,0,0,.82-.19c.11-.13.35-.16.58-.3s.47-.16.71-.18a4.41,4.41,0,0,1,.58-.17c.23-.14.47-.16.7-.3s.36,0,.59-.17l.47,0,0,.24H398c.23,0,.34-.15.57-.29v-.12h-.12a.37.37,0,0,0-.25-.1V59c.35-.15.71-.18.94-.32s.24,0,.35-.15a2.71,2.71,0,0,1,.93-.32A.9.9,0,0,1,401,58c.12,0,.23-.14.35-.15.35,0,.58-.18.94-.21l.69-.42a1.7,1.7,0,0,0,.81-.31.44.44,0,0,1,.35-.15c.24,0,.36,0,.47-.16s.11-.13.23-.14a1.3,1.3,0,0,0,.58-.3l.23,0a1.09,1.09,0,0,0,.81-.43l.48,0c-.11.13-.22.26-.21.38a.12.12,0,0,0-.11.13v.12s.13.11.12,0a.94.94,0,0,0,.44-.52.37.37,0,0,0-.25-.1c0-.12.11-.13.23-.14l.24,0a.44.44,0,0,1,.15.35c.13.11.13.11.25.1a3,3,0,0,1,.66-.67c.12,0,.12,0,0-.12s-.13-.1,0-.23l.8-.44.11-.13c-.24,0-.34.15-.47.05ZM403.2,57.6c-.12,0-.11.13-.23.14s-.11.13-.36,0h-.12c-.23.14-.47.16-.68.42-.12,0,0,.12,0,.12a.12.12,0,0,0,.13.11.12.12,0,0,1,.11-.13c.22-.14.33-.27.57-.29s.24,0,.36,0a.26.26,0,0,0,.22-.26Z" transform="translate(-6.88 -47.35)" fill="#9e895b"/><path d="M437.12,52.94a1.71,1.71,0,0,1,.7-.3l-.1.25h.12l.24,0c.24,0,.36,0,.26.22l.13.11a.37.37,0,0,1,.23-.14l.24,0,0,.24a.86.86,0,0,1-.69.42c-.12,0-.23.14-.35.15s-.32.39-.57.29-.23.14-.46.28a5.22,5.22,0,0,1-.59.17c-.23.14-.47.16-.7.3a.26.26,0,0,0-.21.26,1.14,1.14,0,0,1-.81.44.44.44,0,0,0-.35.15,1.7,1.7,0,0,1-.81.31h-.12a5.87,5.87,0,0,1-1.28.59,5.61,5.61,0,0,0-1.27.6c-.24,0-.46.28-.81.31a1.71,1.71,0,0,0-.7.3l-.47.16c-.24,0-.36,0-.47.16a7.78,7.78,0,0,0-1.28.48,3.65,3.65,0,0,0-1,.45,1.31,1.31,0,0,0-.59.17l-.47.16a1.09,1.09,0,0,1-.59.17c-.11.13-.12,0-.22.14a2.27,2.27,0,0,1-.94.33c-.35.15-.71.18-1.06.33-.11,0-.22.14-.34.15s-.36,0-.48,0-.48,0-.59.18l-.24,0c-.24,0-.34.15-.58.17l-.6,0a1.31,1.31,0,0,1-.59.17,1,1,0,0,0-.84.07l-.35,0a21.46,21.46,0,0,0-2.78,0,.36.36,0,0,0-.24-.1c-.26-.22-.61-.07-.86-.17l-.75-.29c-.25-.1-.38-.21-.62-.19a.12.12,0,0,0-.13-.11l-.78-.65c-.38-.21-.54-.68-.8-.9a2.22,2.22,0,0,0-.32-.93v-.12a2.4,2.4,0,0,1-.09-1l0-.24-.05-.59c.22-.26.19-.62.4-.88A15.7,15.7,0,0,1,412,53a5.72,5.72,0,0,1,2-1.63,1.91,1.91,0,0,1,.83-.07.37.37,0,0,0,.25.1,2.27,2.27,0,0,1,1.12.39.48.48,0,0,0,.23-.15,1,1,0,0,1,.68-.42l.6-.05v.12c0,.24.49.08.31.82s-.53.77-.75,1-.46.28-.67.54a3.61,3.61,0,0,1-.92.56c0,.12-.12,0-.12,0-.25-.1.94-1.65.44-1.85a.72.72,0,0,0-.84,0,4.37,4.37,0,0,0-1.44,1.45,21.24,21.24,0,0,0-1.45,2.77c.14.23-.09.25-.29.75,0,.12-.15,1.1.25,1.55a7.23,7.23,0,0,0,1,.39.37.37,0,0,1,.25.1,2,2,0,0,1,.85,0c0,.12.13.1.25.09a21.31,21.31,0,0,0,2.77,0c.25.1.36,0,.48,0s.47,0,.7-.18.36,0,.6-.05l.24,0c.24,0,.35-.16.59-.18s.13.11.24,0l.83-.07a.72.72,0,0,1,.47-.16,1.74,1.74,0,0,0,.82-.31c.24,0,.48-.05.58-.18s.47-.16.71-.18.35-.15.59-.17a1.52,1.52,0,0,1,.7-.18c.23-.14.47-.16.58-.29l.48,0,0,.23a.12.12,0,0,0,.13.11.92.92,0,0,0,.58-.29l.11-.13h-.12a.44.44,0,0,0-.37-.09l.11-.13c.34-.15.58-.17.93-.32a.44.44,0,0,0,.35-.15,1.06,1.06,0,0,1,.83-.19,1.49,1.49,0,0,1,.7-.18.49.49,0,0,1,.35-.16l.83-.19a3,3,0,0,1,.81-.31l.81-.43.36,0c.24,0,.36,0,.47-.17s.11-.13.22-.14.35-.15.58-.29l.24,0a1.74,1.74,0,0,0,.82-.31l.47,0c-.11.13-.22.14-.21.26l-.11.13,0,.24H435c.23-.14.32-.39.43-.52v-.12l-.24,0a.26.26,0,0,1,.22-.26l.25.1.27.33c0,.12,0,.12.12,0l.68-.54c.12,0,.12,0,0-.12s-.13-.11,0-.24a8.3,8.3,0,0,0,.81-.31c.11-.13.11-.13.1-.25a.23.23,0,0,1-.36,0Zm-5.65,2.91a.36.36,0,0,1-.22.14c-.11.13-.11.13-.36,0h-.12c-.23.14-.59.17-.81.43v.12s.13.11.12,0l.24,0a.53.53,0,0,1,.59-.17l.24,0a.53.53,0,0,0,.32-.39Z" transform="translate(-6.88 -47.35)" fill="#9e895b"/><path d="M469.54,47.58c-.23.14-.45.4-.69.42-.22.26-.57.29-.8.43s-.34.27-.57.41-.35.15-.58.29-.46.17-.57.3l-.58.29c-.11.13-.35.15-.46.28a2.38,2.38,0,0,0-.91.56.44.44,0,0,1-.35.15.91.91,0,0,0-.46.28,1.7,1.7,0,0,1-.81.31c-.12,0-.24,0-.23.14l-.34.27c-.24,0-.35.16-.58.3a1,1,0,0,0-.58.17c-.23.14-.34.27-.58.29s-.24,0-.23.14a1.71,1.71,0,0,1-.7.3c-.1.13-.34.15-.57.29a2,2,0,0,1-.58.29.49.49,0,0,1-.35.16c-.36,0-.57.29-.93.32-.11.13-.35.15-.46.28a.72.72,0,0,0-.47.16c-.24,0-.46.16-.7.18s-.35.15-.58.29-.47.16-.58.29c-.36,0-.47.17-.7.19s-.11.13-.23.14l-.81.43a2.19,2.19,0,0,0-.81.31l-.24,0a5.73,5.73,0,0,0-.71.19c-.23.14-.46.28-.71.18a.42.42,0,0,1-.23.14c-.22.14.12,0,0,.12l-.93.44a2.83,2.83,0,0,0-.94.32c-.47,0-.57.29-.93.33s-.59.17-.95.2a.89.89,0,0,0-.57.29c-.36,0-.59.17-.83.19a1.07,1.07,0,0,1-.84.08l-1.07.09-.48,0a1.57,1.57,0,0,0-.74-.17.37.37,0,0,1-.25-.1c-.12,0-.25-.1-.38-.21a2.58,2.58,0,0,1-1.39-.72c0-.12,0-.12-.14-.23s-.14-.23-.15-.35c0-.36-.17-.59-.19-.83l-.07-.83a1,1,0,0,1,.06-.61c.11-.13.11-.13.1-.25s.08-.49.19-.62a3,3,0,0,1,.63-1l.33-.39c0-.12.1-.25.21-.38l1-1.17a1.14,1.14,0,0,0,.55-.53h.13c.46-.16.8-.43,1.15-.58a4.34,4.34,0,0,1,.8-.43,1.1,1.1,0,0,1,.85,0,6.72,6.72,0,0,1,1,.52,9.07,9.07,0,0,1,1.17,1c.13.11,0,.12,0,.24s-.22.26-.33.39-.24,0-.21.26l.07.84c-.11.12-.19.61-.42.75s-.47,0-.58.18-.35.15-.69.42h-.12c-.25-.1-.51-.32-.75-.3-.26-.22-.51-.31-.53-.55a.44.44,0,0,1-.15-.35c-.13-.11-.26-.22-.38-.21a.42.42,0,0,1-.23.14,2.34,2.34,0,0,0-1,1.17l-.65.78-.33.39c-.1.25-.33.39-.42.76a.8.8,0,0,0,.07.72.42.42,0,0,0,.14.23,1.5,1.5,0,0,1,.73.17c.12,0,.25.1.49.08l.49.08,1-.09a1.53,1.53,0,0,0,.71-.18l.35,0a.91.91,0,0,0,.47-.16H445c.23-.14.36,0,.59-.17a.72.72,0,0,1,.47-.16c.12,0,.22-.15.46-.17s.35-.15.59-.17.35-.15.59-.17.59-.17.81-.31.23-.14.47-.16l.72-.07c.36,0,0-.24.34-.27a1.46,1.46,0,0,1,.7-.18.44.44,0,0,1,.35-.15.72.72,0,0,0,.47-.16l1.4-.49.36,0c.57-.41,1.17-.46,1.61-.86l.24,0a.37.37,0,0,1,.23-.14c.36,0,.59-.17.83-.19a5.11,5.11,0,0,0,.68-.43l.24,0v.12c.13.11.14.23.16.47l-.24,0-.48,0c-.11,0-.22.14-.34.15a.44.44,0,0,1-.35.15c-.24,0-.47.17-.71.19a.91.91,0,0,0-.46.28.42.42,0,0,1-.22.14,3,3,0,0,0-.95.2l-.47.16c-.23.14-.22.26-.32.39a1.71,1.71,0,0,1-.7.3l-.93.45-.35,0-.11.13a.12.12,0,0,0-.11.13h.12c0,.12.13.11.25.1s.33-.27.58-.18l.48,0,.36,0,.34-.27.48,0a.37.37,0,0,0,.23-.14c.12,0,.12,0,.22-.14l.93-.44,1-.46a.92.92,0,0,1,.58-.29c0-.12.11-.13.23-.14a5.22,5.22,0,0,1,.59-.17c0-.12.1-.13.22-.14s.47-.16.45-.4,0-.24.22-.26l.68-.42c.11-.13.11-.13.23-.14s.34-.27.58-.29.35-.16.59-.18a1.67,1.67,0,0,1,.69-.3.12.12,0,0,0,.11-.13.55.55,0,0,1,.6,0h.12c.09-.37.33-.39.56-.53h.12a2,2,0,0,0,.82-.19c.11-.13.47-.17.58-.3s.24,0,.25.1a.17.17,0,0,0,.24,0c.12,0,.12,0,.23-.14h.12c0-.12,0-.12-.13-.11a.17.17,0,0,1,0-.24c.12,0,.11-.13.23-.14s.23-.14.35-.15l.34-.27c.23-.14.35-.15.46-.28a.61.61,0,0,0,.45-.28,2.55,2.55,0,0,1,.81-.43h.12c.23-.14.34-.27.57-.29a.8.8,0,0,0,.47-.17l.72-.06c.12,0,.11-.13.23-.14C469.27,47.24,469.52,47.34,469.54,47.58ZM444,52.1a.63.63,0,0,0-.46.28l.26.22,1.19-.11c.12,0,.24,0,.23-.14a2.63,2.63,0,0,0,.56-.53c.11-.13.11-.13,0-.24s-.11.13-.23.14l-.24,0a.11.11,0,0,0-.13-.1c0-.12,0-.12-.13-.11s-.11.13-.23.14Zm15.68.31v-.12c-.12,0-.23.14-.35.15a1.59,1.59,0,0,1-.7.19c-.24,0-.35.15-.45.4l-.24,0a.12.12,0,0,0,.24,0l.6-.06c.22-.26.47-.16.68-.42C459.61,52.54,459.6,52.42,459.72,52.41Z" transform="translate(-6.88 -47.35)" fill="#9e895b"/></g></g></svg>