<?xml version="1.0" encoding="utf-8"?>
<!-- Generator: Adobe Illustrator 26.0.1, SVG Export Plug-In . SVG Version: 6.00 Build 0)  -->
<svg version="1.1" id="レイヤー_1" xmlns="http://www.w3.org/2000/svg" xmlns:xlink="http://www.w3.org/1999/xlink" x="0px"
	 y="0px" viewBox="0 0 213.2 213.1" style="enable-background:new 0 0 213.2 213.1;" xml:space="preserve">
<style type="text/css">
	.st0{fill:#FFFFFF;}
	.st1{clip-path:url(#SVGID_00000043442839277241656650000002635064877944318595_);}
	.st2{clip-path:url(#SVGID_00000163047007627148708430000009302252380923620495_);}
	.st3{fill:url(#SVGID_00000035522460834549618950000016265346258261324454_);}
	.st4{clip-path:url(#SVGID_00000005246609674942463770000014442990740384080317_);}
	.st5{clip-path:url(#SVGID_00000062163376836216240900000006136068448856374689_);}
	.st6{fill:url(#SVGID_00000001626571672116034690000017183053631812116660_);}
	.st7{clip-path:url(#SVGID_00000039093848868690344990000014978301774358676107_);}
	.st8{clip-path:url(#SVGID_00000021117506692916181540000016299938736360257687_);}
	.st9{fill:url(#SVGID_00000031906871082757392590000013073460212277895827_);}
	.st10{clip-path:url(#SVGID_00000085971124081626806020000004030477141192979608_);}
	.st11{clip-path:url(#SVGID_00000098912015588841967710000005803500537650693293_);}
	.st12{fill:url(#SVGID_00000128448260125017267780000002446248463627733426_);}
	.st13{clip-path:url(#SVGID_00000132047953635444994340000003721904904367626682_);}
	.st14{clip-path:url(#SVGID_00000133496533477225011920000017250495500361787025_);}
	.st15{fill:url(#SVGID_00000111174890123842868320000017262939746207761813_);}
	.st16{clip-path:url(#SVGID_00000107547034961933391930000007857040198457204405_);}
	.st17{clip-path:url(#SVGID_00000120559840377613145660000009723503869557470607_);}
	.st18{fill:url(#SVGID_00000016074875582552437390000015091457917700218257_);}
	.st19{clip-path:url(#SVGID_00000034775603687918612470000011320061787689680315_);}
	.st20{clip-path:url(#SVGID_00000007392512145346890440000003832218021250203289_);}
	.st21{fill:url(#SVGID_00000182508754982218767470000009827031960570285198_);}
	.st22{fill:#B38436;}
</style>
<g id="レイヤー_2_00000140006213298687780320000014548478845527243176_">
	<g id="レイヤー_1-2">
		<path class="st0" d="M189.7,118c-0.4,0.5-0.7,1.1-0.8,1.7c0,0.2,0,0.3,0.1,0.4c0.1,0.2,0.3,0.3,0.5,0.3c0.8-0.1,1.5-0.6,1.7-1.4
			c0-0.1,0.1-0.3,0.1-0.4c0-0.6-0.3-1.1-0.8-1.1C190.2,117.6,190,117.8,189.7,118 M171.1,113.3l0.2,0.2v0.2c0,1.8-1.9,8.8-3.4,8.8
			h-0.2c-0.4-0.1-0.5-0.6-0.5-1.1c0.1-1.2,0.3-2.4,0.8-3.5C168.7,116.2,169.7,114.6,171.1,113.3z M170.5,112.3
			c-1.5,1.3-2.7,3-3.5,4.8c-0.6,1.3-0.9,2.7-1,4.1c-0.1,1,0.4,2,1.3,2.4c0.2,0.1,0.5,0.1,0.7,0.1c0.5,0,1.1-0.2,1.5-0.5
			c2.4-1.7,3.5-6.1,3.5-8.9c1.2,0.5,2.6,0.8,3.9,0.9c1.7,0.1,3.1,0.2,4.3,0.2c1.3,0,2.7-0.1,4-0.3c0.3-0.1,0.5-0.4,0.5-0.7
			c0-0.3-0.2-0.6-0.5-0.6H185c-1.7,0.4-3.4,0.6-5.2,0.6c-0.9,0-2,0-3.1-0.1c-1.5,0-2.9-0.6-4-1.7c-0.1-0.7-0.5-1.3-1.2-1.6
			c-0.1,0-0.2-0.1-0.3-0.1c-0.2,0-0.4,0.1-0.5,0.2c-0.2,0.1-0.3,0.4-0.3,0.6c0,0.1,0,0.3,0.1,0.4
			C170.4,112.3,170.4,112.3,170.5,112.3z M116.8,130.5c0.1,0.7,0.6,1.2,1.3,1.2c0.4,0,0.8-0.2,1-0.6v-0.4c0-0.8-0.7-1.1-0.7-2.2
			c0-0.2,0-0.4,0.1-0.6c1.3-7.7,5.3-29.2,11.9-35.2c0.3-0.3,0.6-0.5,1-0.6c0.3,0,0.6,0.1,0.7,0.4c4.9,5.4,2.4,44.4,11.8,45.5h0.3
			c6.6,0,16.5-22.5,18.4-28.3c1.2-3.6,4.3-13.7,4.3-21.1c0-3.8-0.8-6.9-3.1-8c-0.1-0.1-0.2-0.1-0.3-0.1c-0.3,0-0.6,0.2-0.6,0.5
			c0,0.1,0,0.1,0,0.2c0,0.2,0.1,0.4,0.3,0.5c1.4,0.7,2,2.9,2,5.7c0,7-3.3,18.1-4.3,21.2c-1.8,5.3-10.3,28.2-16.5,28.2h-0.3
			c-7.2-0.9-4.6-38.9-10.5-45.2c-0.5-0.5-1.1-0.8-1.8-0.8c-0.9,0-1.7,0.4-2.3,1C121.2,99.4,116.9,130.4,116.8,130.5L116.8,130.5z
			 M85.2,114.6c-2,2.7-4,4.3-4.6,4.3c-0.1,0-0.2-0.1-0.2-0.2c0-0.8,2.7-4.3,4.3-4.3C84.8,114.4,85,114.5,85.2,114.6L85.2,114.6z
			 M86.5,115.4l0.1,0.3c0.1,0.1,0.3,0.1,0.4,0.1c0.4,0,0.8-0.3,1-0.6v-0.1c0-0.3,0-0.7-0.1-1l1.3-1.1l0,0c0,0.3-0.4,1.4-0.6,2.6
			c-0.2,0.8-0.3,1.5-0.3,2.3c0,2.4,1.5,3.3,3.5,3.3c5.1,0,13.8-5.1,14.2-5.7c0.1-0.2,0.2-0.4,0.2-0.6c0-0.3-0.2-0.6-0.5-0.6
			c-0.3,0-0.4,0.1-0.6,0.5c-1.1,1.4-8.8,5.8-12.9,5.8c-1.6,0-2.7-0.6-2.7-2.3c0-0.8,0.2-1.6,0.5-2.4c0.5-1,0.7-2.2,0.8-3.3
			c0-0.7-0.2-1.1-0.7-1.2c-0.1,0-0.2-0.1-0.3-0.1c-1,0.3-2,0.8-2.7,1.6c-0.6-0.6-1.4-0.8-2.2-0.8c-0.6,0-1.2,0.1-1.8,0.3
			c-2.5,1-4.4,2.9-5.5,5.3c-0.3,0.6-0.5,1.2-0.6,1.8v0.5c0,0.4,0.1,0.8,0.3,1.2c0.2,0.3,0.5,0.5,0.8,0.5h0.2c1.4,0,4.3-2.7,6.9-5.2
			C85.6,116.2,86,115.8,86.5,115.4L86.5,115.4z M28.8,130.5c0.1,0.7,0.6,1.2,1.3,1.2c0.4,0,0.8-0.2,1-0.6v-0.4
			c0-0.8-0.7-1.1-0.7-2.2c0-0.2,0-0.4,0.1-0.6c1.3-7.7,5.3-29.2,11.9-35.2c0.3-0.3,0.6-0.5,1-0.6c0.3,0,0.6,0.1,0.7,0.4
			c5,5.5,2.5,44.5,11.8,45.5h0.3c6.6,0,16.5-22.5,18.4-28.3c1.2-3.6,4.2-13.7,4.2-21.1c0-3.8-0.8-6.9-3-8c-0.1-0.1-0.2-0.1-0.3-0.1
			c-0.4,0-0.7,0.3-0.7,0.7c0,0,0,0,0,0c0,0.2,0.1,0.4,0.3,0.5c1.4,0.7,2,2.9,2,5.7c0,7-3.3,18.1-4.3,21.2
			c-1.8,5.3-10.3,28.2-16.5,28.2H56c-7.2-0.9-4.6-38.9-10.5-45.2c-0.5-0.5-1.1-0.8-1.8-0.8c-0.9,0-1.7,0.4-2.3,1
			C33.1,99.4,28.7,130.4,28.8,130.5L28.8,130.5z"/>
		<g>
			<defs>
				<path id="SVGID_1_" d="M28.7,130.5c0.1,0.7,0.6,1.2,1.3,1.2c0.4,0,0.8-0.2,1-0.6v-0.4c0-0.8-0.7-1.1-0.7-2.2
					c0-0.2,0-0.4,0.1-0.6c1.3-7.7,5.3-29.2,11.9-35.2c0.3-0.3,0.6-0.5,1-0.6c0.3,0,0.6,0.1,0.7,0.4C49,98,46.5,137,55.8,138h0.3
					c6.6,0,16.5-22.5,18.4-28.3c1.2-3.6,4.2-13.7,4.2-21.1c0-3.8-0.8-6.9-3-8c-0.1-0.1-0.2-0.1-0.3-0.1c-0.4,0-0.7,0.3-0.7,0.7
					c0,0,0,0,0,0c0,0.2,0.1,0.4,0.3,0.5c1.4,0.7,2,2.9,2,5.7c0,7-3.3,18.1-4.3,21.2c-1.8,5.3-10.3,28.2-16.5,28.2h-0.3
					c-7.2-0.9-4.6-38.9-10.5-45.2c-0.5-0.5-1.1-0.8-1.8-0.8c-0.9,0-1.7,0.4-2.3,1C33,99.4,28.7,130.4,28.7,130.5"/>
			</defs>
			<clipPath id="SVGID_00000021831787754358141530000006456072086207292316_">
				<use xlink:href="#SVGID_1_"  style="overflow:visible;"/>
			</clipPath>
			<g style="clip-path:url(#SVGID_00000021831787754358141530000006456072086207292316_);">
				<g>
					<defs>
						<rect id="SVGID_00000087391861124661037340000001355639763361619630_" x="7.6" y="52.1" width="234.6" height="88.6"/>
					</defs>
					<clipPath id="SVGID_00000026139946934770132400000012222923240827507884_">
						<use xlink:href="#SVGID_00000087391861124661037340000001355639763361619630_"  style="overflow:visible;"/>
					</clipPath>
					<g style="clip-path:url(#SVGID_00000026139946934770132400000012222923240827507884_);">
						
							<linearGradient id="SVGID_00000036940847615598647410000014675756286593381032_" gradientUnits="userSpaceOnUse" x1="-10.7652" y1="-417.65" x2="223.8348" y2="-417.65" gradientTransform="matrix(1 0 0 -1 18.41 -321.25)">
							<stop  offset="0" style="stop-color:#A97A2B"/>
							<stop  offset="0.2" style="stop-color:#CA9A4D"/>
							<stop  offset="0.38" style="stop-color:#F7D56D"/>
							<stop  offset="0.62" style="stop-color:#916425"/>
							<stop  offset="0.73" style="stop-color:#F7D56D"/>
							<stop  offset="0.85" style="stop-color:#68451F"/>
							<stop  offset="1" style="stop-color:#BF8A3F"/>
						</linearGradient>
						
							<rect x="7.6" y="52.1" style="fill:url(#SVGID_00000036940847615598647410000014675756286593381032_);" width="234.6" height="88.6"/>
					</g>
				</g>
			</g>
		</g>
		<g>
			<defs>
				<path id="SVGID_00000168094116896668197090000010148944848402373522_" d="M85.1,114.6c-2,2.7-4,4.3-4.6,4.3
					c-0.1,0-0.2-0.1-0.2-0.2c0-0.8,2.7-4.3,4.3-4.3C84.8,114.4,85,114.5,85.1,114.6 M86.4,115.4l0.1,0.3c0.1,0.1,0.3,0.1,0.4,0.1
					c0.4,0,0.8-0.3,1-0.6v-0.1c0-0.3,0-0.7-0.1-1l1.3-1.1l0,0c0,0.3-0.4,1.4-0.6,2.6c-0.2,0.8-0.3,1.5-0.3,2.3
					c0,2.4,1.5,3.3,3.5,3.3c5.1,0,13.8-5.1,14.2-5.7c0.1-0.2,0.2-0.4,0.2-0.6c0-0.3-0.2-0.6-0.5-0.6c-0.3,0-0.4,0.1-0.6,0.5
					c-1.1,1.4-8.8,5.8-12.9,5.8c-1.6,0-2.7-0.6-2.7-2.3c0-0.8,0.2-1.6,0.5-2.4c0.5-1,0.7-2.2,0.8-3.3c0-0.7-0.2-1.1-0.7-1.2
					c-0.1,0-0.2-0.1-0.3-0.1c-1,0.3-2,0.8-2.7,1.6c-0.6-0.6-1.4-0.8-2.2-0.8c-0.6,0-1.2,0.1-1.8,0.3c-2.5,1-4.4,2.9-5.5,5.3
					c-0.3,0.6-0.5,1.2-0.6,1.8v0.5c0,0.4,0.1,0.8,0.3,1.2c0.2,0.3,0.5,0.5,0.8,0.5h0.2c1.4,0,4.3-2.7,6.9-5.2
					C85.6,116.2,86,115.8,86.4,115.4z"/>
			</defs>
			<clipPath id="SVGID_00000147928101222629485560000015604025074454539930_">
				<use xlink:href="#SVGID_00000168094116896668197090000010148944848402373522_"  style="overflow:visible;"/>
			</clipPath>
			<g style="clip-path:url(#SVGID_00000147928101222629485560000015604025074454539930_);">
				<g>
					<defs>
						<rect id="SVGID_00000085934832649928011230000006568084070184115114_" x="7.6" y="52.1" width="234.6" height="88.6"/>
					</defs>
					<clipPath id="SVGID_00000035488370064753384520000013207468078034177419_">
						<use xlink:href="#SVGID_00000085934832649928011230000006568084070184115114_"  style="overflow:visible;"/>
					</clipPath>
					<g style="clip-path:url(#SVGID_00000035488370064753384520000013207468078034177419_);">
						
							<linearGradient id="SVGID_00000119815181898940470830000003507257006781334445_" gradientUnits="userSpaceOnUse" x1="-10.7652" y1="-417.65" x2="223.8348" y2="-417.65" gradientTransform="matrix(1 0 0 -1 18.41 -321.25)">
							<stop  offset="0" style="stop-color:#A97A2B"/>
							<stop  offset="0.2" style="stop-color:#CA9A4D"/>
							<stop  offset="0.38" style="stop-color:#F7D56D"/>
							<stop  offset="0.62" style="stop-color:#916425"/>
							<stop  offset="0.73" style="stop-color:#F7D56D"/>
							<stop  offset="0.85" style="stop-color:#68451F"/>
							<stop  offset="1" style="stop-color:#BF8A3F"/>
						</linearGradient>
						
							<rect x="7.6" y="52.1" style="fill:url(#SVGID_00000119815181898940470830000003507257006781334445_);" width="234.6" height="88.6"/>
					</g>
				</g>
			</g>
		</g>
		<g>
			<defs>
				<path id="SVGID_00000026162217268492272180000012707395097234825109_" d="M116.7,130.5c0.1,0.7,0.6,1.2,1.3,1.2
					c0.4,0,0.8-0.2,1-0.6v-0.4c0-0.8-0.7-1.1-0.7-2.2c0-0.2,0-0.4,0.1-0.6c1.3-7.7,5.3-29.2,11.9-35.2c0.3-0.3,0.6-0.5,1-0.6
					c0.3,0,0.6,0.1,0.7,0.4c4.9,5.4,2.4,44.4,11.8,45.5h0.3c6.6,0,16.5-22.5,18.4-28.3c1.2-3.6,4.3-13.7,4.3-21.1
					c0-3.8-0.8-6.9-3.1-8c-0.1-0.1-0.2-0.1-0.3-0.1c-0.3,0-0.6,0.2-0.6,0.5c0,0.1,0,0.1,0,0.2c0,0.2,0.1,0.4,0.3,0.5
					c1.4,0.7,2,2.9,2,5.7c0,7-3.3,18.1-4.3,21.2c-1.8,5.3-10.3,28.2-16.5,28.2h-0.3c-7.2-0.9-4.6-38.9-10.5-45.2
					c-0.5-0.5-1.1-0.8-1.8-0.8c-0.9,0-1.7,0.4-2.3,1C121.2,99.5,116.8,130.5,116.7,130.5"/>
			</defs>
			<clipPath id="SVGID_00000111173017153779312900000015874822414275203258_">
				<use xlink:href="#SVGID_00000026162217268492272180000012707395097234825109_"  style="overflow:visible;"/>
			</clipPath>
			<g style="clip-path:url(#SVGID_00000111173017153779312900000015874822414275203258_);">
				<g>
					<defs>
						<rect id="SVGID_00000016057834529378528480000012008385311889109635_" x="7.6" y="52.1" width="234.6" height="88.6"/>
					</defs>
					<clipPath id="SVGID_00000056386173311010607780000010740139938018164913_">
						<use xlink:href="#SVGID_00000016057834529378528480000012008385311889109635_"  style="overflow:visible;"/>
					</clipPath>
					<g style="clip-path:url(#SVGID_00000056386173311010607780000010740139938018164913_);">
						
							<linearGradient id="SVGID_00000086663142086386755190000000910167037089566138_" gradientUnits="userSpaceOnUse" x1="-10.7652" y1="-417.65" x2="223.8348" y2="-417.65" gradientTransform="matrix(1 0 0 -1 18.41 -321.25)">
							<stop  offset="0" style="stop-color:#A97A2B"/>
							<stop  offset="0.2" style="stop-color:#CA9A4D"/>
							<stop  offset="0.38" style="stop-color:#F7D56D"/>
							<stop  offset="0.62" style="stop-color:#916425"/>
							<stop  offset="0.73" style="stop-color:#F7D56D"/>
							<stop  offset="0.85" style="stop-color:#68451F"/>
							<stop  offset="1" style="stop-color:#BF8A3F"/>
						</linearGradient>
						
							<rect x="7.6" y="52.1" style="fill:url(#SVGID_00000086663142086386755190000000910167037089566138_);" width="234.6" height="88.6"/>
					</g>
				</g>
			</g>
		</g>
		<g>
			<defs>
				<path id="SVGID_00000080199476198188279220000013186540532158973116_" d="M171.1,113.3l0.2,0.2v0.2c0,1.8-1.9,8.8-3.4,8.8h-0.2
					c-0.4-0.1-0.5-0.6-0.5-1.1c0.1-1.2,0.3-2.4,0.8-3.5C168.7,116.2,169.7,114.6,171.1,113.3 M170.5,112.4c-1.5,1.3-2.7,3-3.5,4.8
					c-0.6,1.3-0.9,2.7-1,4.1c-0.1,1,0.4,2,1.3,2.4c0.2,0.1,0.5,0.1,0.7,0.1c0.5,0,1.1-0.2,1.5-0.5c2.4-1.7,3.5-6.1,3.5-8.9
					c1.2,0.5,2.6,0.8,3.9,0.9c1.7,0.1,3.1,0.2,4.3,0.2c1.3,0,2.7-0.1,4-0.3c0.3-0.1,0.5-0.4,0.5-0.7c0-0.3-0.2-0.6-0.5-0.6H185
					c-1.7,0.4-3.4,0.6-5.2,0.6c-0.9,0-2,0-3.1-0.1c-1.5,0-2.9-0.6-4-1.7c-0.1-0.7-0.5-1.3-1.2-1.6c-0.1-0.1-0.2-0.1-0.3-0.1
					c-0.2,0-0.4,0.1-0.5,0.2c-0.2,0.1-0.3,0.4-0.3,0.6c0,0.1,0,0.3,0.1,0.4C170.4,112.3,170.4,112.3,170.5,112.4z"/>
			</defs>
			<clipPath id="SVGID_00000141413970285339599580000007202402715562862519_">
				<use xlink:href="#SVGID_00000080199476198188279220000013186540532158973116_"  style="overflow:visible;"/>
			</clipPath>
			<g style="clip-path:url(#SVGID_00000141413970285339599580000007202402715562862519_);">
				<g>
					<defs>
						<rect id="SVGID_00000043435407696808277850000016228203680598344611_" x="7.6" y="52.1" width="234.6" height="88.6"/>
					</defs>
					<clipPath id="SVGID_00000182528263193808951120000009971750456548507578_">
						<use xlink:href="#SVGID_00000043435407696808277850000016228203680598344611_"  style="overflow:visible;"/>
					</clipPath>
					<g style="clip-path:url(#SVGID_00000182528263193808951120000009971750456548507578_);">
						
							<linearGradient id="SVGID_00000087400650172441962490000009323325353969576605_" gradientUnits="userSpaceOnUse" x1="-10.7652" y1="-417.65" x2="223.8348" y2="-417.65" gradientTransform="matrix(1 0 0 -1 18.41 -321.25)">
							<stop  offset="0" style="stop-color:#A97A2B"/>
							<stop  offset="0.2" style="stop-color:#CA9A4D"/>
							<stop  offset="0.38" style="stop-color:#F7D56D"/>
							<stop  offset="0.62" style="stop-color:#916425"/>
							<stop  offset="0.73" style="stop-color:#F7D56D"/>
							<stop  offset="0.85" style="stop-color:#68451F"/>
							<stop  offset="1" style="stop-color:#BF8A3F"/>
						</linearGradient>
						
							<rect x="7.6" y="52.1" style="fill:url(#SVGID_00000087400650172441962490000009323325353969576605_);" width="234.6" height="88.6"/>
					</g>
				</g>
			</g>
		</g>
		<g>
			<defs>
				<path id="SVGID_00000113327210526548862660000003796914970317901743_" d="M189.7,118c-0.4,0.5-0.7,1.1-0.8,1.7
					c0,0.2,0,0.3,0.1,0.4c0.1,0.2,0.3,0.3,0.5,0.3c0.8-0.1,1.5-0.6,1.7-1.4c0-0.1,0.1-0.3,0.1-0.4c0-0.6-0.3-1.1-0.8-1.1
					C190.2,117.6,190,117.8,189.7,118"/>
			</defs>
			<clipPath id="SVGID_00000164475450292829483900000013219218700035229066_">
				<use xlink:href="#SVGID_00000113327210526548862660000003796914970317901743_"  style="overflow:visible;"/>
			</clipPath>
			<g style="clip-path:url(#SVGID_00000164475450292829483900000013219218700035229066_);">
				<g>
					<defs>
						<rect id="SVGID_00000010309091004486039030000013195096664152353175_" x="7.6" y="52.1" width="234.6" height="88.6"/>
					</defs>
					<clipPath id="SVGID_00000147921781566521937120000008515083880362813072_">
						<use xlink:href="#SVGID_00000010309091004486039030000013195096664152353175_"  style="overflow:visible;"/>
					</clipPath>
					<g style="clip-path:url(#SVGID_00000147921781566521937120000008515083880362813072_);">
						
							<linearGradient id="SVGID_00000003086979396974522480000004134156833366786997_" gradientUnits="userSpaceOnUse" x1="-10.7652" y1="-417.65" x2="223.8348" y2="-417.65" gradientTransform="matrix(1 0 0 -1 18.41 -321.25)">
							<stop  offset="0" style="stop-color:#A97A2B"/>
							<stop  offset="0.2" style="stop-color:#CA9A4D"/>
							<stop  offset="0.38" style="stop-color:#F7D56D"/>
							<stop  offset="0.62" style="stop-color:#916425"/>
							<stop  offset="0.73" style="stop-color:#F7D56D"/>
							<stop  offset="0.85" style="stop-color:#68451F"/>
							<stop  offset="1" style="stop-color:#BF8A3F"/>
						</linearGradient>
						
							<rect x="7.6" y="52.1" style="fill:url(#SVGID_00000003086979396974522480000004134156833366786997_);" width="234.6" height="88.6"/>
					</g>
				</g>
			</g>
		</g>
		<path class="st0" d="M108.1,116.7l-0.5-0.3l0,0c-0.2,0-0.3,0.7-0.3,1.2c0,0.3,0,0.5,0.1,0.5l0,0l5.9-0.2l0,0
			c0.1,0,0.2-0.2,0.2-0.5s-0.1-0.7-0.2-0.7l-2.4,0.1L108.1,116.7z"/>
		<g>
			<defs>
				<path id="SVGID_00000001653433584017265280000011594532773935608249_" d="M108.1,116.7l-0.5-0.3l0,0c-0.2,0-0.3,0.7-0.3,1.2
					c0,0.3,0,0.5,0.1,0.5l0,0l5.9-0.2l0,0c0.1,0,0.2-0.2,0.2-0.5s-0.1-0.7-0.2-0.7l-2.4,0.1L108.1,116.7z"/>
			</defs>
			<clipPath id="SVGID_00000017493456794548724750000006947316394404144809_">
				<use xlink:href="#SVGID_00000001653433584017265280000011594532773935608249_"  style="overflow:visible;"/>
			</clipPath>
			<g style="clip-path:url(#SVGID_00000017493456794548724750000006947316394404144809_);">
				<g>
					<defs>
						<rect id="SVGID_00000090977275803266742020000010922064924932771223_" x="7.6" y="52.1" width="234.6" height="88.6"/>
					</defs>
					<clipPath id="SVGID_00000079478416209578403790000010701166057470490005_">
						<use xlink:href="#SVGID_00000090977275803266742020000010922064924932771223_"  style="overflow:visible;"/>
					</clipPath>
					<g style="clip-path:url(#SVGID_00000079478416209578403790000010701166057470490005_);">
						
							<linearGradient id="SVGID_00000163780910606150555470000010967088372042073985_" gradientUnits="userSpaceOnUse" x1="-10.7652" y1="-417.65" x2="223.8348" y2="-417.65" gradientTransform="matrix(1 0 0 -1 18.41 -321.25)">
							<stop  offset="0" style="stop-color:#A97A2B"/>
							<stop  offset="0.2" style="stop-color:#CA9A4D"/>
							<stop  offset="0.38" style="stop-color:#F7D56D"/>
							<stop  offset="0.62" style="stop-color:#916425"/>
							<stop  offset="0.73" style="stop-color:#F7D56D"/>
							<stop  offset="0.85" style="stop-color:#68451F"/>
							<stop  offset="1" style="stop-color:#BF8A3F"/>
						</linearGradient>
						
							<rect x="7.6" y="52.1" style="fill:url(#SVGID_00000163780910606150555470000010967088372042073985_);" width="234.6" height="88.6"/>
					</g>
				</g>
			</g>
		</g>
		<g>
			<defs>
				<path id="SVGID_00000090270101030638612940000003061085728487977870_" d="M105.8,0c46.5,0,87.6,30.4,101.2,74.9l-3.2,0.4
					C187,21.2,129.5-9,75.4,7.8S-9,82.2,7.9,136.3c8.5,27.4,28.2,50,54.2,62.3l-0.7,3.2c-53-24.6-76.1-87.5-51.5-140.5
					C27.2,23.9,64.6,0,105.8,0"/>
			</defs>
			<clipPath id="SVGID_00000013894254758869720970000006175086644738964886_">
				<use xlink:href="#SVGID_00000090270101030638612940000003061085728487977870_"  style="overflow:visible;"/>
			</clipPath>
			<g style="clip-path:url(#SVGID_00000013894254758869720970000006175086644738964886_);">
				<g>
					<defs>
						<rect id="SVGID_00000068637848051264172990000011040149917644501906_" x="-18.4" y="-9.8" width="250.9" height="226.6"/>
					</defs>
					<clipPath id="SVGID_00000088826402486045683360000008592307240907347135_">
						<use xlink:href="#SVGID_00000068637848051264172990000011040149917644501906_"  style="overflow:visible;"/>
					</clipPath>
					<g style="clip-path:url(#SVGID_00000088826402486045683360000008592307240907347135_);">
						
							<linearGradient id="SVGID_00000103974174235514763290000010721806026201446567_" gradientUnits="userSpaceOnUse" x1="-36.7652" y1="-424.75" x2="214.1348" y2="-424.75" gradientTransform="matrix(1 0 0 -1 18.41 -321.25)">
							<stop  offset="0" style="stop-color:#A97A2B"/>
							<stop  offset="0.2" style="stop-color:#CA9A4D"/>
							<stop  offset="0.38" style="stop-color:#F7D56D"/>
							<stop  offset="0.62" style="stop-color:#916425"/>
							<stop  offset="0.73" style="stop-color:#F7D56D"/>
							<stop  offset="0.85" style="stop-color:#68451F"/>
							<stop  offset="1" style="stop-color:#BF8A3F"/>
						</linearGradient>
						
							<rect x="-18.4" y="-9.8" style="fill:url(#SVGID_00000103974174235514763290000010721806026201446567_);" width="250.9" height="226.6"/>
					</g>
				</g>
			</g>
		</g>
		<path class="st22" d="M203.1,87.7h0.1v-0.2c-0.1-0.4,0.1-0.8,0.5-0.9c0,0,0,0,0,0l5.7-1l-5.4,8.3v0.2c0.6-0.2,1.1-0.3,1.7-0.4
			l5.9-1.1c0.4-0.1,0.8,0.2,0.9,0.6l0,0v0.2h0.1l-0.5-2.6H212V91c0.1,0.4-0.2,0.8-0.6,0.9l-5.7,1.1l5.5-8.4v-0.1
			c-0.6,0.2-1.1,0.3-1.7,0.5l-5.9,1.1c-0.4,0-0.8-0.2-0.8-0.6v-0.2h-0.1L203.1,87.7z M212.8,100.7c0.3,2.2-1.3,4.2-3.5,4.4
			s-4.2-1.3-4.4-3.5s1.3-4.2,3.5-4.4c0,0,0,0,0,0h0.3c2-0.2,3.9,1.2,4.1,3.3c0,0,0,0,0,0C212.9,100.5,212.9,100.6,212.8,100.7
			L212.8,100.7z M204.5,100.9c0.2,2.4,2.4,4.1,4.8,3.9c2.4-0.2,4.1-2.4,3.9-4.8c-0.2-2.3-2.2-4-4.5-4c-2.4,0.1-4.3,2.1-4.2,4.5
			c0,0.1,0,0.2,0,0.2C204.5,100.7,204.5,100.9,204.5,100.9z M211.3,107.8c0.9,0.3,1.5,1.3,1.4,2.3l-0.2,2.2l-7-0.5
			c-0.4-0.1-0.7-0.5-0.7-0.9v-0.2h-0.1l-0.2,2.9h0.1v-0.2c0-0.4,0.4-0.8,0.8-0.8l6.6,0.5c0.4,0.1,0.7,0.5,0.7,0.9v0.2h0.1l0.4-5.7
			l-2-0.9L211.3,107.8z M208.7,122.4l-3.5-2.1l4-1.1L208.7,122.4z M203.6,120L203.6,120c0.5,0.3,1,0.5,1.4,0.8l5.8,3.6
			c0.4,0.2,0.7,0.7,0.7,1.2v0.1h0.1l0.3-2.6h-0.2v0.1c0,0.3-0.3,0.5-0.7,0.5c-0.1,0-0.2-0.1-0.3-0.1l-1.7-1l0.4-3.5l1.9-0.5
			c0.3-0.1,0.6,0,0.7,0.3c0,0,0,0,0,0v0.4h0.1l0.4-2.9h-0.1v0.1c-0.1,0.5-0.5,0.9-1,1L203.6,120z M204.5,130
			c-0.3,0.3-0.8,0.4-1.2,0.3c-0.8-0.3-1.2-1.1-0.9-1.9c0,0,0,0,0,0c0.2-1.1,0.8-1.5,1.6-1.3v-0.2l-1.5-0.3l-0.1,0.5
			c-0.2,0.4-0.4,0.9-0.5,1.3c-0.4,1.1,0.2,2.3,1.4,2.7c0,0,0,0,0,0l0,0c0.6,0.1,1.1,0,1.6-0.3l2.8-2.2c0.3-0.3,0.8-0.4,1.2-0.2
			c0.9,0.2,1.3,1,1.1,2.2c-0.1,0.9-0.9,1.6-1.8,1.6c-0.2,0-0.3-0.1-0.5-0.1v0.2c0.5,0.3,1.1,0.5,1.7,0.5c0.6-0.6,1-1.4,1.2-2.2
			c0.4-1.2-0.3-2.5-1.5-2.9c0,0-0.1,0-0.1,0l0,0c-0.6-0.1-1.1,0-1.6,0.3L204.5,130z M199.3,138.3l0.1,0.1v-0.2
			c0-0.2,0.3-0.4,0.5-0.3c0,0,0.1,0,0.1,0c0.1,0,0.1,0,0.2,0.1l2.7,3.2l-4.1,0.7c-0.3,0-0.5-0.2-0.5-0.4c0,0,0,0,0-0.1v-0.3h-0.1
			l-1.1,3.1h0.1V144c0.2-0.5,0.6-0.9,1.1-1l4.7-1.1l2.4,0.8c0.4,0.2,0.6,0.6,0.5,1l-0.1,0.2h0.1l0.9-2.7h-0.1l-0.1,0.1
			c-0.1,0.4-0.5,0.6-0.9,0.5c0,0-0.1,0-0.1,0l0,0l-2.4-0.8l-3-3.9c-0.3-0.4-0.4-0.9-0.2-1.4l0.1-0.2H200L199.3,138.3z M194.2,150.6
			c-0.2,0.5-0.5,0.9-0.8,1.3l1.4,0.6l0.1-0.1l-0.2-0.1c-0.4-0.1-0.5-0.5-0.4-0.9l0,0l1-2.3l6.5,2.9c0.4,0.2,0.5,0.6,0.4,1l-0.1,0.1
			l0.1,0.1l1.2-2.6l-0.1-0.1l-0.1,0.1c-0.1,0.4-0.6,0.6-0.9,0.4c0,0,0,0-0.1,0l-6.5-2.8l1-2.3c0.2-0.3,0.5-0.5,0.9-0.4l0,0l0.2,0.1
			l0.1-0.1l-1.4-0.6c-0.1,0.5-0.2,1-0.4,1.5L194.2,150.6z M191.6,155.2l0.1,0.1l0.1-0.2c0.1-0.3,0.5-0.4,0.8-0.3l0,0l4.1,2.4
			c1.3,0.6,1.8,2.2,1.2,3.5c-0.1,0.1-0.1,0.3-0.2,0.4c-0.7,1.2-2.2,1.7-3.5,1c-0.1-0.1-0.2-0.1-0.3-0.2l-3.9-2.3
			c-0.3-0.2-0.4-0.6-0.2-0.9c0,0,0,0,0,0l0,0l0.1-0.2l-0.1-0.1l-1.3,2.3l0.1,0.1l0.1-0.2c0.2-0.3,0.6-0.4,0.9-0.3l4.1,2.4
			c1.7,1,3.4,0.4,4.5-1.5s0.7-3.6-1-4.6l-4.1-2.4c-0.3-0.2-0.4-0.6-0.2-0.9c0,0,0,0,0,0l0.1-0.2l-0.1-0.1L191.6,155.2z M188.4,169.2
			l-2-3.6l4,1.1L188.4,169.2z M185.2,164.5l-0.1,0.1c0.3,0.4,0.6,0.8,0.8,1.3l3.2,6c0.3,0.4,0.3,1,0,1.4l-0.1,0.1l0.1,0.1l1.6-2.1
			l-0.1-0.1l-0.1,0.1c-0.2,0.2-0.5,0.3-0.7,0.2c0,0,0,0-0.1-0.1c-0.1-0.1-0.1-0.2-0.2-0.3l-1-1.7l2.2-2.8l1.9,0.5
			c0.3,0.1,0.5,0.4,0.5,0.7c0,0.1,0,0.1-0.1,0.2l-0.1,0.1l0.1,0.1l1.8-2.3l-0.1-0.1l-0.1,0.1c-0.3,0.4-0.8,0.5-1.3,0.4L185.2,164.5z
			 M186.4,173.7l-0.1,0.1c0.6,0.9,0.4,2-0.3,2.7l-1.4,1.6l-2.7-2.3l1.6-1.9c0.2-0.2,0.6-0.2,0.8,0l0,0l0.1,0.1l0.1-0.1l-1.4-1.3
			l-0.1,0.1l0.1,0.1c0.2,0.2,0.3,0.5,0.1,0.8l-0.1,0.1l-1.6,1.8l-2.7-2.3l1.9-2.2c0.3-0.3,0.7-0.3,1-0.1l0,0l0.2,0.1l0.1-0.1l-1.2-1
			c-0.2,0.5-0.5,0.9-0.9,1.3l-2.7,3.1l0.1,0.1l0.1-0.1c0.3-0.3,0.8-0.4,1.1-0.1c0,0,0,0,0,0l0,0l5,4.4c0.3,0.3,0.3,0.8,0,1.1
			l-0.1,0.1l0.1,0.1l3.7-4.3L186.4,173.7z M177.9,184.8l-5.2-5.5l0.7-0.7c0.9-0.9,1.8-1,2.6-0.1c1.1,1.1,0.1,2.2-0.6,2.9l0.1,0.1
			c1.1-1,2.5-2,3.8-0.7c0.7,0.7,0.8,1.8,0.1,2.6c-0.1,0.1-0.2,0.2-0.3,0.2L177.9,184.8z M171,180.4l0.1,0.1l0.1-0.1
			c0.3-0.3,0.8-0.3,1.1,0l0,0l4.6,4.8c0.3,0.3,0.2,0.8-0.1,1.1l-0.1,0.1l0.1,0.1l2.5-2.4c1-1,1.9-2.5,0.6-3.9
			c-0.9-0.8-2.3-0.8-3.2,0c0.5-0.7,0.5-1.7-0.1-2.3c-1.3-1.3-2.8-0.2-3.5,0.5L171,180.4z M168.7,192.5c-1.7,1.2-3.3,0.9-4.3-0.4
			c-0.5-0.7-0.7-1.6-0.6-2.4c0.8,0.2,1.7,0.4,2.5,0.4c1,0.1,2,0.2,3.5,0.3C169.8,191.2,169.4,192,168.7,192.5L168.7,192.5z
			 M169.3,185.9l-0.1-0.1l-2.3,1.6l0.1,0.1l0.2-0.1c0.3-0.2,0.8-0.2,1.1,0c0.8,0.5,1.3,1.2,1.5,2.1c-1.5-0.1-2.6-0.2-3.4-0.3
			c-1.9-0.2-3.1-0.5-3.8-1.4c-0.6-0.8-0.6-1.9,0.2-2.6c0.1,0,0.1,0,0.1-0.1v0c0.9-0.6,2.1-0.4,2.8,0.5l0.1,0.1l0.1-0.1l-0.7-1.4
			c-0.9-0.2-1.8,0-2.5,0.6c-1.4,1-1.7,2.5-0.9,3.6c0.4,0.5,0.9,0.9,1.5,1.2c-0.6,1-0.5,2.2,0.1,3.1c1.2,1.7,3.2,1.8,5.4,0.2
			c0.8-0.5,1.4-1.4,1.5-2.3c1.1,0,2.1-0.4,2.9-1.1l-0.1-0.1c-0.9,0.4-1.9,0.5-2.8,0.3c-0.1-1.1-0.7-2-1.5-2.7
			c-0.2-0.1-0.4-0.3-0.3-0.6c0,0,0,0,0,0c0.1-0.2,0.2-0.3,0.4-0.3L169.3,185.9z M154.3,192.2l0.1,0.1l0.2-0.1c0.3-0.2,0.7-0.1,1,0.2
			c0,0,0,0.1,0,0.1l2.6,5.2l-9.6-2.9l-0.1,0.1l0.9,1.5l2.7,5.4c0.2,0.4,0,0.8-0.3,1c0,0,0,0-0.1,0l-0.2,0.1l0.1,0.1l2.4-1.2
			l-0.1-0.1l-0.2,0.1c-0.4,0.2-0.8,0-1-0.3l-2.6-5.2l9.6,2.9l0.1-0.1l-0.9-1.5l-2.7-5.3c-0.2-0.4,0-0.8,0.3-1c0,0,0,0,0.1,0l0.2-0.1
			l-0.1-0.1L154.3,192.2z M144.7,205.6c-2,1-4.4,0.1-5.3-1.9c-1-2-0.1-4.4,1.9-5.3c2-1,4.4-0.1,5.3,1.9c0,0,0,0,0,0
			c0.1,0.1,0.1,0.2,0.1,0.3c0.8,1.9,0,4.1-1.9,4.9c0,0,0,0,0,0L144.7,205.6z M141.6,197.8c-2.2,1.1-3,3.8-1.9,6c1.1,2.1,3.6,3,5.7,2
			c2.1-1,3.1-3.4,2.2-5.6c-0.9-2.3-3.5-3.4-5.8-2.5c0,0,0,0,0,0C141.7,197.7,141.6,197.7,141.6,197.8z M137.7,208.3v-0.1l-0.2,0.1
			c-0.4,0.2-0.9,0-1.1-0.4c0,0,0-0.1,0-0.1l-1.8-6.4c-0.1-0.4,0.2-0.9,0.6-1c0,0,0.1,0,0.1,0h0.2v-0.1l-3.1,0.9v0.1h0.2
			c0.4-0.2,0.9,0,1.1,0.4c0,0,0,0.1,0,0.1l1.8,6.4c0.1,0.4-0.2,0.9-0.6,1c0,0-0.1,0-0.1,0l-0.2,0.1v0.1L137.7,208.3z M124.5,203
			c-0.5,0.1-1.1,0.2-1.6,0.1l0.3,1.5h0.2v-0.2c-0.1-0.4,0.1-0.8,0.5-0.9c0,0,0,0,0,0l0,0l2.5-0.6l1.6,6.9c0.1,0.4-0.2,0.8-0.6,0.9
			h-0.1v0.1l2.8-0.6h-0.2c-0.4,0.1-0.8-0.1-1-0.5l0,0l-1.6-6.9l2.5-0.6c0.3-0.1,0.7,0.1,0.8,0.4c0,0,0,0.1,0,0.1l0,0v0.2h0.1
			l-0.4-1.5c-0.5,0.2-1,0.4-1.5,0.6L124.5,203z M117.5,209.2l1.1-4l2,3.6L117.5,209.2z M118.6,203.7L118.6,203.7
			c-0.2,0.5-0.3,1-0.5,1.5l-2.1,6.5c-0.1,0.5-0.5,0.8-1,0.9h-0.1v0.1l2.6-0.3v-0.1h-0.1c-0.3,0-0.6-0.3-0.6-0.6c0-0.1,0-0.1,0-0.2
			l0.5-1.9l3.5-0.4l1,1.8c0.2,0.2,0.1,0.6-0.1,0.8c0,0-0.1,0-0.1,0c-0.1,0-0.1,0-0.2,0.1h-0.1v0.1l2.9-0.4v-0.1h-0.1
			c-0.5,0-0.9-0.3-1.2-0.7L118.6,203.7z M113.4,212.8c-0.5,0-1-0.2-1.4-0.6l-2.6-3.5l2.2-3.2c0.3-0.4,0.8-0.7,1.3-0.8h0.2v-0.1
			l-3.1,0.1v0.1h0.1c0.3,0,0.5,0.2,0.5,0.4c0,0,0,0,0,0.1v0.3l-1.6,2.6l-1.9-2.5c-0.1-0.2,0-0.6,0.2-0.7c0.1,0,0.2-0.1,0.3-0.1h0.2
			v-0.1l-3.3,0.1v0.1h0.2c0.5,0,1,0.2,1.4,0.6l2.5,3.3l-2.5,3.4c-0.3,0.4-0.8,0.7-1.3,0.7h-0.2v0.1l3-0.1v-0.1h-0.2
			c-0.4,0-0.7-0.4-0.5-0.7l2-2.8l2,2.7c0.1,0.2,0,0.6-0.2,0.7c-0.1,0-0.2,0.1-0.3,0.1h-0.2v0.2l3.3-0.1L113.4,212.8L113.4,212.8z
			 M97.1,209.4l1.9-3.7l1.3,3.9L97.1,209.4z M99.3,204.2h-0.2c-0.2,0.5-0.4,1-0.7,1.4l-3.4,6c-0.2,0.4-0.7,0.7-1.2,0.7h-0.1v0.1
			l2.7,0.2v-0.1h-0.1c-0.3,0-0.5-0.2-0.5-0.5c0,0,0-0.1,0-0.1c0-0.1,0-0.2,0.1-0.3l0.9-1.8l3.5,0.3l0.6,1.9c0.1,0.3,0,0.6-0.3,0.8
			h-0.3v0.1l2.9,0.2v-0.2h-0.1c-0.5-0.1-0.9-0.4-1-0.9L99.3,204.2z M92.4,210.3c-0.5,0.9-1.5,1.4-2.5,1.1l-2.2-0.4l1.3-7
			c0.1-0.4,0.6-0.7,1-0.6h0.2v-0.1l-2.9-0.5v0.1h0.2c0.4,0.1,0.7,0.5,0.7,0.9l-1.2,6.5c-0.1,0.4-0.5,0.7-0.9,0.6h-0.2v0.1l5.6,1
			l1.1-1.8L92.4,210.3z M83.8,208.7h-0.2c-0.5,0.9-1.5,1.3-2.5,1l-2.1-0.5l0.8-3.5l2.4,0.6c0.3,0.1,0.5,0.3,0.4,0.6v0.3h0.2l0.4-1.9
			H83v0.2c0,0.3-0.3,0.5-0.6,0.5h-0.1l-2.3-0.5l0.8-3.5l2.8,0.7c0.3,0.1,0.6,0.4,0.5,0.7c0,0,0,0.1,0,0.1v0.3h0.2l0.4-1.5
			c-0.5,0-1.1,0-1.6-0.1l-4-0.9v0.1h0.2c0.4,0.1,0.7,0.4,0.6,0.8c0,0,0,0,0,0.1l0,0l-1.7,6.5c-0.1,0.4-0.5,0.6-0.9,0.5
			c0,0-0.1,0-0.1,0H77v0.1l5.5,1.3L83.8,208.7z M69.8,198v0.1l0.2,0.1c0.4,0.1,0.6,0.5,0.5,0.9c0,0,0,0,0,0l0,0l-2.2,6.3
			c-0.1,0.4-0.6,0.6-0.9,0.4c0,0,0,0-0.1,0l-0.2-0.1v0.1l2.7,0.9v-0.1l-0.2-0.1c-0.4-0.2-0.6-0.6-0.5-1l0,0l2.3-6.7
			c0.5,0.1,1,0.3,1.5,0.5c0.9,0.2,1.4,1.1,1.2,2c0,0,0,0.1,0,0.1v0.1c-0.1,0.2-0.2,0.5-0.3,0.7c-0.5,0.7-1.5,0.9-2.3,0.5l-0.8-0.3
			v0.1c0.5,0.3,0.9,0.8,1,1.4c0.1,0.2,0.6,2,0.7,2.3c0.3,1,1.1,1.7,2.1,2l0.4,0.1v-0.1c-0.7-0.3-1.1-0.9-1.3-1.6
			c-0.3-0.8-0.7-1.9-0.7-1.9c-0.1-0.5-0.4-1-0.7-1.4c1.2,0.3,2.4-0.3,2.8-1.5c0.5-1.3-0.3-2.5-2-3.1L69.8,198z"/>
	</g>
</g>
</svg>
