<?xml version="1.0" standalone="no"?>
<!DOCTYPE svg PUBLIC "-//W3C//DTD SVG 20010904//EN"
 "http://www.w3.org/TR/2001/REC-SVG-20010904/DTD/svg10.dtd">
<svg version="1.0" xmlns="http://www.w3.org/2000/svg"
 width="700.000000pt" height="700.000000pt" viewBox="0 0 700.000000 700.000000"
 preserveAspectRatio="xMidYMid meet">
<metadata>
Created by potrace 1.14, written by Peter Selinger 2001-2017
</metadata>
<g transform="translate(0.000000,700.000000) scale(0.100000,-0.100000)"
fill="#000000" stroke="none">
<path d="M3385 6970 c-6 -29 -9 -30 -63 -31 -31 -1 -68 -2 -82 -4 -14 -1 -56
-5 -95 -9 -38 -4 -81 -9 -95 -11 -19 -3 -29 2 -41 24 l-17 29 -68 -14 c-38 -8
-85 -18 -104 -22 -19 -4 -36 -13 -36 -19 -1 -7 -2 -19 -3 -27 -1 -14 -17 -22
-58 -30 -41 -9 -83 -20 -181 -48 l-103 -29 -18 22 -18 23 -99 -36 c-93 -33
-99 -37 -99 -63 0 -15 -7 -31 -15 -36 -50 -27 -295 -139 -303 -139 -6 0 -18 7
-28 16 -17 15 -24 12 -109 -36 -87 -50 -91 -54 -85 -80 6 -27 0 -32 -97 -99
-57 -39 -122 -85 -145 -103 -40 -29 -43 -30 -65 -16 -27 18 -27 18 -112 -55
-27 -23 -56 -47 -63 -52 -11 -8 -12 -17 -4 -38 11 -27 6 -33 -114 -152 -118
-118 -126 -124 -151 -115 -15 6 -28 9 -30 8 -1 -2 -32 -39 -68 -82 -65 -78
-66 -80 -50 -104 15 -23 15 -26 -5 -51 -11 -14 -55 -79 -98 -143 -75 -112 -79
-116 -112 -115 -32 2 -35 -1 -84 -86 -50 -88 -50 -88 -30 -108 20 -20 20 -20
-37 -137 -31 -64 -62 -133 -70 -152 -19 -50 -28 -59 -55 -54 -27 5 -30 -1 -75
-130 l-24 -68 22 -18 23 -19 -36 -121 c-19 -67 -35 -129 -36 -138 0 -10 -5
-33 -12 -52 -9 -27 -17 -35 -37 -35 -24 0 -26 -5 -46 -105 l-21 -105 26 -15
c14 -8 26 -22 25 -30 -1 -19 -15 -167 -19 -200 -2 -14 -4 -51 -4 -82 -1 -54
-2 -57 -31 -63 l-30 -7 0 -107 0 -107 30 -11 c26 -10 30 -16 31 -50 1 -72 17
-252 25 -289 4 -16 -2 -24 -25 -34 -17 -7 -29 -15 -27 -19 3 -3 7 -27 11 -51
11 -76 25 -143 30 -149 3 -3 15 -6 27 -8 12 -2 23 -5 25 -7 2 -2 13 -41 24
-87 11 -46 24 -97 29 -114 45 -145 44 -135 21 -151 -27 -20 -27 -23 13 -129
31 -81 37 -90 59 -90 32 0 38 -7 67 -75 12 -30 42 -95 66 -143 49 -99 50 -102
28 -124 -18 -19 -16 -26 43 -126 43 -74 48 -79 74 -73 27 5 33 -2 109 -112 45
-64 90 -129 102 -143 19 -25 19 -28 4 -51 -16 -24 -15 -26 50 -104 36 -43 69
-80 74 -82 5 -2 18 2 29 8 18 9 34 -3 146 -114 118 -119 124 -127 115 -152 -6
-15 -9 -28 -8 -29 2 -2 39 -33 82 -69 78 -64 81 -65 104 -50 23 15 26 15 51
-4 14 -12 79 -58 144 -102 112 -77 118 -83 112 -110 -6 -26 -2 -30 83 -79 97
-55 107 -59 116 -36 8 23 26 19 122 -29 49 -24 114 -54 144 -66 68 -29 74 -34
75 -66 0 -23 9 -29 90 -60 106 -40 109 -40 129 -13 14 20 16 21 63 5 26 -8
102 -29 168 -46 65 -17 120 -32 122 -33 1 -2 4 -14 6 -28 3 -22 12 -26 108
-45 l104 -21 15 29 c10 22 20 28 35 24 39 -9 193 -23 273 -25 50 -1 55 -3 65
-31 l11 -30 106 0 106 0 11 30 c11 28 14 30 70 31 32 0 65 2 73 3 8 2 52 6 97
10 46 4 91 9 102 11 13 2 23 -5 31 -25 11 -26 14 -27 48 -20 20 5 53 11 72 14
99 16 110 21 110 57 0 15 35 29 115 45 11 2 66 18 123 34 l103 31 18 -23 19
-22 68 24 c128 44 133 47 129 76 -2 24 5 29 89 68 50 24 122 58 159 76 56 28
71 32 85 22 9 -7 22 -15 28 -17 6 -3 50 17 98 45 83 49 87 53 81 80 -6 27 0
32 97 99 57 39 122 85 145 103 40 29 43 30 66 15 24 -16 27 -14 103 49 44 36
80 67 82 68 1 2 -2 15 -8 30 -9 26 -4 33 115 151 119 119 126 124 152 114 22
-8 30 -7 40 7 6 9 25 30 40 48 82 92 84 95 67 122 -16 23 -15 26 12 64 16 22
61 86 100 142 66 94 75 103 104 103 30 0 36 6 81 85 27 47 49 88 49 92 0 4 -7
13 -15 22 -21 20 -20 23 29 122 24 49 54 114 66 144 31 73 39 82 67 76 25 -7
28 -1 73 128 l24 68 -22 19 -23 18 30 103 c26 90 48 177 55 215 3 18 9 22 37
26 22 4 26 12 45 107 l21 102 -27 17 c-17 10 -26 23 -24 36 9 59 21 208 23
281 1 49 3 52 31 58 l30 6 0 108 0 108 -30 11 c-29 11 -30 14 -31 72 -1 34 -2
64 -3 69 -1 4 -6 48 -10 97 -4 50 -9 98 -11 107 -2 10 7 21 24 28 l28 11 -14
72 c-7 40 -16 85 -19 102 -6 35 -8 38 -36 42 -27 4 -35 16 -43 62 -3 20 -22
92 -41 160 -35 123 -35 123 -14 138 26 18 26 22 -14 128 -33 87 -35 90 -64 88
-27 -1 -32 3 -48 45 -9 26 -41 96 -71 156 -29 60 -53 113 -53 119 0 6 7 19 16
28 16 17 13 24 -34 106 -47 83 -52 88 -80 86 -29 -3 -36 4 -102 100 -38 56
-84 121 -102 144 -30 40 -30 43 -15 67 16 24 15 26 -49 103 -37 43 -68 79 -69
81 -1 1 -14 -2 -29 -8 -26 -9 -33 -4 -152 114 -119 119 -124 126 -114 152 6
15 7 30 3 34 -4 4 -41 35 -81 69 -72 59 -74 60 -98 44 -23 -15 -27 -14 -62 11
-20 15 -86 61 -145 103 -102 71 -108 77 -102 103 6 27 1 31 -82 80 -69 41 -91
49 -103 41 -31 -23 -42 -22 -98 4 -31 16 -97 47 -147 69 -118 54 -116 53 -109
81 7 27 1 30 -130 75 l-68 24 -19 -22 -18 -23 -83 25 c-72 22 -197 54 -235 60
-18 3 -22 9 -26 37 -3 22 -12 26 -108 45 l-104 20 -18 -29 c-13 -22 -23 -28
-40 -24 -53 13 -178 24 -284 26 -38 1 -42 4 -48 31 l-7 30 -108 0 -108 0 -7
-30z m394 -234 c47 -5 92 -9 100 -11 9 -1 41 -6 71 -10 30 -4 62 -9 70 -10 8
-1 35 -6 60 -10 168 -26 492 -124 690 -208 845 -359 1515 -1082 1806 -1952 54
-162 114 -401 129 -515 1 -8 5 -37 9 -65 22 -159 30 -293 30 -480 -1 -333 -44
-610 -146 -940 -22 -71 -45 -143 -52 -160 -7 -16 -23 -57 -36 -90 -13 -33 -53
-123 -91 -200 -304 -627 -799 -1137 -1422 -1464 -380 -200 -813 -324 -1247
-357 -166 -13 -594 -5 -620 11 -3 2 -32 6 -65 9 -49 6 -138 20 -245 41 -68 13
-248 64 -355 99 -905 303 -1646 1012 -1993 1906 -73 189 -156 494 -177 650 -5
41 -17 124 -21 144 -16 91 -23 430 -11 611 9 141 41 358 73 495 9 36 17 73 19
83 10 48 91 293 127 382 42 105 148 326 197 410 17 28 37 64 47 80 73 128 271
390 383 508 113 118 139 144 226 222 412 370 933 640 1446 750 41 9 83 18 94
21 11 2 34 6 50 9 17 3 41 8 55 10 39 8 171 24 257 31 43 4 79 7 80 8 6 5 389
-2 462 -8z"/>
<path d="M3270 6709 c-213 -19 -224 -20 -400 -55 -369 -72 -741 -219 -1060
-418 -218 -135 -380 -266 -581 -466 -147 -147 -181 -184 -239 -260 -14 -18
-30 -38 -35 -44 -6 -6 -39 -50 -73 -99 -174 -245 -296 -475 -404 -762 -16 -44
-31 -87 -33 -95 -2 -8 -13 -42 -24 -75 -20 -62 -66 -243 -76 -305 -3 -19 -8
-42 -10 -50 -3 -8 -7 -33 -10 -55 -3 -22 -8 -53 -10 -70 -12 -84 -15 -118 -22
-215 -15 -203 -8 -475 16 -645 6 -39 13 -92 16 -120 4 -27 10 -66 15 -85 5
-19 12 -49 14 -66 16 -91 115 -424 146 -489 5 -11 21 -49 36 -85 23 -58 121
-262 144 -300 204 -345 340 -522 591 -766 356 -346 801 -610 1279 -758 106
-32 218 -61 280 -72 14 -3 31 -7 39 -10 13 -4 118 -21 191 -30 19 -3 46 -7 60
-9 140 -26 560 -26 765 0 30 4 126 18 135 20 3 0 28 4 55 9 184 28 525 132
714 217 134 61 304 151 411 218 99 63 313 217 350 252 8 8 33 29 55 48 84 71
249 236 350 352 199 228 449 648 547 919 74 206 149 471 163 575 3 24 25 171
30 203 19 118 26 460 12 637 -9 105 -10 120 -22 200 -4 28 -8 59 -10 70 -22
160 -120 516 -180 650 -7 17 -25 59 -40 95 -122 294 -332 621 -560 873 -161
179 -367 364 -530 477 -27 19 -56 40 -63 46 -6 7 -21 16 -32 19 -11 3 -20 11
-20 16 0 5 -5 9 -11 9 -6 0 -30 14 -54 30 -24 17 -46 30 -50 30 -3 0 -23 11
-45 25 -59 37 -263 138 -365 180 -207 85 -524 175 -705 200 -25 3 -52 8 -60
10 -8 2 -40 6 -70 9 -30 3 -82 8 -115 12 -85 9 -416 11 -505 3z m664 -263 c16
-3 30 -7 32 -9 2 -2 -1 -28 -6 -58 -6 -30 -13 -65 -15 -79 -3 -14 -7 -36 -10
-50 -2 -13 -11 -63 -20 -110 -8 -47 -17 -95 -19 -107 -5 -25 -4 -26 167 -53
43 -7 79 -16 81 -19 2 -3 1 -21 -1 -40 l-6 -33 -46 6 c-25 3 -55 8 -66 10 -11
2 -65 11 -120 21 -55 10 -103 20 -107 24 -4 3 -3 24 2 46 4 22 11 56 13 75 3
19 19 113 36 208 17 96 31 176 31 178 0 2 6 1 13 -1 6 -2 25 -7 41 -9z m-637
-137 c42 -26 69 -72 81 -137 26 -144 -50 -242 -183 -239 -78 3 -125 31 -156
94 -28 58 -31 162 -6 210 47 89 178 124 264 72z m-420 -68 c10 -38 10 -39 -27
-55 -38 -17 -60 -50 -60 -92 0 -13 12 -67 27 -119 16 -59 23 -99 17 -104 -5
-5 -24 -12 -41 -16 -26 -5 -33 -3 -33 9 0 8 -6 35 -14 58 -19 59 -76 273 -76
285 0 5 16 14 35 20 30 10 35 9 40 -8 6 -18 8 -18 27 7 18 22 68 52 89 54 4 0
11 -17 16 -39z m-408 -91 c31 16 47 12 60 -17 11 -23 10 -29 -5 -40 -10 -7
-24 -13 -31 -13 -18 0 -16 -13 6 -63 10 -23 29 -68 42 -100 23 -59 26 -61 72
-42 13 6 20 0 31 -26 16 -38 13 -42 -54 -65 -28 -10 -40 -9 -62 2 -16 8 -28
16 -28 17 0 1 -22 54 -50 117 -48 112 -55 120 -91 105 -12 -5 -20 2 -28 27 -6
18 -8 34 -3 36 5 1 17 9 27 16 16 12 16 15 1 44 -23 45 -20 60 17 76 l32 13
22 -49 c20 -43 25 -47 42 -38z m2053 11 c42 -16 96 -69 104 -104 20 -82 -13
-184 -77 -242 -22 -19 -45 -36 -52 -36 -85 -10 -145 6 -191 49 -55 52 -67 110
-41 198 36 121 145 178 257 135z m430 -159 c-24 -43 -24 -45 -7 -58 10 -7 23
-15 28 -17 7 -2 7 -14 -2 -35 -16 -37 -14 -37 -46 -16 -13 9 -28 13 -33 10
-11 -7 -112 -182 -112 -194 0 -5 13 -15 30 -23 l29 -14 -20 -32 -21 -33 -39
20 c-48 25 -72 60 -64 92 3 13 33 71 65 128 l59 105 -24 13 c-29 15 -29 13
-13 47 11 26 19 27 59 11 12 -5 22 5 40 38 l23 45 37 -21 36 -20 -25 -46z
m-2733 -48 c17 -14 31 -29 31 -34 0 -4 -16 -17 -35 -29 -19 -11 -35 -16 -35
-12 0 5 -13 14 -29 19 -37 13 -89 -11 -97 -45 -11 -42 7 -47 90 -24 88 24 115
26 151 9 52 -23 72 -109 38 -158 -57 -82 -164 -121 -233 -85 -26 13 -50 42
-50 59 0 3 14 13 30 21 29 15 32 15 56 -4 20 -16 31 -18 56 -10 82 23 110 120
30 104 -10 -2 -43 -10 -72 -19 -79 -24 -115 -21 -149 12 -65 59 -33 159 64
203 59 27 117 25 154 -7z m-484 -120 l27 -35 -29 -25 c-15 -13 -30 -24 -33
-24 -3 0 -18 16 -33 35 l-28 35 28 25 c15 13 31 25 34 25 4 0 19 -16 34 -36z
m3454 -54 c1 -3 -35 -50 -79 -105 -99 -123 -104 -139 -61 -177 25 -22 39 -28
63 -24 38 6 55 21 136 124 36 45 67 82 70 82 2 0 17 -9 33 -21 30 -21 30 -21
13 -48 -10 -14 -22 -31 -28 -37 -6 -6 -50 -61 -99 -122 -48 -62 -91 -112 -95
-112 -18 1 -54 41 -48 55 4 11 -2 15 -20 15 -67 0 -144 81 -138 143 4 39 21
63 161 235 l34 42 29 -22 c16 -13 29 -25 29 -28z m-1404 -26 c887 -123 1602
-716 1877 -1559 73 -225 103 -429 103 -695 -1 -96 -4 -204 -8 -240 -77 -716
-487 -1351 -1110 -1718 -224 -132 -516 -240 -747 -276 -19 -3 -46 -8 -60 -11
-66 -13 -181 -20 -345 -20 -228 1 -326 11 -515 56 -632 148 -1174 565 -1483
1139 -95 176 -191 440 -222 609 -6 35 -26 160 -34 216 -10 66 -7 463 4 535 78
517 287 946 631 1296 88 89 127 126 215 199 60 49 274 186 364 232 211 108
454 190 645 218 24 4 47 8 50 10 3 2 37 6 75 10 39 4 71 9 73 10 11 10 403 1
487 -11z m-1877 -145 l114 -144 -29 -22 c-15 -13 -32 -22 -36 -20 -4 1 -59 67
-122 147 l-114 145 27 22 c15 12 32 21 37 19 6 -1 61 -67 123 -147z m-358 -7
c28 -21 52 -63 54 -96 1 -20 6 -22 48 -22 104 2 172 -103 129 -200 -17 -37
-37 -62 -157 -191 l-49 -53 -60 57 c-33 31 -118 111 -188 178 l-129 122 94 98
c124 130 189 157 258 107z m4040 -172 c43 -33 80 -95 80 -135 0 -28 -32 -95
-46 -95 -6 0 -21 15 -42 41 -10 13 -10 22 -1 43 10 21 10 31 -1 51 -28 52 -90
68 -90 24 0 -11 16 -51 35 -89 40 -79 44 -126 15 -163 -56 -71 -171 -45 -237
55 -37 54 -37 126 -3 164 l24 24 27 -26 c26 -25 26 -27 11 -54 -15 -26 -15
-31 1 -64 21 -44 78 -76 101 -57 19 16 15 36 -30 125 -29 60 -35 82 -30 109
16 83 109 107 186 47z m-3142 -4160 c98 -31 161 -122 142 -206 -11 -47 -13
-48 -54 -33 -32 11 -34 16 -32 48 1 20 -2 46 -7 59 -13 28 -61 58 -109 67 -31
6 -41 3 -62 -18 -34 -34 -25 -57 42 -115 121 -103 132 -115 143 -152 31 -101
-40 -190 -150 -190 -56 0 -140 34 -189 75 -54 47 -79 121 -59 180 15 45 21 48
60 29 32 -15 36 -21 30 -43 -16 -61 8 -103 78 -139 57 -30 105 -26 132 10 31
42 17 68 -81 145 -95 75 -126 121 -117 171 19 110 106 152 233 112z m2274 -27
c73 -42 150 -189 150 -285 -1 -99 -47 -152 -199 -224 -62 -30 -117 -54 -122
-54 -4 0 -22 30 -39 68 -90 197 -182 403 -182 407 0 8 148 75 210 95 66 22
138 19 182 -7z m-1892 -127 c109 -24 253 -56 293 -67 37 -10 38 -12 31 -42 -3
-18 -8 -35 -10 -38 -2 -4 -40 1 -85 11 -85 19 -84 20 -93 -30 -7 -41 -88 -385
-91 -388 -2 -2 -22 2 -45 8 -36 10 -41 14 -36 33 3 12 24 103 46 202 23 99 43
187 46 196 4 15 -34 29 -120 45 -38 7 -46 12 -41 27 2 7 6 24 9 39 4 16 11 25
19 23 6 -3 41 -11 77 -19z m1394 -262 c26 -141 44 -260 39 -264 -4 -4 -24 -10
-44 -14 -35 -6 -37 -5 -194 156 -153 159 -157 162 -150 123 27 -141 62 -330
61 -332 -2 -3 -86 -14 -86 -10 0 2 -11 61 -25 132 -14 71 -28 141 -30 155 -5
24 -10 50 -20 100 -2 14 -7 41 -10 60 -3 19 -8 43 -11 52 -5 17 6 23 58 32 29
5 50 -14 266 -243 l80 -84 -13 74 c-15 83 -22 122 -30 159 -5 28 -13 68 -22
117 -6 33 -3 35 68 42 12 1 24 -48 63 -255z m-736 149 c6 -16 32 -86 57 -158
26 -71 64 -179 86 -238 21 -60 39 -110 39 -113 0 -2 -22 -4 -49 -4 l-50 0 -21
68 c-12 38 -25 74 -29 80 -9 15 -189 22 -200 8 -4 -6 -20 -41 -35 -77 -27 -66
-28 -67 -66 -67 -22 0 -42 3 -45 8 -3 5 36 104 86 222 50 117 98 232 107 256
16 41 17 42 63 42 42 0 48 -3 57 -27z"/>
<path d="M3134 6237 c-22 -19 -28 -34 -32 -79 -9 -117 66 -184 154 -137 63 33
56 178 -10 224 -31 22 -81 19 -112 -8z"/>
<path d="M4408 6087 c-79 -53 -96 -180 -29 -220 66 -39 136 -1 161 88 21 75
-3 126 -68 145 -25 7 -38 4 -64 -13z"/>
<path d="M3329 5656 c-2 -2 -36 -7 -76 -10 -40 -4 -96 -11 -125 -17 -29 -6
-64 -13 -78 -15 -283 -55 -611 -207 -870 -402 -99 -75 -322 -298 -392 -392
-235 -318 -372 -642 -427 -1015 -15 -104 -18 -172 -16 -340 2 -115 6 -221 9
-235 3 -14 12 -67 21 -118 60 -351 236 -727 470 -1002 76 -90 261 -267 340
-325 22 -17 42 -32 45 -35 3 -3 49 -34 102 -68 180 -114 369 -200 568 -257
131 -38 129 -37 275 -62 107 -18 443 -24 565 -11 390 43 756 192 1085 441 111
85 299 274 385 386 123 163 218 328 295 515 39 94 100 296 110 366 4 25 8 47
10 50 1 3 6 25 9 50 3 25 9 56 12 70 11 45 13 433 3 510 -32 248 -102 486
-205 698 -113 232 -231 398 -414 583 -171 173 -333 293 -536 397 -318 162
-600 232 -960 238 -111 2 -203 2 -205 0z m276 -330 c392 -15 779 -171 1091
-439 112 -96 134 -118 229 -237 170 -211 290 -452 353 -710 12 -47 24 -98 26
-115 34 -214 37 -400 11 -575 -2 -14 -7 -45 -10 -69 -4 -25 -17 -86 -30 -136
-157 -603 -603 -1085 -1187 -1280 -109 -36 -267 -73 -348 -81 -25 -3 -58 -7
-75 -9 -57 -9 -300 -6 -380 5 -578 77 -1064 392 -1357 880 -103 173 -164 325
-212 530 -36 153 -37 167 -41 375 -4 203 10 333 54 502 193 747 865 1307 1631
1359 47 4 86 7 88 9 2 2 11 1 20 -1 9 -1 71 -5 137 -8z"/>
<path d="M3368 4575 c-2 -2 -57 -5 -123 -8 -67 -3 -127 -8 -135 -11 -8 -3 -35
-7 -60 -10 -68 -7 -183 -33 -244 -55 -53 -18 -114 -55 -117 -69 -1 -4 -3 -562
-4 -1240 -1 -1106 0 -1234 14 -1247 47 -42 303 -130 486 -166 156 -32 437 -33
615 -3 184 30 459 127 461 162 0 9 1 91 2 182 2 152 4 168 25 201 34 56 50 64
302 150 102 35 157 75 193 144 21 39 21 51 22 515 1 308 -2 487 -9 510 -6 19
-29 53 -52 76 -44 45 -83 58 -204 70 -186 18 -212 27 -252 93 -22 35 -23 44
-24 289 l-1 253 -27 28 c-53 55 -249 104 -501 126 -70 6 -363 14 -367 10z
m802 -276 c0 -3 -22 -9 -50 -13 -131 -17 -295 -90 -458 -203 -320 -222 -384
-254 -527 -259 -198 -7 -335 105 -410 334 -21 65 -15 77 10 19 28 -64 122
-151 192 -177 80 -30 126 -37 220 -35 109 3 195 32 334 110 260 148 411 206
573 221 39 3 73 8 74 10 7 5 42 0 42 -7z m282 -753 c109 -11 122 -15 149 -45
l26 -28 -2 -349 c-1 -370 -3 -389 -49 -419 -31 -20 -210 -85 -236 -85 -10 0
-32 11 -47 24 l-28 24 -1 402 c-1 394 -1 402 20 433 19 27 80 61 96 52 3 -1
35 -6 72 -9z"/>
<path d="M1382 5475 l-67 -65 48 -47 47 -48 37 39 c85 87 100 127 63 161 -39
35 -58 29 -128 -40z"/>
<path d="M1595 5391 c-16 -10 -46 -36 -65 -57 -68 -76 -67 -67 -8 -123 l53
-51 51 53 c94 97 102 121 55 168 -34 34 -46 35 -86 10z"/>
<path d="M4590 1182 c-40 -6 -140 -54 -140 -67 0 -12 20 -59 96 -223 19 -41
34 -77 34 -82 0 -21 24 -19 83 9 121 57 146 125 88 246 -43 90 -94 127 -161
117z"/>
<path d="M3388 820 l-37 -90 71 0 c52 0 69 3 66 13 -3 6 -15 44 -28 82 -12 39
-25 73 -29 77 -3 4 -23 -33 -43 -82z"/>
</g>
</svg>
