<?xml version="1.0" standalone="no"?>
<!DOCTYPE svg PUBLIC "-//W3C//DTD SVG 20010904//EN"
 "http://www.w3.org/TR/2001/REC-SVG-20010904/DTD/svg10.dtd">
<svg version="1.0" xmlns="http://www.w3.org/2000/svg"
 width="700.000000pt" height="700.000000pt" viewBox="0 0 700.000000 700.000000"
 preserveAspectRatio="xMidYMid meet">
<metadata>
Created by potrace 1.14, written by Peter Selinger 2001-2017
</metadata>
<g transform="translate(0.000000,700.000000) scale(0.100000,-0.100000)"
fill="#000000" stroke="none">
<path d="M3215 6994 c-16 -2 -73 -9 -125 -15 -620 -69 -1200 -299 -1700 -673
-52 -39 -97 -73 -100 -76 -3 -3 -36 -32 -75 -65 -591 -503 -1000 -1209 -1154
-1990 -40 -202 -55 -371 -55 -615 -1 -252 5 -367 29 -525 104 -698 399 -1326
863 -1840 287 -319 642 -589 1029 -784 46 -22 84 -41 87 -41 2 0 6 13 9 29 3
16 9 40 12 54 6 23 0 28 -87 72 -1017 513 -1721 1548 -1825 2686 -18 190 -9
598 17 780 134 942 664 1793 1450 2325 421 285 912 472 1440 549 14 2 59 7
100 10 41 4 84 9 95 11 27 6 474 6 505 0 14 -2 57 -7 95 -11 367 -34 783 -154
1140 -330 575 -284 1060 -728 1390 -1275 115 -190 248 -477 314 -681 21 -64
22 -65 54 -62 84 10 81 -1 37 128 -114 331 -272 633 -479 920 -36 50 -68 92
-71 95 -3 3 -38 46 -79 95 -208 252 -519 522 -816 707 -449 280 -923 444
-1480 513 -56 7 -574 14 -620 9z"/>
<path d="M2463 4353 c-19 -7 -16 -31 6 -43 54 -29 70 -195 36 -390 -20 -116
-84 -377 -120 -485 -85 -254 -249 -614 -346 -758 -55 -83 -127 -154 -166 -163
-90 -23 -144 80 -182 346 -11 74 -22 158 -25 185 -7 61 -34 327 -41 410 -27
293 -80 496 -143 545 -155 122 -372 -336 -506 -1070 -38 -209 -40 -225 -21
-244 18 -18 25 -19 49 -10 19 7 21 37 5 66 -14 25 -3 99 47 336 87 409 187
687 296 829 49 64 74 75 99 42 19 -26 54 -138 65 -209 3 -25 8 -52 9 -60 7
-37 27 -212 45 -395 40 -392 73 -568 130 -689 16 -34 37 -71 47 -83 22 -28 80
-52 111 -47 131 22 306 272 515 734 113 251 203 615 213 855 5 146 -24 252
-80 289 -14 9 -27 16 -28 15 -2 0 -9 -3 -15 -6z"/>
<path d="M5353 4353 c-19 -7 -16 -16 17 -53 58 -65 62 -186 15 -445 -97 -525
-416 -1235 -597 -1331 -82 -43 -137 16 -178 190 -20 84 -43 236 -55 356 -3 36
-8 81 -10 100 -2 19 -7 64 -10 100 -37 412 -67 578 -122 681 -14 26 -36 52
-49 58 -50 23 -75 14 -134 -47 -129 -132 -252 -478 -354 -992 -50 -252 -51
-264 -31 -283 32 -33 71 -14 61 29 -4 16 -9 40 -12 54 -6 28 60 366 105 542
38 147 101 335 142 423 56 122 138 235 171 235 8 0 24 -17 35 -37 44 -79 66
-207 113 -669 47 -463 98 -668 189 -760 88 -89 202 -22 355 210 268 404 469
980 470 1351 1 155 -13 213 -61 261 -34 35 -38 36 -60 27z"/>
<path d="M6796 4195 c-61 -13 -116 -21 -123 -18 -7 3 -13 -2 -13 -10 0 -19 16
-31 24 -18 3 5 30 12 59 16 65 9 83 13 108 20 10 4 19 4 19 1 0 -3 -38 -65
-86 -137 -47 -72 -84 -133 -82 -135 2 -1 21 1 43 6 22 5 57 11 77 14 21 3 58
10 82 16 25 5 51 7 59 4 10 -4 13 3 9 26 -4 25 -6 28 -16 16 -6 -9 -27 -18
-46 -21 -19 -3 -56 -10 -82 -16 -26 -6 -52 -9 -58 -7 -5 1 24 54 65 117 94
141 100 151 83 150 -7 -1 -62 -12 -122 -24z"/>
<path d="M6816 3839 c-63 -18 -107 -85 -101 -153 6 -61 20 -61 20 -1 0 43 5
59 24 79 45 48 126 55 181 16 31 -22 55 -79 47 -111 -3 -10 -1 -17 4 -13 14 9
10 73 -7 110 -28 58 -105 92 -168 73z"/>
<path d="M6920 3574 c-30 -16 -93 -18 -123 -3 -22 10 -22 10 -2 -6 26 -21 119
-16 143 8 19 20 16 20 -18 1z"/>
<path d="M6952 3448 c26 -21 33 -45 30 -92 l-4 -45 -66 5 c-37 2 -87 6 -112 9
-25 2 -51 4 -57 4 -7 1 -13 9 -13 18 0 30 -11 6 -13 -30 -3 -28 0 -34 9 -26
17 14 213 0 242 -17 21 -14 22 -13 23 18 0 18 2 58 5 89 5 52 4 56 -21 67 -34
15 -43 15 -23 0z"/>
<path d="M5602 3348 c-7 -7 -12 -18 -12 -25 0 -7 -19 -37 -43 -66 -54 -66 -88
-145 -95 -219 -4 -52 -2 -62 18 -83 26 -27 53 -31 87 -12 52 29 110 141 119
234 l6 59 52 -13 c56 -15 306 -22 344 -9 14 5 22 14 20 24 -3 13 -13 16 -43
15 -22 -2 -96 -4 -165 -5 -139 -2 -187 12 -218 61 -16 27 -41 51 -52 51 -3 0
-11 -5 -18 -12z m-2 -190 c-26 -99 -67 -180 -89 -176 -41 9 8 179 75 257 38
46 42 26 14 -81z"/>
<path d="M2930 3342 c-8 -3 -27 -13 -42 -24 -21 -14 -32 -16 -53 -8 -67 25
-147 -1 -219 -73 -127 -127 -122 -290 6 -214 24 14 81 60 127 102 46 41 89 74
95 72 20 -8 46 14 46 38 0 21 16 43 25 34 1 -2 -3 -32 -10 -65 -28 -135 4
-184 119 -184 73 0 189 38 321 105 101 51 145 80 145 94 0 3 -4 12 -9 20 -7
11 -18 7 -52 -22 -48 -42 -193 -119 -275 -147 -107 -37 -180 -36 -206 4 -13
20 -8 70 12 129 34 96 21 156 -30 139z m-159 -130 c-26 -36 -107 -112 -121
-112 -19 0 17 55 64 98 54 50 89 59 57 14z"/>
<path d="M3524 3171 c-2 -2 -4 -15 -4 -28 0 -24 1 -24 103 -21 94 3 102 4 102
23 0 18 -8 20 -98 25 -54 3 -101 3 -103 1z"/>
<path d="M6959 3156 c-8 -8 -63 -30 -124 -49 -60 -20 -118 -39 -128 -42 -13
-6 9 -24 95 -77 62 -38 121 -79 131 -90 16 -19 17 -19 18 -2 0 11 2 26 4 35 2
11 -3 15 -19 12 -12 -3 -33 5 -48 16 -22 18 -25 27 -22 68 1 27 1 37 -2 23
-14 -73 -14 -73 -32 -58 -9 8 -34 23 -54 33 -21 11 -36 21 -34 23 3 2 35 12
73 22 37 10 83 23 100 28 24 8 35 7 40 -1 4 -7 10 5 14 28 8 47 7 49 -12 31z"/>
<path d="M6221 3114 c-29 -37 -24 -70 9 -66 31 3 52 29 48 62 -4 35 -32 36
-57 4z"/>
<path d="M6640 2815 c-21 -55 -20 -76 5 -101 13 -13 33 -24 43 -24 11 0 49 22
86 49 71 53 100 57 116 16 15 -40 -2 -79 -41 -92 l-34 -11 27 -7 c34 -9 47 -1
65 42 25 60 0 110 -59 120 -9 1 -47 -18 -84 -43 -72 -49 -107 -53 -117 -13 -8
30 9 69 30 69 15 0 16 2 3 10 -23 15 -30 12 -40 -15z"/>
<path d="M6550 2491 c0 -10 6 -21 13 -24 8 -3 32 -28 55 -55 l42 -50 -71 -12
c-50 -9 -73 -9 -78 -2 -4 6 -14 -10 -23 -36 -11 -29 -12 -40 -4 -30 8 10 48
25 101 37 83 18 91 19 129 3 23 -8 44 -20 48 -26 4 -6 8 -9 8 -6 0 3 4 20 10
38 7 27 7 32 -4 23 -14 -12 -65 -1 -101 23 -13 9 -42 42 -66 76 -44 62 -59 73
-59 41z"/>
<path d="M6425 2166 c-15 -39 -38 -90 -50 -114 l-24 -42 21 -11 c15 -8 19 -8
13 0 -6 11 11 79 24 94 9 9 211 -80 227 -99 9 -11 13 -9 22 12 15 33 15 34 -5
34 -15 0 -208 82 -219 93 -10 9 22 76 39 84 l21 10 -21 5 c-17 5 -24 -4 -48
-66z"/>
<path d="M6312 1943 c-16 -28 -15 -33 3 -33 9 0 51 -20 95 -45 90 -53 109 -83
86 -138 -31 -74 -75 -77 -184 -13 -45 26 -82 54 -84 63 -2 10 -10 1 -21 -22
-13 -26 -14 -35 -5 -27 11 9 26 4 69 -21 145 -87 194 -85 239 8 38 79 20 111
-107 184 -39 22 -73 47 -75 53 -3 8 -9 5 -16 -9z"/>
<path d="M6082 1591 c2 -4 33 -64 70 -133 45 -84 66 -133 61 -145 -8 -22 -3
-18 26 24 14 21 17 31 8 27 -9 -3 -22 8 -36 32 l-22 36 28 37 c15 20 32 39 37
43 15 11 69 -1 82 -18 10 -13 16 -10 35 17 22 32 22 32 2 27 -12 -3 -82 9
-157 27 -75 18 -136 30 -134 26z m140 -103 c-15 -21 -30 -38 -34 -38 -7 0 -58
88 -58 100 0 4 27 1 59 -8 l60 -16 -27 -38z"/>
<path d="M5930 1413 c0 -5 -25 -37 -55 -71 -53 -61 -70 -87 -42 -63 10 8 18 6
33 -7 10 -9 50 -44 88 -77 37 -33 71 -68 75 -77 5 -15 17 -6 63 50 48 59 55
72 45 86 -11 14 -12 13 -13 -9 -1 -14 -16 -41 -32 -60 l-31 -34 -40 32 c-22
18 -40 36 -40 40 -1 13 39 61 55 67 12 5 11 10 -7 25 -12 11 -19 14 -15 8 7
-13 -39 -83 -54 -83 -5 0 -27 17 -49 38 l-41 37 30 33 c17 18 39 36 50 40 20
7 20 7 0 20 -11 7 -20 9 -20 5z"/>
<path d="M5729 1171 c-30 -11 -104 -84 -90 -89 26 -9 171 -167 171 -187 0 -28
96 69 111 112 18 55 -24 101 -82 89 -27 -5 -29 -3 -29 23 0 40 -42 67 -81 52z
m39 -27 c27 -18 29 -60 5 -87 -17 -18 -15 -18 17 2 47 28 74 27 99 -6 25 -31
20 -56 -19 -96 l-28 -27 -60 62 c-73 77 -112 120 -112 123 0 4 64 45 70 45 3
0 16 -7 28 -16z"/>
<path d="M5350 933 c-58 -40 -67 -90 -23 -135 22 -23 27 -36 24 -67 -3 -54 39
-103 90 -103 60 0 129 45 144 93 4 11 14 19 23 19 9 1 31 7 47 15 l30 14 -43
-2 c-41 -1 -61 11 -62 38 0 6 -13 25 -29 42 -24 28 -31 31 -40 19 -10 -11 -8
-16 9 -21 23 -7 55 -50 46 -63 -6 -10 -123 3 -177 19 -81 25 -81 129 0 129 13
0 33 -8 44 -17 18 -17 18 -17 6 10 -15 32 -51 36 -89 10z m105 -178 c17 -2 49
-4 73 -4 35 -1 42 -4 42 -21 0 -26 -42 -66 -77 -75 -53 -13 -113 37 -113 95 0
16 5 19 23 15 12 -3 36 -8 52 -10z"/>
<path d="M5108 706 c-22 -9 -24 -14 -13 -21 15 -10 96 -167 90 -173 -2 -2 -41
9 -87 23 -45 15 -87 28 -93 29 -5 2 -34 10 -64 19 -30 9 -56 16 -57 14 -2 -1
23 -54 55 -117 33 -63 57 -120 54 -127 -4 -10 2 -10 28 -1 24 9 29 13 16 16
-11 2 -35 39 -63 94 -36 71 -41 89 -27 84 210 -65 286 -87 289 -83 2 2 -21 52
-52 111 -33 64 -54 116 -51 127 3 10 4 19 4 18 -1 0 -14 -6 -29 -13z"/>
<path d="M4664 509 c-17 -5 -39 -19 -50 -31 l-19 -22 29 18 c37 23 107 24 141
2 55 -36 75 -128 39 -183 -17 -26 -88 -65 -99 -55 -5 4 -5 2 -1 -5 14 -25 102
17 133 63 19 30 22 109 4 141 -30 57 -110 90 -177 72z"/>
<path d="M2307 479 c8 -8 0 -42 -29 -122 -21 -61 -43 -114 -49 -117 -5 -4 6
-11 25 -17 32 -10 34 -9 24 7 -8 13 -2 41 28 125 21 60 44 110 49 112 6 1 25
-6 43 -17 63 -39 32 -130 -39 -110 -29 8 -29 8 -15 -18 8 -15 19 -47 26 -71 6
-24 23 -54 37 -67 30 -28 53 -32 31 -6 -12 14 -58 123 -58 138 0 2 9 4 19 4
26 0 59 30 66 61 9 38 -33 84 -89 98 -59 14 -84 15 -69 0z"/>
<path d="M4371 402 c-8 -3 -7 -8 3 -16 8 -6 22 -36 30 -66 8 -30 22 -81 31
-113 13 -49 14 -61 3 -75 -7 -9 -8 -13 -2 -9 6 3 23 11 38 17 25 9 26 11 12
26 -9 8 -16 22 -16 30 0 7 -11 53 -25 101 -14 48 -23 93 -21 100 5 12 -24 15
-53 5z"/>
<path d="M2616 365 c7 -17 -43 -214 -58 -233 -14 -16 -16 -15 72 -36 l75 -17
18 22 c21 26 16 35 -10 18 -13 -8 -33 -9 -59 -4 -21 5 -42 8 -46 7 -11 -3 -10
37 3 81 5 20 16 37 23 37 25 0 76 -22 77 -33 0 -7 4 -3 9 8 13 30 12 39 -4 26
-10 -8 -22 -8 -47 0 -19 7 -35 13 -37 14 -8 6 21 105 31 105 31 0 87 -23 96
-38 6 -9 11 -15 11 -12 7 30 7 40 2 41 -10 1 -35 6 -92 18 -66 14 -70 14 -64
-4z"/>
<path d="M4216 363 c-43 -15 -56 -18 -128 -29 -43 -6 -48 -9 -48 -31 0 -25 0
-25 18 -5 9 12 33 24 54 27 41 8 36 17 68 -123 12 -51 19 -100 16 -109 -5 -12
-1 -14 16 -9 13 3 27 6 32 6 5 0 4 6 -1 12 -6 7 -20 56 -33 108 -12 52 -24
102 -26 111 -3 12 7 19 41 28 25 6 50 9 55 6 6 -3 7 1 4 9 -7 19 -16 19 -68
-1z"/>
<path d="M4571 335 c0 -12 13 -36 30 -55 l30 -35 -24 35 c-14 19 -27 44 -30
55 -5 20 -5 20 -6 0z"/>
<path d="M2888 324 c11 -20 -26 -224 -44 -245 -13 -14 -6 -17 64 -27 101 -16
97 -16 117 15 l18 27 -27 -21 c-20 -16 -36 -20 -64 -17 -66 8 -74 13 -67 42 6
30 7 37 25 139 10 55 18 74 34 82 12 6 14 10 6 8 -8 -2 -27 0 -43 4 -22 6 -26
5 -19 -7z"/>
<path d="M3850 174 c-24 -74 -47 -137 -52 -140 -15 -9 -8 -22 10 -19 9 2 26 4
37 5 18 0 18 2 4 10 -14 8 -15 16 -7 48 8 31 14 38 36 40 15 1 41 4 59 6 28 4
33 0 48 -31 9 -19 14 -40 11 -48 -4 -10 2 -11 24 -5 16 4 31 6 34 2 3 -3 6 -2
6 3 0 5 -7 15 -16 24 -8 9 -46 66 -83 128 l-68 112 -43 -135z m84 14 c18 -32
23 -48 14 -48 -7 -1 -30 -3 -51 -6 -34 -5 -38 -4 -34 13 3 10 11 38 17 62 13
48 15 47 54 -21z"/>
<path d="M3239 263 c-36 -71 -125 -219 -138 -230 -13 -10 -10 -12 21 -13 28 0
36 3 32 14 -3 8 2 28 11 45 15 30 17 31 68 25 63 -7 71 -14 72 -62 0 -37 0
-37 44 -40 44 -3 44 -3 23 15 -12 10 -38 68 -62 138 -23 66 -45 124 -49 128
-5 4 -14 -5 -22 -20z m34 -85 c10 -30 13 -55 7 -58 -5 -3 -27 -4 -49 -2 -43 4
-43 2 -6 75 10 20 22 37 25 37 3 0 14 -23 23 -52z"/>
<path d="M3627 264 c5 -14 -36 -94 -48 -94 -4 0 -21 19 -38 42 -23 31 -28 44
-18 50 7 4 -10 7 -38 7 -37 0 -45 -2 -29 -9 21 -8 104 -105 104 -122 0 -5 -23
-38 -50 -73 l-50 -65 29 0 c22 0 29 4 25 14 -3 7 10 35 28 61 31 44 33 46 46
26 8 -11 22 -30 33 -42 22 -25 24 -45 7 -53 -7 -2 11 -4 40 -4 56 1 63 5 33
16 -11 4 -40 34 -64 66 l-45 60 40 58 c22 32 47 62 56 68 13 7 7 9 -25 8 -29
-1 -40 -5 -36 -14z"/>
</g>
</svg>
